<?xml version="1.0" standalone="no"?>
<!DOCTYPE svg PUBLIC "-//W3C//DTD SVG 1.1//EN" "http://www.w3.org/Graphics/SVG/1.1/DTD/svg11.dtd" >
<svg xmlns="http://www.w3.org/2000/svg">
<metadata>
This is a custom SVG webfont generated by Font Squirrel.
Copyright   : Copyright c Terminal Design Inc 2005 All rights reserved
Designer    : James Montalbano
Foundry     : Terminal Design Inc
Foundry URL : wwwterminaldesigncom
</metadata>
<defs>
<font id="ClearviewATTBoldItalic" horiz-adv-x="1255" >
<font-face units-per-em="2048" ascent="1536" descent="-512" />
<missing-glyph horiz-adv-x="614" />
<glyph unicode=" "  horiz-adv-x="614" />
<glyph unicode="&#x09;" horiz-adv-x="614" />
<glyph unicode="&#xa0;" horiz-adv-x="614" />
<glyph unicode="!" horiz-adv-x="612" d="M131 106q0 74 66.5 119t144.5 45q66 0 119 -32.5t53 -94.5q0 -76 -66.5 -122t-144.5 -46q-68 0 -120 34t-52 97zM242 391q2 10 98 975h317q-20 -111 -57 -307.5t-66.5 -360t-54.5 -307.5h-237z" />
<glyph unicode="&#x22;" horiz-adv-x="987" d="M272 918l25 516h301l-133 -516h-193zM766 918l25 516h301l-136 -516h-190z" />
<glyph unicode="#" horiz-adv-x="1435" d="M166 473l57 213h228l67 248h-227l57 209h230l63 223h223l-63 -223h258l63 223h224l-66 -223h209l-62 -209h-206l-74 -248h221l-59 -213h-226l-65 -242h-232l72 242h-246l-71 -242h-219l69 242h-225zM672 686h254l69 248h-256z" />
<glyph unicode="$" d="M154 207l147 199q182 -131 363 -132q252 0 251 154q0 57 -64.5 96t-156.5 69t-184 65.5t-156.5 106.5t-64.5 173q0 166 109.5 265.5t281.5 117.5l22 158h271l-23 -160q137 -10 293 -90l-135 -213q-150 92 -320 92q-217 0 -217 -127q0 -41 46.5 -72.5t115 -52t149.5 -52.5 t149.5 -68t114.5 -102.5t46 -154.5q0 -172 -120 -280.5t-300 -126.5l-22 -166h-271l25 168q-172 10 -350 133z" />
<glyph unicode="%" horiz-adv-x="1626" d="M227 995q0 190 86 314.5t267 124.5q254 0 254 -258q0 -188 -86 -312.5t-267 -124.5q-254 0 -254 256zM258 0l1147 1434h156l-1145 -1434h-158zM406 999q0 -117 96 -116q47 0 78.5 30.5t46 79.5t20.5 93t6 90q0 113 -94 112q-47 0 -80 -29.5t-47 -79t-20 -92.5t-6 -88z M989 246q0 188 87 312t265 124q254 0 254 -258q0 -186 -86 -311t-264 -125q-256 0 -256 258zM1169 246q0 -115 95 -115q47 0 78.5 29.5t46 79t20.5 92.5t6 88q0 117 -94 117q-152 0 -152 -291z" />
<glyph unicode="&#x26;" horiz-adv-x="1366" d="M166 322q0 295 338 452q-113 123 -113 252q0 170 130 268.5t304 98.5q143 0 239.5 -62.5t96.5 -197.5q0 -133 -87 -219.5t-238 -161.5l213 -351q33 88 32 273v37h252q2 -18 2 -54q0 -289 -143 -430l139 -227h-305l-51 76q-166 -96 -354 -96q-90 0 -167 16t-144.5 54 t-105.5 107t-38 165zM461 391q0 -84 49 -140t156 -56q88 0 176 51l-242 383q-66 -37 -102.5 -102.5t-36.5 -135.5zM662 1063q0 -86 86 -180q55 35 84.5 59.5t60.5 69.5t31 96q0 100 -111 100q-68 0 -109.5 -38.5t-41.5 -106.5z" />
<glyph unicode="'" horiz-adv-x="493" d="M272 918l25 516h301l-133 -516h-193z" />
<glyph unicode="(" horiz-adv-x="690" d="M152 428q0 569 434 1159l198 -53q-367 -541 -366 -1141q0 -307 119 -622l-213 -56q-172 365 -172 713z" />
<glyph unicode=")" horiz-adv-x="690" d="M45 -229q367 547 367 1153q0 324 -119 610l211 53q172 -403 172 -717q0 -586 -434 -1155z" />
<glyph unicode="*" horiz-adv-x="768" d="M188 1112l97 197l184 -92l-10 204h231l-65 -202l206 90l43 -195l-225 -27l135 -149l-194 -121l-76 187l-123 -187l-160 121l175 149z" />
<glyph unicode="+" d="M152 432l34 242h414l57 416h248l-57 -416h409l-34 -242h-410l-59 -422h-248l59 422h-413z" />
<glyph unicode="," horiz-adv-x="530" d="M2 -270l174 516h309l-286 -516h-197z" />
<glyph unicode="-" horiz-adv-x="784" d="M154 399l36 271h588l-37 -271h-587z" />
<glyph unicode="." horiz-adv-x="530" d="M88 106q0 74 67.5 119t145.5 45q66 0 119 -33.5t53 -95.5q0 -74 -67.5 -120t-145.5 -46q-68 0 -120 34t-52 97z" />
<glyph unicode="/" horiz-adv-x="1173" d="M10 -236l1047 1670h262l-1049 -1670h-260z" />
<glyph unicode="0" d="M168 457q0 82 18 225q23 168 66 291t116.5 220t187.5 146.5t267 49.5q242 0 347.5 -123t105.5 -355q0 -106 -19 -229q-49 -346 -192 -527.5t-440 -181.5q-244 0 -350.5 124t-106.5 360zM459 453q0 -117 44 -178.5t154 -61.5q66 0 116 24.5t80 61.5t53.5 104.5t34.5 126 t24 152.5q23 162 22 233q0 115 -45 174.5t-154 59.5q-68 0 -116.5 -23.5t-79.5 -59.5t-53.5 -102.5t-33.5 -125t-26 -156.5q-20 -139 -20 -229z" />
<glyph unicode="1" d="M197 0l32 244h326l113 803h-11l-286 -166l-84 217l479 270h229l-157 -1124h317l-33 -244h-925z" />
<glyph unicode="2" d="M158 242q78 55 190 134l174 122q61 43 142 104.5t124 102t85 92t59.5 98.5t17.5 96q0 66 -40 109t-115 43q-180 0 -373 -178l-125 204q143 121 270 170.5t285 49.5q193 0 294 -91.5t101 -253.5q0 -104 -47 -205.5t-113.5 -177t-175 -159.5t-191.5 -136.5t-206 -121.5h649 l-33 -244h-962z" />
<glyph unicode="3" d="M135 137l156 207q160 -135 321 -135q125 0 209 59.5t84 184.5q0 74 -47 104.5t-141 30.5h-201l33 231h98q297 0 297 189q0 137 -188 137q-168 0 -350 -144l-99 213q145 96 259 135.5t257 39.5q190 0 303 -84t113 -246q0 -236 -195 -338v-8q154 -47 154 -234 q0 -238 -165 -372t-423 -134q-289 0 -475 164z" />
<glyph unicode="4" d="M150 489l727 875h297l-119 -848h188l-35 -244h-188l-37 -272h-283l37 272h-551zM457 516h323l72 514h-8z" />
<glyph unicode="5" d="M139 113l148 219q150 -123 331 -123q143 0 221.5 82t78.5 233q0 188 -228 189q-139 0 -270 -111l-191 139l203 625h811l-35 -246h-585l-101 -266l8 -4q129 92 297 92q162 0 269.5 -89t107.5 -273q0 -279 -161.5 -443t-452.5 -164q-277 1 -451 140z" />
<glyph unicode="6" d="M174 465q0 88 12 174q23 166 68 294t124 234.5t205 164t294 57.5q225 0 387 -111l-160 -215q-109 80 -248 80q-168 0 -255 -91t-114 -264h9q117 131 319 132q184 0 297 -96.5t113 -278.5q0 -254 -167 -413t-421 -159q-463 0 -463 492zM459 399q0 -94 57 -140t154 -46 q129 0 196.5 82t67.5 215q0 170 -197 170q-131 0 -204.5 -75t-73.5 -206z" />
<glyph unicode="7" d="M279 1122l32 244h965l16 -223q-297 -215 -403.5 -419t-163.5 -622l-14 -102h-301l8 68q106 766 497 1046l3 8h-639z" />
<glyph unicode="8" d="M154 322q0 154 61 251t201 150l2 8q-141 76 -142 223q0 227 153 331t392 104q438 0 439 -304q0 -129 -52.5 -214t-167.5 -140l-2 -8q174 -68 174 -248q0 -252 -161.5 -377t-423.5 -125q-473 1 -473 349zM432 358q0 -92 60.5 -124.5t160.5 -32.5q137 0 205 59t68 195 q0 90 -57.5 121.5t-157.5 31.5q-135 0 -207 -58.5t-72 -191.5zM557 956q0 -135 184 -135q106 0 170 49.5t64 153.5q0 131 -187 131q-231 0 -231 -199z" />
<glyph unicode="9" d="M182 119l172 188q66 -55 117 -76.5t129 -21.5q170 0 249 98.5t107 280.5h-8q-133 -141 -319 -142q-184 0 -298 97.5t-114 277.5q0 252 169 410t421 158q461 0 461 -494q0 -80 -15 -188q-18 -129 -48.5 -232.5t-83 -199t-124 -159t-177 -101.5t-238.5 -38q-253 1 -400 142 zM510 866q0 -90 54 -134t147 -44q133 0 199.5 75t66.5 210q0 176 -201 176q-123 0 -194.5 -79t-71.5 -204z" />
<glyph unicode=":" horiz-adv-x="530" d="M96 106q0 74 65.5 119t141.5 45q63 0 114.5 -32.5t51.5 -94.5q0 -76 -64.5 -122t-142.5 -46q-66 0 -116 35t-50 96zM197 815q0 74 64.5 119t141.5 45q66 0 115 -33t49 -96q0 -74 -65.5 -120t-141.5 -46q-63 0 -113 35t-50 96z" />
<glyph unicode=";" horiz-adv-x="530" d="M2 -270l172 516h309l-284 -516h-197zM217 815q0 74 64.5 119t142.5 45q66 0 114 -33t48 -96q0 -72 -64.5 -119t-140.5 -47q-63 0 -113.5 35t-50.5 96z" />
<glyph unicode="&#x3c;" d="M152 430l34 244l1133 440l-37 -256l-829 -303l745 -295l-35 -250z" />
<glyph unicode="=" d="M121 207l33 239h1071l-33 -239h-1071zM186 682l35 240h1071l-35 -240h-1071z" />
<glyph unicode="&#x3e;" d="M92 10l35 250l831 295l-747 303l37 256l1009 -440l-34 -244z" />
<glyph unicode="?" horiz-adv-x="1116" d="M250 1239q129 80 244.5 116t261.5 36q178 0 291.5 -79t113.5 -249q0 -184 -94 -279.5t-295 -179.5q-49 -20 -62.5 -39.5t-23.5 -83.5l-12 -82h-279l21 146q14 92 46 132t120 79q12 6 72.5 30.5t85 38t64.5 42t56.5 64.5t16.5 81q0 74 -57.5 105.5t-137.5 31.5 q-178 0 -324 -117zM299 104q0 74 66.5 119t142.5 45q66 0 119 -32.5t53 -94.5q0 -74 -66.5 -120t-144.5 -46q-66 0 -118 33t-52 96z" />
<glyph unicode="@" horiz-adv-x="1685" d="M174 352q0 250 122 445.5t325.5 299t451.5 103.5q254 0 421 -123t167 -368q0 -141 -50 -275.5t-161 -232t-256 -97.5q-63 0 -108.5 34t-47.5 95h-8q-100 -123 -270 -122q-109 0 -166 66.5t-57 176.5q0 193 117.5 349.5t301.5 156.5q109 0 164 -82h2l17 62h213 q-2 -10 -44 -156.5t-76 -272.5t-34 -135q0 -45 62 -45q88 0 156.5 89.5t97 192.5t28.5 187q0 195 -136 288t-341 93q-336 0 -544 -196.5t-208 -530.5q0 -231 139.5 -347t376.5 -116q260 0 449 127l53 -96q-223 -143 -540 -143q-276 0 -446.5 150.5t-170.5 422.5zM748 375 q0 -104 106 -105q133 0 176 164q43 152 43 189q0 76 -102 75q-111 0 -167 -101t-56 -222z" />
<glyph unicode="A" horiz-adv-x="1435" d="M25 0l718 1372h320l348 -1372h-319l-70 287h-539l-149 -287h-309zM588 528h393l-119 547h-8z" />
<glyph unicode="B" horiz-adv-x="1363" d="M150 0l190 1356q238 27 502 26q82 0 149.5 -6t138 -26.5t117.5 -52t78 -88t31 -132.5q0 -141 -66.5 -225t-202.5 -129v-8q229 -49 230 -271q0 -227 -142.5 -335.5t-398.5 -108.5h-626zM475 217q76 -4 238 -4q68 0 113.5 7t93 28.5t72 70t24.5 121.5q0 53 -22.5 88 t-67.5 48.5t-80 17.5t-90 4q-104 0 -228 -4zM561 807q61 -4 230 -4q127 0 196.5 45t69.5 172q0 70 -54.5 101.5t-185.5 31.5q-100 0 -209 -10z" />
<glyph unicode="C" horiz-adv-x="1361" d="M199 535q0 367 207.5 610.5t568.5 243.5q299 0 489 -228l-209 -190q-123 166 -303 166q-119 0 -207 -49.5t-137 -132.5t-72.5 -182t-23.5 -212q0 -336 309 -336q186 0 383 170l133 -198q-262 -219 -553 -220q-281 0 -433 141t-152 417z" />
<glyph unicode="D" horiz-adv-x="1441" d="M150 0l190 1356q293 27 477 26q287 0 452 -134t165 -412q0 -389 -214 -612.5t-599 -223.5h-471zM481 240q49 -2 148 -2q231 0 339.5 109.5t143.5 348.5q10 72 10 127q0 326 -329 326q-61 0 -185 -8z" />
<glyph unicode="E" horiz-adv-x="1177" d="M150 0l190 1366h932l-35 -250h-633l-41 -289h574l-35 -254h-574l-47 -329h654l-33 -244h-952z" />
<glyph unicode="F" horiz-adv-x="1136" d="M150 0l190 1366h913l-34 -250h-615l-43 -301h555l-35 -252h-555l-77 -563h-299z" />
<glyph unicode="G" horiz-adv-x="1499" d="M199 539q0 362 212 606t566 244q295 0 475 -211l-207 -191q-129 150 -291 150q-123 0 -212 -50.5t-138 -136.5t-71.5 -187t-22.5 -218q0 -340 313 -340q164 0 251 80t104 243h-324l33 240h604l-21 -147q-45 -317 -210.5 -479t-479.5 -162q-268 0 -424.5 145.5 t-156.5 413.5z" />
<glyph unicode="H" horiz-adv-x="1421" d="M150 0l190 1366h299l-70 -506h525l69 506h299l-190 -1366h-299l80 580h-525l-79 -580h-299z" />
<glyph unicode="I" horiz-adv-x="598" d="M150 0l190 1366h299l-190 -1366h-299z" />
<glyph unicode="J" horiz-adv-x="1003" d="M78 109l164 219q51 -57 97 -79t110 -22q137 0 161 176l135 963h299l-124 -899q-16 -117 -44 -199t-80.5 -152.5t-140.5 -106.5t-213 -36q-117 0 -200.5 31t-163.5 105z" />
<glyph unicode="K" horiz-adv-x="1318" d="M150 0l190 1366h299l-80 -569h8l500 569h377l-559 -596l420 -770h-381l-291 571l-121 -114l-63 -457h-299z" />
<glyph unicode="L" horiz-adv-x="1112" d="M150 0l190 1366h299l-156 -1114h580l-35 -252h-878z" />
<glyph unicode="M" horiz-adv-x="1636" d="M150 0l190 1366h260l326 -582l489 582h262l-190 -1366h-289l123 874h-8l-449 -528l-297 524h-8l-121 -870h-288z" />
<glyph unicode="N" horiz-adv-x="1497" d="M150 0l190 1366h276l502 -856h10l121 856h289l-190 -1366h-258l-521 870h-8l-121 -870h-290z" />
<glyph unicode="O" horiz-adv-x="1581" d="M197 530q0 381 207.5 620t580.5 239q276 0 432 -136.5t156 -410.5q0 -383 -206 -622.5t-581 -239.5q-279 0 -434 138t-155 412zM508 539q0 -162 75.5 -240t237.5 -78q209 0 302.5 119t125.5 344q12 74 13 150q0 160 -76 236.5t-236 76.5q-209 0 -303 -119t-127 -344 q-12 -73 -12 -145z" />
<glyph unicode="P" horiz-adv-x="1298" d="M150 0l190 1356q254 27 489 26q520 0 521 -358q0 -254 -142.5 -396.5t-402.5 -142.5h-289l-67 -485h-299zM549 719h225q139 0 210 60.5t71 203.5q0 88 -60.5 124t-195.5 36q-92 0 -193 -8z" />
<glyph unicode="Q" horiz-adv-x="1581" d="M197 530q0 383 206.5 621t581.5 238q279 0 433.5 -136.5t154.5 -410.5q0 -223 -81 -414.5t-249 -310.5v-8q41 -10 105.5 -57.5t144.5 -55.5l-127 -207q-92 2 -181 50t-162 95.5t-124 47.5q-10 0 -42 -3.5t-48 -3.5q-289 0 -450.5 136t-161.5 419zM508 539 q0 -162 75.5 -240t237.5 -78q209 0 303.5 120t124.5 343q12 80 13 158q0 158 -76 230.5t-236 72.5q-211 0 -305 -118t-125 -343q-12 -94 -12 -145z" />
<glyph unicode="R" horiz-adv-x="1320" d="M150 0l190 1358q238 25 475 24q530 0 531 -344q0 -154 -75 -275.5t-216 -164.5v-8q23 -10 41 -68l155 -522h-313l-127 467q-10 31 -22.5 41t-45.5 10h-223l-71 -518h-299zM553 752h231q264 0 265 235q0 94 -69 128t-185 34q-80 0 -187 -10z" />
<glyph unicode="S" horiz-adv-x="1230" d="M86 145l162 213q199 -145 385 -145q260 0 260 158q0 63 -66.5 109t-162 79t-191.5 75t-162.5 123t-66.5 195q0 117 46 204t126 135t176 70.5t207 22.5q246 0 463 -120l-140 -230q-168 111 -329 111q-244 0 -244 -137q0 -61 66.5 -103.5t160.5 -73t188.5 -69.5t161 -120 t66.5 -200q0 -240 -157.5 -351t-409.5 -111q-312 -1 -539 165z" />
<glyph unicode="T" horiz-adv-x="1124" d="M184 1112l35 254h1067l-35 -254h-385l-155 -1112h-299l155 1112h-383z" />
<glyph unicode="U" horiz-adv-x="1435" d="M215 403q0 82 10 146l115 817h299l-109 -772q-12 -80 -12 -150q0 -106 50 -160.5t180 -54.5q90 0 150 26t94 81t49.5 111.5t27.5 146.5l109 772h299l-115 -817q-41 -285 -193.5 -428.5t-455.5 -143.5q-262 0 -380 107.5t-118 318.5z" />
<glyph unicode="V" horiz-adv-x="1302" d="M221 1366h316l161 -1018h9l444 1018h311l-657 -1366h-307z" />
<glyph unicode="W" horiz-adv-x="2058" d="M233 1366h330l82 -1004h8l420 1004h303l123 -1004h8l381 1004h318l-592 -1366h-320l-129 969h-10l-403 -969h-334z" />
<glyph unicode="X" horiz-adv-x="1329" d="M20 0l570 711l-326 655h352l185 -430h8l315 430h349l-525 -674l361 -692h-348l-232 463h-8l-352 -463h-349z" />
<glyph unicode="Y" horiz-adv-x="1323" d="M195 1366h344l237 -567l404 567h329l-622 -829l-74 -537h-299l74 530z" />
<glyph unicode="Z" horiz-adv-x="1243" d="M88 0l31 219l788 893h-631l35 254h1002l-31 -219l-799 -903h705l-33 -244h-1067z" />
<glyph unicode="[" horiz-adv-x="757" d="M109 -256l262 1860h491l-24 -166h-240l-215 -1530h240l-23 -164h-491z" />
<glyph unicode="\" horiz-adv-x="1173" d="M248 1366h262l553 -1602h-260z" />
<glyph unicode="]" horiz-adv-x="757" d="M84 -256l22 164h240l215 1530h-239l24 166h492l-263 -1860h-491z" />
<glyph unicode="^" horiz-adv-x="886" d="M162 1217l473 227l414 -227l-150 -148l-291 162l-342 -162z" />
<glyph unicode="_" horiz-adv-x="991" d="M-66 -350l27 178h1022l-27 -178h-1022z" />
<glyph unicode="`" horiz-adv-x="712" d="M240 1399l307 119l246 -269l-185 -92z" />
<glyph unicode="a" horiz-adv-x="1208" d="M150 397q0 90 17 179.5t57 175.5t97.5 151.5t145.5 106.5t196.5 41t169 -32t97.5 -106h8l33 115h252l-144 -1028h-237v137h-8q-109 -160 -322 -160q-188 0 -275 116t-87 304zM442 401q0 -213 181 -213q109 0 162 60.5t67 173.5l33 225q3 21 3 40q0 142 -179 142 q-267 0 -267 -428z" />
<glyph unicode="b" horiz-adv-x="1208" d="M129 0l201 1434h288l-73 -519h8q88 135 287 136q184 0 274 -112t90 -292q0 -117 -30.5 -231.5t-91 -215t-163 -162t-231.5 -61.5q-236 0 -274 177h-8l-64 -154h-213zM467 356q0 -168 168 -168q78 0 135 42t86 113t42 142.5t13 149.5q0 92 -40 143t-142 51 q-199 0 -225 -182l-33 -225q-4 -23 -4 -66z" />
<glyph unicode="c" horiz-adv-x="1062" d="M147 401q0 283 172.5 466.5t452.5 183.5q213 0 373 -148l-150 -186q-90 111 -245 110q-154 0 -230 -115.5t-76 -275.5q0 -238 218 -237q164 0 303 102l65 -190q-211 -135 -418 -136q-213 0 -339 108.5t-126 317.5z" />
<glyph unicode="d" horiz-adv-x="1208" d="M150 397q0 90 17 179.5t57 175.5t97.5 151.5t145.5 106.5t197 41q180 0 247 -119h9l71 502h289l-201 -1434h-237v137h-8q-109 -160 -322 -160q-188 0 -275 116t-87 304zM442 401q0 -213 181 -213q109 0 162 60.5t67 173.5l33 225q3 21 3 40q0 142 -179 142 q-267 0 -267 -428z" />
<glyph unicode="e" horiz-adv-x="1173" d="M150 406q0 279 163.5 463t436.5 184q199 0 308 -117t109 -315q0 -100 -24 -199h-715q-4 -29 -4 -45q0 -182 240 -182q150 0 317 86l66 -193q-207 -111 -429 -111q-217 0 -342.5 108t-125.5 321zM457 604h454q4 33 4 53q0 90 -50 140.5t-140 50.5q-111 0 -181.5 -66.5 t-86.5 -177.5z" />
<glyph unicode="f" horiz-adv-x="747" d="M152 797l32 231h158l18 125q23 162 108 226.5t300 64.5q90 0 162 -10l-29 -209q-53 8 -113 8q-84 0 -112.5 -23.5t-38.5 -91.5l-12 -90h227l-33 -227h-217l-110 -801h-293l110 797h-157z" />
<glyph unicode="g" horiz-adv-x="1208" d="M102 -348l113 213q170 -109 350 -109q104 0 153.5 40t63.5 145l29 204h-8q-63 -80 -125 -109.5t-156 -29.5q-188 0 -280 109.5t-92 294.5q0 113 29.5 222t89 204.5t161.5 155t234 59.5q102 0 165.5 -31t102.5 -111h8l33 119h250l-148 -1055q-18 -139 -62 -229t-116 -134 t-144.5 -58.5t-181.5 -14.5q-272 0 -469 115zM446 440q0 -217 179 -217q113 0 165 60.5t68 177.5l25 178q3 22 3 42q0 148 -177 148q-96 0 -159 -62t-83.5 -144.5t-20.5 -182.5z" />
<glyph unicode="h" horiz-adv-x="1214" d="M129 0l201 1434h288l-71 -506h8q106 123 303 123q170 0 246 -80t76 -232q0 -61 -9 -118l-86 -621h-288l80 575q8 70 8 95q0 70 -34 104.5t-118 34.5q-203 0 -229 -195l-86 -614h-289z" />
<glyph unicode="i" horiz-adv-x="546" d="M129 0l143 1028h289l-143 -1028h-289zM279 1278q0 76 58 119t136 43q63 0 109.5 -31t46.5 -92q0 -76 -57.5 -119t-137.5 -43q-66 0 -110.5 31t-44.5 92z" />
<glyph unicode="j" horiz-adv-x="561" d="M-223 -453l35 242q68 -6 135 -6q111 0 145.5 48t50.5 169l144 1028h288l-149 -1063q-59 -428 -479 -428q-74 0 -170 10zM291 1276q0 78 57.5 121t136.5 43q63 0 109.5 -30t46.5 -91q0 -78 -57.5 -121t-137.5 -43q-63 0 -109 31t-46 90z" />
<glyph unicode="k" horiz-adv-x="1136" d="M129 0l201 1434h288l-110 -791h8l371 385h358l-434 -412l317 -616h-350l-200 438l-115 -106l-45 -332h-289z" />
<glyph unicode="l" horiz-adv-x="647" d="M154 154q0 31 6 69l170 1211h288l-161 -1143q-6 -45 7 -56.5t56 -11.5h101l-31 -223q-80 -12 -211 -12q-121 0 -173 38t-52 128z" />
<glyph unicode="m" horiz-adv-x="1794" d="M129 0l143 1028h254l4 -125h9q94 147 284 148q201 0 256 -152q129 152 336 152q344 0 344 -326q0 -57 -8 -107l-86 -618h-289l82 588q6 43 6 80q0 70 -29.5 105.5t-101.5 35.5q-80 0 -136 -41t-69 -127l-88 -641h-288l82 590q6 45 6 84q0 68 -30 101.5t-103.5 33.5 t-132 -46t-68.5 -124l-88 -639h-289z" />
<glyph unicode="n" horiz-adv-x="1214" d="M129 0l143 1028h248l4 -123h8q121 145 324 146q172 0 248 -79t76 -233q0 -61 -9 -118l-86 -621h-288l80 575q8 66 8 89q0 72 -34 108.5t-120 36.5q-201 0 -227 -195l-86 -614h-289z" />
<glyph unicode="o" horiz-adv-x="1230" d="M150 403q0 289 162.5 468.5t449.5 179.5q215 0 339 -107.5t124 -318.5q0 -289 -165 -468.5t-450 -179.5q-215 0 -337.5 107.5t-122.5 318.5zM442 410q0 -109 47.5 -162t153.5 -53q82 0 141.5 37.5t90 102t44 133.5t13.5 146q0 211 -201 211q-84 0 -143.5 -36.5t-89 -99 t-43 -131t-13.5 -148.5z" />
<glyph unicode="p" horiz-adv-x="1208" d="M66 -451l206 1479h240l4 -123h8q121 145 312 146q188 0 278 -110t90 -290q0 -119 -29.5 -233.5t-89 -216t-166 -163t-245.5 -61.5q-94 0 -148.5 31t-85.5 103h-8l-78 -562h-288zM467 354q0 -166 166 -166q80 0 138 42t87 114t41 143.5t12 149.5q0 193 -184 192 q-197 0 -223 -182l-33 -225q-4 -25 -4 -68z" />
<glyph unicode="q" horiz-adv-x="1208" d="M150 397q0 115 28.5 225.5t87 209t161.5 159t237 60.5q217 0 274 -146h8l33 123h244l-164 -1165q-4 -25 -4 -45q0 -30 9 -51q15 -35 66 -62l-204 -192q-88 33 -127 86t-39 139q0 39 6 82l41 291h-8q-98 -133 -283 -134q-190 0 -278 117t-88 303zM440 403q0 -215 183 -215 q109 0 162 59.5t67 174.5l33 225q3 21 3 40q0 142 -179 142q-269 0 -269 -426z" />
<glyph unicode="r" horiz-adv-x="827" d="M129 0l143 1028h246l6 -137h8q57 82 128 120t188 38h72l-35 -254h-68q-72 0 -118 -6.5t-92 -27t-71.5 -63.5t-35.5 -110l-82 -588h-289z" />
<glyph unicode="s" horiz-adv-x="1007" d="M68 102l127 197q184 -111 340 -111q172 0 172 111q0 41 -53.5 67.5t-130.5 46t-152.5 48t-129 92t-53.5 158.5q0 176 133.5 258t327.5 82q221 0 385 -88l-104 -205q-129 78 -279 78q-190 0 -190 -95q0 -39 54 -63.5t130 -43t152.5 -46t131 -90t54.5 -156.5 q0 -195 -130 -280t-337 -85q-253 0 -448 125z" />
<glyph unicode="t" horiz-adv-x="800" d="M141 797l33 231h170l39 272h285l-39 -272h237l-32 -231h-238l-64 -461q-7 -27 -6 -47q0 -17 4 -28q10 -26 44 -34t126 -8q29 0 54 2l-33 -225q-109 -14 -180 -14q-172 0 -242 47t-70 164q0 53 9 104l71 500h-168z" />
<glyph unicode="u" horiz-adv-x="1196" d="M174 266q0 59 8 119l90 643h289l-78 -549q-12 -94 -12 -123q0 -70 33 -104.5t114 -34.5q111 0 158 50t62 157l84 604h288l-143 -1028h-252v119h-8q-117 -143 -315 -144q-158 0 -238 64.5t-80 226.5z" />
<glyph unicode="v" horiz-adv-x="1112" d="M166 1028h307l121 -762h10l332 762h297l-512 -1028h-328z" />
<glyph unicode="w" horiz-adv-x="1630" d="M176 1028h301l62 -721h8l297 721h225l100 -723h9l272 723h291l-457 -1028h-274l-111 610h-8l-270 -610h-281z" />
<glyph unicode="x" horiz-adv-x="1110" d="M12 0l443 541l-256 487h325l138 -315h8l229 315h301l-395 -481l293 -547h-334l-160 356h-8l-252 -356h-332z" />
<glyph unicode="y" horiz-adv-x="1124" d="M16 -453l35 240q27 -6 113 -6q78 0 112.5 24.5t75.5 98.5l66 119l-260 1005h313l133 -713h8l332 713h309l-573 -1071q-98 -182 -160.5 -264t-141.5 -119t-208 -37q-45 0 -154 10z" />
<glyph unicode="z" horiz-adv-x="987" d="M70 0l26 195l561 602h-471l33 231h823l-28 -207l-553 -592h487l-30 -229h-848z" />
<glyph unicode="{" horiz-adv-x="845" d="M215 563l27 193q68 12 96.5 55t38.5 119l55 393q23 162 101.5 224.5t242.5 62.5h154l-25 -172h-71q-94 0 -118 -33t-38 -139l-53 -385q-10 -76 -45 -121t-113 -101q63 -53 84.5 -98t11.5 -123l-51 -352q-8 -49 -8 -90q0 -45 24.5 -63.5t92.5 -18.5h71l-24 -170h-152 q-143 0 -206.5 44t-63.5 157q0 39 6 86l49 358q6 33 6 62q0 94 -92 112z" />
<glyph unicode="|" horiz-adv-x="587" d="M119 -410l270 1926h211l-270 -1926h-211z" />
<glyph unicode="}" horiz-adv-x="845" d="M104 -256l25 170h74q90 0 114.5 31.5t38.5 140.5l52 352q10 78 42.5 124t110.5 97q-61 53 -81.5 98.5t-10.5 123.5l53 385q10 66 10 94q0 43 -24.5 60.5t-91.5 17.5h-74l25 172h153q141 0 204.5 -45t63.5 -160q0 -37 -6 -82l-55 -393q-23 -152 86 -174l-27 -193 q-70 -14 -97 -56t-38 -118l-49 -358q-23 -162 -101.5 -224.5t-242.5 -62.5h-154z" />
<glyph unicode="~" horiz-adv-x="978" d="M166 1165q72 100 135.5 140.5t159.5 40.5q74 0 193.5 -45.5t174.5 -45.5q88 0 146 88l168 -67q-100 -182 -301 -182q-76 0 -194 44t-175 44q-92 0 -151 -90z" />
<glyph unicode="&#xa1;" horiz-adv-x="612" d="M131 -336q20 111 57 307.5t67 360.5t54 307h238q-2 -10 -98 -975h-318zM274 887q0 76 67 122t144 46q68 0 120 -34t52 -97q0 -74 -66.5 -119t-144.5 -45q-66 0 -119 33t-53 94z" />
<glyph unicode="&#xa2;" d="M242 584q0 236 122.5 409.5t346.5 214.5l22 158h268l-22 -158q133 -23 260 -129l-154 -192q-104 111 -245 110q-158 0 -230.5 -110.5t-72.5 -276.5q0 -240 213 -239q150 0 297 127l100 -172q-152 -131 -313 -164l-23 -162h-268l20 160q-160 31 -240.5 144.5t-80.5 279.5z " />
<glyph unicode="&#xa3;" d="M113 0l30 223h58q74 0 121 34t67.5 98.5t26.5 122t6 140.5h-203l31 224h176q-8 102 -8 141q0 406 473 406q223 0 397 -91l-88 -247q-141 96 -291 96q-117 0 -165 -48t-48 -165q0 -18 4 -92h324l-31 -224h-282q4 -70 4 -96q0 -182 -88 -272l-2 -6h551l-33 -244h-1030z" />
<glyph unicode="&#xa4;" d="M125 305l184 162q-39 78 -39 172q0 152 107 293l-139 164l168 147l143 -168q115 59 231.5 59.5t218.5 -63.5l197 172l127 -147l-193 -170q39 -76 39 -166q0 -154 -100 -289l141 -166l-168 -149l-143 168q-119 -66 -242 -66q-115 0 -217 64l-188 -164zM516 672 q0 -76 51 -126t127 -50q92 0 162 69.5t70 161.5q0 76 -50.5 126t-125.5 50q-92 0 -163 -69.5t-71 -161.5z" />
<glyph unicode="&#xa5;" d="M123 242l24 180h402l16 108l-51 105h-336l25 180h221l-205 551h344l189 -578l344 578h321l-354 -551h221l-24 -180h-332l-68 -90l-18 -123h387l-25 -180h-387l-33 -242h-292l32 242h-401z" />
<glyph unicode="&#xa6;" horiz-adv-x="587" d="M119 -410l108 779h211l-108 -779h-211zM276 737l111 779h211l-111 -779h-211z" />
<glyph unicode="&#xa7;" horiz-adv-x="1015" d="M35 -47l127 201q182 -117 325 -117q150 0 150 100q0 43 -79 82t-174 68.5t-174 96.5t-79 159q0 125 84 193.5t215 84.5v8q-213 63 -213 230q0 164 141.5 247t317.5 83q219 0 389 -84l-111 -220q-139 88 -282 89q-160 0 -160 -89q0 -43 79 -78.5t173 -61t173 -89 t79 -158.5q0 -123 -77 -194.5t-206 -91.5l-2 -6q90 -23 146.5 -82.5t56.5 -149.5q0 -92 -43 -161.5t-113.5 -108.5t-150.5 -57.5t-166 -18.5q-240 0 -426 125zM389 584q0 -94 166 -95q195 0 195 125q0 88 -164 88q-197 1 -197 -118z" />
<glyph unicode="&#xa8;" horiz-adv-x="712" d="M168 1288q0 63 50 112.5t114 49.5q51 0 87 -35t36 -86q0 -66 -49.5 -115t-114.5 -49q-53 0 -88 35t-35 88zM623 1290q0 63 51 111.5t114 48.5q51 0 87 -35t36 -86q0 -66 -49 -115t-114 -49q-53 0 -89 36t-36 89z" />
<glyph unicode="&#xa9;" horiz-adv-x="1628" d="M106 684q0 293 208 500t501 207t500 -207t207 -500t-207 -500t-500 -207t-501 207t-208 500zM203 686q0 -252 180 -431t432 -179q254 0 434.5 179t180.5 431q0 254 -179.5 434t-435.5 180q-254 0 -433 -180t-179 -434zM414 690q0 201 111.5 317.5t312.5 116.5 q188 0 331 -143l-114 -125q-92 109 -209 109q-238 0 -238 -275q0 -285 236 -284q121 0 227 106l100 -129q-150 -139 -329 -139q-217 0 -322.5 123.5t-105.5 322.5z" />
<glyph unicode="&#xaa;" horiz-adv-x="849" d="M238 913q0 262 419 263q0 2 3.5 20t3.5 27q0 47 -76 47q-121 0 -244 -62l-39 123q158 74 311 74q111 0 165.5 -36t54.5 -138q0 -55 -17.5 -164t-17.5 -139q0 -29 47 -60l-127 -108q-74 14 -88 71h-8q-106 -72 -209 -71q-80 0 -129 37.5t-49 115.5zM414 942q0 -68 69 -68 q57 0 140 52l20 147q-229 0 -229 -131z" />
<glyph unicode="&#xab;" horiz-adv-x="1021" d="M115 614l327 437l181 -97l-265 -342l172 -340l-208 -98zM586 614l311 414l180 -96l-248 -320l160 -317l-209 -96z" />
<glyph unicode="&#xac;" d="M152 432l34 242h1071l-86 -604h-239l51 362h-831z" />
<glyph unicode="&#xad;" horiz-adv-x="784" d="M154 399l36 271h588l-37 -271h-587z" />
<glyph unicode="&#xae;" horiz-adv-x="923" d="M250 1087.5q0 143.5 104.5 245t249.5 101.5q147 0 252 -101.5t105 -245t-104.5 -245t-252.5 -101.5q-145 0 -249.5 101.5t-104.5 245zM301 1089.5q0 -122.5 89 -209.5t216 -87q125 0 215 87t90 210q0 121 -90 208.5t-215 87.5q-127 0 -216 -87t-89 -209.5zM459 899v385 q49 4 145 4q170 0 170 -125q0 -68 -59 -100l69 -164h-110l-51 131q-6 8 -13 8h-51v-139h-100zM557 1110h55q61 0 62 49q0 53 -70 53q-10 0 -27.5 -1t-19.5 -1v-100z" />
<glyph unicode="&#xaf;" horiz-adv-x="712" d="M193 1202l24 178h662l-25 -178h-661z" />
<glyph unicode="&#xb0;" horiz-adv-x="845" d="M254 1051q0 162 102.5 255t257.5 93q125 0 203 -73t78 -198q0 -152 -102.5 -251t-255.5 -99q-125 0 -204 76t-79 197zM354 1059q0 -92 49.5 -143.5t141.5 -51.5q111 0 181.5 71t70.5 187q0 90 -50.5 140.5t-138.5 50.5q-115 0 -184.5 -69.5t-69.5 -184.5z" />
<glyph unicode="&#xb1;" d="M92 0l31 229h1071l-31 -229h-1071zM184 662l33 239h414l53 375h248l-53 -375h409l-33 -239h-409l-47 -340h-248l47 340h-414z" />
<glyph unicode="&#xb2;" horiz-adv-x="667" d="M176 899q55 37 129 82t114 69.5t80 55.5t57 57.5t17 57.5q0 59 -69 59q-92 0 -176 -78l-86 115q152 117 303 117q106 0 162.5 -44t56.5 -124q0 -66 -31 -122.5t-98.5 -105.5t-109.5 -72.5t-130 -68.5h328l-21 -147h-520z" />
<glyph unicode="&#xb3;" horiz-adv-x="653" d="M156 827l94 123q80 -72 170 -71q47 0 85 23.5t38 70.5q0 55 -82 55h-109l17 123h69q49 0 84 21.5t35 60.5q0 57 -72 57q-100 0 -182 -71l-67 120q137 94 290 95q213 0 213 -162q0 -104 -104 -160v-8q84 -25 84 -125q0 -123 -85 -181.5t-218 -58.5q-158 0 -260 88z" />
<glyph unicode="&#xb4;" horiz-adv-x="712" d="M268 1249l324 271l270 -121l-434 -242z" />
<glyph unicode="&#xb5;" horiz-adv-x="1236" d="M78 -451l207 1479h290l-75 -539q-14 -92 -15 -139q0 -68 32 -100.5t114 -32.5q111 0 157 50t60 157l84 604h291l-144 -1028h-250l-4 119h-10q-63 -78 -116.5 -111t-151.5 -33q-117 0 -146 68l-67 -494h-256z" />
<glyph unicode="&#xb6;" horiz-adv-x="1097" d="M147 434q0 276 197 435t481 159h262l-143 -1028h-262q-229 0 -382 107.5t-153 326.5z" />
<glyph unicode="&#xb7;" horiz-adv-x="530" d="M139 477q0 74 66.5 119t144.5 45q66 0 119 -34t53 -97q0 -72 -68.5 -117t-144.5 -45q-66 0 -118 33t-52 96z" />
<glyph unicode="&#xb8;" horiz-adv-x="712" d="M113 -385l47 98q74 -39 129 -39q106 0 106 80q0 57 -78 58q-51 0 -86 -17l-51 29l113 176h131l-76 -109q37 12 70 13q55 0 91 -33t36 -92q0 -104 -69.5 -159.5t-176.5 -55.5q-98 0 -186 51z" />
<glyph unicode="&#xb9;" horiz-adv-x="616" d="M166 752l20 145h166l47 336h-8l-139 -59l-37 135l252 112h145l-73 -524h157l-20 -145h-510z" />
<glyph unicode="&#xba;" horiz-adv-x="849" d="M254 1016q0 174 97.5 281.5t269.5 107.5q131 0 204.5 -63.5t73.5 -192.5q0 -174 -98.5 -281.5t-270.5 -107.5q-129 0 -202.5 64.5t-73.5 191.5zM432 1020q0 -121 119 -121q168 0 168 242q0 63 -28.5 91t-90.5 28q-168 0 -168 -240z" />
<glyph unicode="&#xbb;" horiz-adv-x="1021" d="M113 295l252 317l-164 320l209 96l198 -414l-315 -415zM565 272l269 340l-175 344l211 97l209 -439l-334 -440z" />
<glyph unicode="&#xbc;" horiz-adv-x="1634" d="M242 752l20 145h166l47 336h-8l-139 -59l-37 135l252 112h145l-74 -524h158l-20 -145h-510zM283 0l1265 1434h156l-1266 -1434h-155zM1004 258l378 412h183l-56 -396h105l-21 -147h-104l-16 -127h-185l17 127h-279zM1165 260h166l35 240z" />
<glyph unicode="&#xbd;" horiz-adv-x="1579" d="M217 0l1266 1434h155l-1265 -1434h-156zM238 752l20 145h166l47 336h-8l-139 -59l-37 135l252 112h145l-74 -524h158l-20 -145h-510zM987 147q55 37 129 82t114 70t80 55.5t57 57t17 57.5q0 59 -69 59q-92 0 -176 -77l-86 114q152 117 303 117q106 0 162.5 -44t56.5 -124 q0 -66 -31 -122t-98.5 -105t-109.5 -73t-130 -69h328l-21 -147h-520z" />
<glyph unicode="&#xbe;" horiz-adv-x="1540" d="M233 827l95 123q80 -72 170 -71q47 0 85 23.5t38 70.5q0 55 -82 55h-109l16 123h70q49 0 84 21.5t35 60.5q0 57 -72 57q-100 0 -182 -71l-68 120q137 94 291 95q213 0 213 -162q0 -104 -104 -160v-8q84 -25 84 -125q0 -123 -85 -181.5t-218 -58.5q-159 0 -261 88zM246 0 l1265 1434h156l-1266 -1434h-155zM928 258l379 412h182l-55 -396h104l-20 -147h-105l-16 -127h-185l17 127h-279zM1090 260h165l35 240z" />
<glyph unicode="&#xbf;" horiz-adv-x="1116" d="M168 -33q0 184 94 279.5t295 179.5q49 20 62.5 39.5t23.5 83.5l12 82h279l-21 -146q-14 -92 -45.5 -132t-119.5 -79q-12 -6 -73 -30.5t-85.5 -37.5t-64.5 -42t-56 -65t-16 -81q0 -74 57 -105.5t137 -31.5q178 0 324 117l108 -207q-129 -80 -244.5 -115.5t-261.5 -35.5 q-178 0 -291.5 78.5t-113.5 248.5zM649 889q0 74 66.5 120t144.5 46q66 0 118 -33t52 -96q0 -74 -66.5 -119t-142.5 -45q-66 0 -119 33t-53 94z" />
<glyph unicode="&#xc0;" horiz-adv-x="1435" d="M25 0l718 1372h320l348 -1372h-319l-70 287h-539l-149 -287h-309zM541 1686l307 118l246 -268l-185 -92zM588 528h393l-119 547h-8z" />
<glyph unicode="&#xc1;" horiz-adv-x="1435" d="M25 0l718 1372h320l348 -1372h-319l-70 287h-539l-149 -287h-309zM588 528h393l-119 547h-8zM750 1536l323 270l270 -120l-434 -242z" />
<glyph unicode="&#xc2;" horiz-adv-x="1435" d="M25 0l718 1372h320l348 -1372h-319l-70 287h-539l-149 -287h-309zM555 1597l399 201l349 -201l-140 -161l-233 151l-283 -151zM588 528h393l-119 547h-8z" />
<glyph unicode="&#xc3;" horiz-adv-x="1435" d="M25 0l718 1372h320l348 -1372h-319l-70 287h-539l-149 -287h-309zM541 1554q102 178 256 179q61 0 146 -45.5t124 -45.5q84 0 133 91l123 -105q-41 -86 -112.5 -133t-145.5 -47q-66 0 -150 44t-118 44q-88 0 -138 -90zM588 528h393l-119 547h-8z" />
<glyph unicode="&#xc4;" horiz-adv-x="1435" d="M25 0l718 1372h320l348 -1372h-319l-70 287h-539l-149 -287h-309zM559 1575q0 63 50 112.5t114 49.5q51 0 87 -35t36 -86q0 -66 -49 -115t-115 -49q-53 0 -88 35t-35 88zM588 528h393l-119 547h-8zM1014 1577q0 63 51 111.5t115 48.5q51 0 87 -35t36 -86 q0 -66 -49.5 -115t-114.5 -49q-53 0 -89 36t-36 89z" />
<glyph unicode="&#xc5;" horiz-adv-x="1433" d="M25 0l657 1255q-76 63 -76 185q0 139 98.5 228t237.5 89q117 0 199 -65.5t82 -182.5q0 -154 -131 -252l319 -1257h-319l-70 287h-539l-149 -287h-309zM588 528h393l-119 549h-8zM776 1450q0 -53 35 -86t90 -33q68 0 109 46t41 118q0 53 -34 84t-87 31q-70 0 -112 -44 t-42 -116z" />
<glyph unicode="&#xc6;" horiz-adv-x="1923" d="M29 0l889 1366h1099l-32 -244h-605l-41 -291h545l-37 -251h-544l-48 -336h625l-33 -244h-917l43 309h-451l-184 -309h-309zM672 559h336l77 561h-47z" />
<glyph unicode="&#xc7;" horiz-adv-x="1361" d="M199 535q0 367 207.5 610.5t568.5 243.5q299 0 489 -228l-209 -190q-123 166 -303 166q-119 0 -207 -49.5t-137 -132.5t-72.5 -182t-23.5 -212q0 -336 309 -336q186 0 383 170l133 -198q-252 -209 -524 -220l-63 -90q37 12 69 13q55 0 91 -33t36 -92q0 -104 -69.5 -159.5 t-176.5 -55.5q-98 0 -186 51l47 98q74 -39 129 -39q106 0 107 80q0 57 -78 57q-51 0 -86 -16l-51 29l102 162q-233 23 -359 162t-126 391z" />
<glyph unicode="&#xc8;" horiz-adv-x="1177" d="M150 0l190 1366h932l-35 -250h-633l-41 -289h574l-35 -254h-574l-47 -329h654l-33 -244h-952zM512 1686l307 118l246 -268l-184 -92z" />
<glyph unicode="&#xc9;" horiz-adv-x="1177" d="M150 0l190 1366h932l-35 -250h-633l-41 -289h574l-35 -254h-574l-47 -329h654l-33 -244h-952zM649 1536l324 270l270 -120l-434 -242z" />
<glyph unicode="&#xca;" horiz-adv-x="1177" d="M150 0l190 1366h932l-35 -250h-633l-41 -289h574l-35 -254h-574l-47 -329h654l-33 -244h-952zM461 1597l399 201l348 -201l-139 -161l-233 151l-283 -151z" />
<glyph unicode="&#xcb;" horiz-adv-x="1177" d="M150 0l190 1366h932l-35 -250h-633l-41 -289h574l-35 -254h-574l-47 -329h654l-33 -244h-952zM465 1575q0 63 50 112.5t114 49.5q51 0 87 -35t36 -86q0 -66 -49.5 -115t-114.5 -49q-53 0 -88 35t-35 88zM920 1577q0 63 51 111.5t114 48.5q51 0 87 -35t36 -86 q0 -66 -49 -115t-115 -49q-53 0 -88.5 36t-35.5 89z" />
<glyph unicode="&#xcc;" horiz-adv-x="598" d="M131 1686l307 118l246 -268l-184 -92zM150 0l190 1366h299l-190 -1366h-299z" />
<glyph unicode="&#xcd;" horiz-adv-x="598" d="M150 0l190 1366h299l-190 -1366h-299zM348 1536l324 270l270 -120l-434 -242z" />
<glyph unicode="&#xce;" horiz-adv-x="598" d="M150 0l190 1366h299l-190 -1366h-299zM162 1597l399 201l348 -201l-139 -161l-233 151l-283 -151z" />
<glyph unicode="&#xcf;" horiz-adv-x="598" d="M150 0l190 1366h299l-190 -1366h-299zM154 1575q0 63 50 112.5t113 49.5q51 0 87 -35t36 -86q0 -66 -49 -115t-115 -49q-53 0 -87.5 35t-34.5 88zM608 1577q0 63 51.5 111.5t114.5 48.5q51 0 87 -35t36 -86q0 -66 -49 -115t-115 -49q-53 0 -89 36t-36 89z" />
<glyph unicode="&#xd0;" horiz-adv-x="1441" d="M92 592l35 244h143l74 520q270 25 473 24q285 0 451 -135t166 -411q0 -395 -221.5 -614.5t-614.5 -219.5h-444l82 592h-144zM481 240q49 -2 148 -2q238 0 347 109.5t142 348.5q10 68 10 123q0 328 -333 328q-104 0 -187 -8l-43 -303h316l-35 -244h-316z" />
<glyph unicode="&#xd1;" horiz-adv-x="1497" d="M150 0l190 1366h276l502 -856h10l121 856h289l-190 -1366h-258l-521 870h-8l-121 -870h-290zM578 1554q102 178 256 179q61 0 146 -45.5t124 -45.5q84 0 133 91l123 -105q-41 -86 -112.5 -133t-145.5 -47q-66 0 -150 44t-118 44q-88 0 -138 -90z" />
<glyph unicode="&#xd2;" horiz-adv-x="1581" d="M197 530q0 381 207.5 620t580.5 239q276 0 432 -136.5t156 -410.5q0 -383 -206 -622.5t-581 -239.5q-279 0 -434 138t-155 412zM508 539q0 -162 75.5 -240t237.5 -78q209 0 302.5 119t125.5 344q12 74 13 150q0 160 -76 236.5t-236 76.5q-209 0 -303 -119t-127 -344 q-12 -73 -12 -145zM700 1694l308 118l245 -268l-184 -92z" />
<glyph unicode="&#xd3;" horiz-adv-x="1581" d="M197 530q0 381 207.5 620t580.5 239q276 0 432 -136.5t156 -410.5q0 -383 -206 -622.5t-581 -239.5q-279 0 -434 138t-155 412zM508 539q0 -162 75.5 -240t237.5 -78q209 0 302.5 119t125.5 344q12 74 13 150q0 160 -76 236.5t-236 76.5q-209 0 -303 -119t-127 -344 q-12 -73 -12 -145zM834 1544l323 271l270 -121l-434 -242z" />
<glyph unicode="&#xd4;" horiz-adv-x="1581" d="M197 530q0 381 207.5 620t580.5 239q276 0 432 -136.5t156 -410.5q0 -383 -206 -622.5t-581 -239.5q-279 0 -434 138t-155 412zM508 539q0 -162 75.5 -240t237.5 -78q209 0 302.5 119t125.5 344q12 74 13 150q0 160 -76 236.5t-236 76.5q-209 0 -303 -119t-127 -344 q-12 -73 -12 -145zM651 1597l400 201l348 -201l-139 -161l-234 151l-283 -151z" />
<glyph unicode="&#xd5;" horiz-adv-x="1581" d="M197 530q0 381 207.5 620t580.5 239q276 0 432 -136.5t156 -410.5q0 -383 -206 -622.5t-581 -239.5q-279 0 -434 138t-155 412zM508 539q0 -162 75.5 -240t237.5 -78q209 0 302.5 119t125.5 344q12 74 13 150q0 160 -76 236.5t-236 76.5q-209 0 -303 -119t-127 -344 q-12 -73 -12 -145zM612 1563q102 178 256 178q61 0 146.5 -45t124.5 -45q84 0 133 90l123 -105q-41 -86 -113 -133t-145 -47q-68 0 -150 44t-119 44q-88 0 -137 -90z" />
<glyph unicode="&#xd6;" horiz-adv-x="1581" d="M197 530q0 381 207.5 620t580.5 239q276 0 432 -136.5t156 -410.5q0 -383 -206 -622.5t-581 -239.5q-279 0 -434 138t-155 412zM508 539q0 -162 75.5 -240t237.5 -78q209 0 302.5 119t125.5 344q12 74 13 150q0 160 -76 236.5t-236 76.5q-209 0 -303 -119t-127 -344 q-12 -73 -12 -145zM645 1575q0 63 50 112.5t114 49.5q51 0 87 -35t36 -86q0 -66 -49 -115t-115 -49q-53 0 -88 35t-35 88zM1100 1577q0 63 51 111.5t115 48.5q51 0 87 -35t36 -86q0 -66 -49.5 -115t-114.5 -49q-53 0 -89 36t-36 89z" />
<glyph unicode="&#xd7;" d="M152 217l383 334l-285 330l194 170l285 -332l379 332l143 -170l-379 -330l287 -334l-190 -170l-287 334l-383 -334z" />
<glyph unicode="&#xd8;" horiz-adv-x="1581" d="M131 121l127 119q-61 117 -61 290q0 381 207.5 620t580.5 239q252 0 401 -113l148 137l143 -160l-155 -145q51 -115 51 -266q0 -383 -206 -622.5t-581 -239.5q-242 0 -385 98l-141 -131zM508 539q0 -47 2 -68l664 610q-78 66 -224 66q-209 0 -303 -119t-127 -344 q-12 -73 -12 -145zM614 272q72 -51 207 -51q209 0 302.5 119t125.5 344q12 74 13 150q0 23 -2 34z" />
<glyph unicode="&#xd9;" horiz-adv-x="1435" d="M215 403q0 82 10 146l115 817h299l-109 -772q-12 -80 -12 -150q0 -106 50 -160.5t180 -54.5q90 0 150 26t94 81t49.5 111.5t27.5 146.5l109 772h299l-115 -817q-41 -285 -193.5 -428.5t-455.5 -143.5q-262 0 -380 107.5t-118 318.5zM547 1686l307 118l246 -268l-185 -92z " />
<glyph unicode="&#xda;" horiz-adv-x="1435" d="M215 403q0 82 10 146l115 817h299l-109 -772q-12 -80 -12 -150q0 -106 50 -160.5t180 -54.5q90 0 150 26t94 81t49.5 111.5t27.5 146.5l109 772h299l-115 -817q-41 -285 -193.5 -428.5t-455.5 -143.5q-262 0 -380 107.5t-118 318.5zM756 1536l323 270l271 -120l-435 -242 z" />
<glyph unicode="&#xdb;" horiz-adv-x="1435" d="M215 403q0 82 10 146l115 817h299l-109 -772q-12 -80 -12 -150q0 -106 50 -160.5t180 -54.5q90 0 150 26t94 81t49.5 111.5t27.5 146.5l109 772h299l-115 -817q-41 -285 -193.5 -428.5t-455.5 -143.5q-262 0 -380 107.5t-118 318.5zM567 1597l400 201l348 -201l-139 -161 l-234 151l-283 -151z" />
<glyph unicode="&#xdc;" horiz-adv-x="1435" d="M215 403q0 82 10 146l115 817h299l-109 -772q-12 -80 -12 -150q0 -106 50 -160.5t180 -54.5q90 0 150 26t94 81t49.5 111.5t27.5 146.5l109 772h299l-115 -817q-41 -285 -193.5 -428.5t-455.5 -143.5q-262 0 -380 107.5t-118 318.5zM567 1575q0 63 50.5 112.5t113.5 49.5 q51 0 87 -35t36 -86q0 -66 -49 -115t-115 -49q-53 0 -88 35t-35 88zM1022 1577q0 63 51 111.5t115 48.5q51 0 87 -35t36 -86q0 -66 -49.5 -115t-114.5 -49q-53 0 -89 36t-36 89z" />
<glyph unicode="&#xdd;" horiz-adv-x="1323" d="M195 1366h344l237 -567l404 567h329l-622 -829l-74 -537h-299l74 530zM748 1503l323 271l270 -121l-434 -242z" />
<glyph unicode="&#xde;" horiz-adv-x="1294" d="M150 0l190 1366h291l-33 -240q102 6 190 7q522 0 523 -363q0 -242 -148.5 -387t-402.5 -145h-285l-33 -238h-292zM508 471h233q135 0 204 61.5t69 202.5q0 88 -60.5 124t-195.5 36q-88 0 -193 -8z" />
<glyph unicode="&#xdf;" horiz-adv-x="1206" d="M129 0l150 1073q29 207 150.5 289t342.5 82q166 0 272.5 -70.5t106.5 -222.5q0 -213 -217 -358v-9q113 -51 184.5 -151.5t71.5 -222.5q0 -207 -138.5 -322t-340.5 -115q-96 0 -199 29l66 201q57 -14 104 -15q98 0 155.5 60.5t57.5 161.5q0 170 -250 225l-8 170 q51 33 87 60.5t79 68.5t65.5 89t22.5 99q0 119 -143 119q-86 0 -130.5 -42t-56.5 -130l-149 -1069h-283z" />
<glyph unicode="&#xe0;" horiz-adv-x="1208" d="M150 397q0 90 17 179.5t57 175.5t97.5 151.5t145.5 106.5t196.5 41t169 -32t97.5 -106h8l33 115h252l-144 -1028h-237v137h-8q-109 -160 -322 -160q-188 0 -275 116t-87 304zM373 1399l307 119l246 -269l-185 -92zM442 401q0 -213 181 -213q109 0 162 60.5t67 173.5 l33 225q27 182 -176 182q-267 0 -267 -428z" />
<glyph unicode="&#xe1;" horiz-adv-x="1208" d="M150 397q0 90 17 179.5t57 175.5t97.5 151.5t145.5 106.5t196.5 41t169 -32t97.5 -106h8l33 115h252l-144 -1028h-237v137h-8q-109 -160 -322 -160q-188 0 -275 116t-87 304zM442 401q0 -213 181 -213q109 0 162 60.5t67 173.5l33 225q27 182 -176 182q-267 0 -267 -428z M545 1249l323 271l271 -121l-434 -242z" />
<glyph unicode="&#xe2;" horiz-adv-x="1208" d="M150 397q0 90 17 179.5t57 175.5t97.5 151.5t145.5 106.5t196.5 41t169 -32t97.5 -106h8l33 115h252l-144 -1028h-237v137h-8q-109 -160 -322 -160q-188 0 -275 116t-87 304zM373 1307l399 200l348 -200l-139 -162l-233 151l-283 -151zM442 401q0 -213 181 -213 q109 0 162 60.5t67 173.5l33 225q27 182 -176 182q-267 0 -267 -428z" />
<glyph unicode="&#xe3;" horiz-adv-x="1208" d="M150 397q0 90 17 179.5t57 175.5t97.5 151.5t145.5 106.5t196.5 41t169 -32t97.5 -106h8l33 115h252l-144 -1028h-237v137h-8q-109 -160 -322 -160q-188 0 -275 116t-87 304zM342 1268q102 178 256 178q61 0 146 -45t124 -45q84 0 133 90l123 -105q-41 -86 -112.5 -133 t-145.5 -47q-68 0 -149.5 44t-118.5 44q-88 0 -137 -90zM442 401q0 -213 181 -213q109 0 162 60.5t67 173.5l33 225q27 182 -176 182q-267 0 -267 -428z" />
<glyph unicode="&#xe4;" horiz-adv-x="1208" d="M150 397q0 90 17 179.5t57 175.5t97.5 151.5t145.5 106.5t196.5 41t169 -32t97.5 -106h8l33 115h252l-144 -1028h-237v137h-8q-109 -160 -322 -160q-188 0 -275 116t-87 304zM371 1288q0 63 50 112.5t114 49.5q51 0 86.5 -35t35.5 -86q0 -66 -49 -115t-114 -49 q-53 0 -88 35t-35 88zM442 401q0 -213 181 -213q109 0 162 60.5t67 173.5l33 225q27 182 -176 182q-267 0 -267 -428zM825 1290q0 63 51.5 111.5t114.5 48.5q51 0 87 -35t36 -86q0 -66 -49 -115t-115 -49q-53 0 -89 36t-36 89z" />
<glyph unicode="&#xe5;" horiz-adv-x="1208" d="M150 397q0 90 17 179.5t57 175.5t97.5 151.5t145.5 106.5t196.5 41t169 -32t97.5 -106h8l33 115h252l-144 -1028h-237v137h-8q-109 -160 -322 -160q-188 0 -275 116t-87 304zM442 401q0 -213 181 -213q109 0 162 60.5t67 173.5l33 225q27 182 -176 182q-267 0 -267 -428z M526 1335q0 102 74 172t178 70q88 0 148.5 -48t60.5 -132q0 -104 -73.5 -174t-180.5 -70q-86 0 -146.5 49t-60.5 133zM651 1348q0 -41 27 -66t74 -25q51 0 80.5 37t29.5 90q0 86 -96 86q-49 0 -82 -35.5t-33 -86.5z" />
<glyph unicode="&#xe6;" horiz-adv-x="1824" d="M109 233q0 428 700 429q8 57 8 86q0 37 -22.5 56t-47 23t-65.5 4q-190 0 -389 -104l-66 201q262 123 510 123q229 0 303 -115q143 117 349 117q203 0 316.5 -119t113.5 -324q0 -86 -25 -194h-727l-2 -27q0 -100 65.5 -145t169.5 -45q162 0 318 84l68 -195 q-209 -111 -426 -111q-250 0 -377 144q-68 -59 -199 -103.5t-256 -44.5q-141 0 -230 62.5t-89 197.5zM393 281q0 -55 35 -89t90 -34q154 0 281 108q-20 53 -21 123q0 63 10 107q-57 0 -100 -3.5t-102.5 -15.5t-98 -33.5t-66.5 -63.5t-28 -99zM1092 604h471q0 238 -201 238 q-111 0 -182.5 -63.5t-87.5 -174.5z" />
<glyph unicode="&#xe7;" horiz-adv-x="1062" d="M147 401q0 283 172.5 466.5t452.5 183.5q213 0 373 -148l-150 -186q-90 111 -245 110q-154 0 -230 -115.5t-76 -275.5q0 -238 218 -237q164 0 303 102l65 -190q-195 -127 -387 -136l-65 -94q37 12 69 13q55 0 91 -33t36 -92q0 -104 -69.5 -159.5t-176.5 -55.5 q-98 0 -186 51l47 98q74 -39 129 -39q106 0 107 80q0 57 -78 57q-51 0 -86 -16l-51 29l106 168q-172 23 -270.5 129t-98.5 290z" />
<glyph unicode="&#xe8;" horiz-adv-x="1173" d="M150 406q0 279 163.5 463t436.5 184q199 0 308 -117t109 -315q0 -100 -24 -199h-715q-4 -29 -4 -45q0 -182 240 -182q150 0 317 86l66 -193q-207 -111 -429 -111q-217 0 -342.5 108t-125.5 321zM420 1399l307 119l246 -269l-185 -92zM457 604h454q4 33 4 53 q0 90 -50 140.5t-140 50.5q-111 0 -181.5 -66.5t-86.5 -177.5z" />
<glyph unicode="&#xe9;" horiz-adv-x="1173" d="M150 406q0 279 163.5 463t436.5 184q199 0 308 -117t109 -315q0 -100 -24 -199h-715q-4 -29 -4 -45q0 -182 240 -182q150 0 317 86l66 -193q-207 -111 -429 -111q-217 0 -342.5 108t-125.5 321zM457 604h454q4 33 4 53q0 90 -50 140.5t-140 50.5q-111 0 -181.5 -66.5 t-86.5 -177.5zM604 1249l324 271l270 -121l-434 -242z" />
<glyph unicode="&#xea;" horiz-adv-x="1173" d="M150 406q0 279 163.5 463t436.5 184q199 0 308 -117t109 -315q0 -100 -24 -199h-715q-4 -29 -4 -45q0 -182 240 -182q150 0 317 86l66 -193q-207 -111 -429 -111q-217 0 -342.5 108t-125.5 321zM412 1311l399 200l348 -200l-139 -162l-234 151l-282 -151zM457 604h454 q4 33 4 53q0 90 -50 140.5t-140 50.5q-111 0 -181.5 -66.5t-86.5 -177.5z" />
<glyph unicode="&#xeb;" horiz-adv-x="1173" d="M150 406q0 279 163.5 463t436.5 184q199 0 308 -117t109 -315q0 -100 -24 -199h-715q-4 -29 -4 -45q0 -182 240 -182q150 0 317 86l66 -193q-207 -111 -429 -111q-217 0 -342.5 108t-125.5 321zM424 1288q0 63 50 112.5t114 49.5q51 0 87 -35t36 -86q0 -66 -49.5 -115 t-114.5 -49q-53 0 -88 35t-35 88zM457 604h454q4 33 4 53q0 90 -50 140.5t-140 50.5q-111 0 -181.5 -66.5t-86.5 -177.5zM879 1290q0 63 51 111.5t114 48.5q51 0 87 -35t36 -86q0 -66 -49 -115t-114 -49q-53 0 -89 36t-36 89z" />
<glyph unicode="&#xec;" horiz-adv-x="546" d="M68 1399l307 119l246 -269l-185 -92zM129 0l143 1028h289l-143 -1028h-289z" />
<glyph unicode="&#xed;" horiz-adv-x="546" d="M129 0l143 1028h289l-143 -1028h-289zM276 1249l324 271l270 -121l-434 -242z" />
<glyph unicode="&#xee;" horiz-adv-x="546" d="M86 1311l399 200l349 -200l-140 -162l-233 151l-283 -151zM129 0l143 1028h289l-143 -1028h-289z" />
<glyph unicode="&#xef;" horiz-adv-x="546" d="M86 1288q0 63 50 112.5t114 49.5q51 0 87 -35t36 -86q0 -66 -49.5 -115t-114.5 -49q-53 0 -88 35t-35 88zM129 0l143 1028h289l-143 -1028h-289zM541 1290q0 63 51 111.5t115 48.5q51 0 86.5 -35t35.5 -86q0 -66 -49 -115t-114 -49q-53 0 -89 36t-36 89z" />
<glyph unicode="&#xf0;" horiz-adv-x="1175" d="M147 393q0 252 133.5 419t376.5 167q178 0 236 -92h10v33q0 117 -49 231l-240 -92l-47 145l219 84q-45 78 -102 127l266 70q37 -35 82 -99l156 68l55 -156l-131 -57q78 -176 78 -455q0 -160 -34 -298t-104.5 -255.5t-195.5 -185t-293 -67.5q-195 0 -305.5 110t-110.5 303 zM434 387q0 -100 43 -146t141 -46q264 0 265 405q0 98 -43 143t-142 45q-264 0 -264 -401z" />
<glyph unicode="&#xf1;" horiz-adv-x="1214" d="M129 0l143 1028h248l4 -123h8q121 145 324 146q172 0 248 -79t76 -233q0 -61 -9 -118l-86 -621h-288l80 575q8 66 8 89q0 72 -34 108.5t-120 36.5q-201 0 -227 -195l-86 -614h-289zM408 1268q102 178 256 178q61 0 146 -45t124 -45q84 0 133 90l123 -105 q-41 -86 -112.5 -133t-145.5 -47q-68 0 -150 44t-118 44q-88 0 -138 -90z" />
<glyph unicode="&#xf2;" horiz-adv-x="1230" d="M150 403q0 289 162.5 468.5t449.5 179.5q215 0 339 -107.5t124 -318.5q0 -289 -165 -468.5t-450 -179.5q-215 0 -337.5 107.5t-122.5 318.5zM434 1399l307 119l246 -269l-184 -92zM442 410q0 -109 47.5 -162t153.5 -53q82 0 141.5 37.5t90 102t44 133.5t13.5 146 q0 211 -201 211q-84 0 -143.5 -36.5t-89 -99t-43 -131t-13.5 -148.5z" />
<glyph unicode="&#xf3;" horiz-adv-x="1230" d="M150 403q0 289 162.5 468.5t449.5 179.5q215 0 339 -107.5t124 -318.5q0 -289 -165 -468.5t-450 -179.5q-215 0 -337.5 107.5t-122.5 318.5zM442 410q0 -109 47.5 -162t153.5 -53q82 0 141.5 37.5t90 102t44 133.5t13.5 146q0 211 -201 211q-84 0 -143.5 -36.5t-89 -99 t-43 -131t-13.5 -148.5zM625 1249l323 271l271 -121l-435 -242z" />
<glyph unicode="&#xf4;" horiz-adv-x="1230" d="M150 403q0 289 162.5 468.5t449.5 179.5q215 0 339 -107.5t124 -318.5q0 -289 -165 -468.5t-450 -179.5q-215 0 -337.5 107.5t-122.5 318.5zM428 1311l399 200l349 -200l-140 -162l-233 151l-283 -151zM442 410q0 -109 47.5 -162t153.5 -53q82 0 141.5 37.5t90 102 t44 133.5t13.5 146q0 211 -201 211q-84 0 -143.5 -36.5t-89 -99t-43 -131t-13.5 -148.5z" />
<glyph unicode="&#xf5;" horiz-adv-x="1230" d="M150 403q0 289 162.5 468.5t449.5 179.5q215 0 339 -107.5t124 -318.5q0 -289 -165 -468.5t-450 -179.5q-215 0 -337.5 107.5t-122.5 318.5zM410 1268q102 178 256 178q61 0 146 -45t124 -45q84 0 133 90l123 -105q-41 -86 -112.5 -133t-145.5 -47q-66 0 -150 44t-118 44 q-88 0 -138 -90zM442 410q0 -109 47.5 -162t153.5 -53q82 0 141.5 37.5t90 102t44 133.5t13.5 146q0 211 -201 211q-84 0 -143.5 -36.5t-89 -99t-43 -131t-13.5 -148.5z" />
<glyph unicode="&#xf6;" horiz-adv-x="1230" d="M150 403q0 289 162.5 468.5t449.5 179.5q215 0 339 -107.5t124 -318.5q0 -289 -165 -468.5t-450 -179.5q-215 0 -337.5 107.5t-122.5 318.5zM424 1288q0 63 50 112.5t114 49.5q51 0 87 -35t36 -86q0 -66 -49.5 -115t-114.5 -49q-53 0 -88 35t-35 88zM442 410 q0 -109 47.5 -162t153.5 -53q82 0 141.5 37.5t90 102t44 133.5t13.5 146q0 211 -201 211q-84 0 -143.5 -36.5t-89 -99t-43 -131t-13.5 -148.5zM879 1290q0 63 51 111.5t114 48.5q51 0 87 -35t36 -86q0 -66 -49 -115t-114 -49q-53 0 -89 36t-36 89z" />
<glyph unicode="&#xf7;" d="M152 432l34 242h1071l-34 -242h-1071zM475 121q0 76 59.5 133t135.5 57q61 0 103 -41t42 -102q0 -78 -58.5 -136.5t-133.5 -58.5q-63 0 -105.5 42.5t-42.5 105.5zM594 950q0 78 57.5 136.5t134.5 58.5q61 0 104.5 -42t43.5 -104q0 -76 -59.5 -134t-135.5 -58 q-63 0 -104 40t-41 103z" />
<glyph unicode="&#xf8;" horiz-adv-x="1230" d="M74 84l116 111q-43 88 -43 204q0 289 165 470.5t452 181.5q170 0 276 -64l134 117l116 -121l-125 -115q59 -94 60 -241q0 -289 -163 -469.5t-450 -180.5q-197 0 -311 91l-123 -115zM442 428q0 -12 4 -33l400 381q-41 43 -115 43q-154 0 -221.5 -112.5t-67.5 -278.5z M496 264q37 -63 149 -63q106 0 173 63.5t89.5 147.5t22.5 190q0 31 -6 62z" />
<glyph unicode="&#xf9;" horiz-adv-x="1196" d="M174 266q0 59 8 119l90 643h289l-78 -549q-12 -94 -12 -123q0 -70 33 -104.5t114 -34.5q111 0 158 50t62 157l84 604h288l-143 -1028h-252v119h-8q-117 -143 -315 -144q-158 0 -238 64.5t-80 226.5zM395 1399l307 119l246 -269l-184 -92z" />
<glyph unicode="&#xfa;" horiz-adv-x="1196" d="M174 266q0 59 8 119l90 643h289l-78 -549q-12 -94 -12 -123q0 -70 33 -104.5t114 -34.5q111 0 158 50t62 157l84 604h288l-143 -1028h-252v119h-8q-117 -143 -315 -144q-158 0 -238 64.5t-80 226.5zM584 1249l323 271l271 -121l-435 -242z" />
<glyph unicode="&#xfb;" horiz-adv-x="1196" d="M174 266q0 59 8 119l90 643h289l-78 -549q-12 -94 -12 -123q0 -70 33 -104.5t114 -34.5q111 0 158 50t62 157l84 604h288l-143 -1028h-252v119h-8q-117 -143 -315 -144q-158 0 -238 64.5t-80 226.5zM414 1311l399 200l348 -200l-139 -162l-234 151l-282 -151z" />
<glyph unicode="&#xfc;" horiz-adv-x="1196" d="M174 266q0 59 8 119l90 643h289l-78 -549q-12 -94 -12 -123q0 -70 33 -104.5t114 -34.5q111 0 158 50t62 157l84 604h288l-143 -1028h-252v119h-8q-117 -143 -315 -144q-158 0 -238 64.5t-80 226.5zM412 1288q0 63 50 112.5t113 49.5q51 0 87 -35t36 -86q0 -66 -49 -115 t-114 -49q-53 0 -88 35t-35 88zM866 1290q0 63 51.5 111.5t114.5 48.5q51 0 87 -35t36 -86q0 -66 -49 -115t-115 -49q-53 0 -89 36t-36 89z" />
<glyph unicode="&#xfd;" horiz-adv-x="1124" d="M16 -453l35 240q27 -6 113 -6q78 0 112.5 24.5t75.5 98.5l66 119l-260 1005h313l133 -713h8l332 713h309l-573 -1071q-98 -182 -160.5 -264t-141.5 -119t-208 -37q-45 0 -154 10zM565 1249l324 271l270 -121l-434 -242z" />
<glyph unicode="&#xfe;" horiz-adv-x="1208" d="M66 -451l264 1885h268l-72 -512h9q121 129 301 129q182 0 275 -106.5t93 -295.5q0 -164 -56 -312.5t-183 -254t-301 -105.5q-82 0 -132.5 28t-93.5 89h-8l-76 -545h-288zM471 354q0 -84 39 -121.5t125 -37.5q80 0 137 42t86 112.5t41 143t12 150.5q0 98 -42 144.5 t-140 46.5q-102 0 -154.5 -44.5t-66.5 -138.5l-31 -223q-6 -39 -6 -74z" />
<glyph unicode="&#xff;" horiz-adv-x="1124" d="M16 -453l35 240q27 -6 113 -6q78 0 112.5 24.5t75.5 98.5l66 119l-260 1005h313l133 -713h8l332 713h309l-573 -1071q-98 -182 -160.5 -264t-141.5 -119t-208 -37q-45 0 -154 10zM383 1288q0 63 50 112.5t114 49.5q51 0 87 -35t36 -86q0 -66 -49.5 -115t-114.5 -49 q-53 0 -88 35t-35 88zM838 1290q0 63 51 111.5t115 48.5q51 0 86.5 -35t35.5 -86q0 -66 -49 -115t-114 -49q-53 0 -89 36t-36 89z" />
<glyph unicode="&#x152;" horiz-adv-x="1959" d="M197 522q0 137 27.5 263t88 237t148.5 191.5t217 128t285 47.5q131 0 233 -23h858l-35 -250h-559l-41 -289h500l-35 -254h-500l-47 -329h580l-33 -244h-878q-117 -20 -236 -20q-274 0 -423.5 135t-149.5 407zM508 535q0 -156 71.5 -235t237.5 -79q135 0 223 37l119 848 q-78 41 -219 41q-123 0 -211 -51.5t-134 -142.5t-66.5 -193t-20.5 -225z" />
<glyph unicode="&#x153;" horiz-adv-x="1957" d="M150 401q0 291 162.5 470.5t451.5 179.5q254 0 362 -154q162 156 398 156q203 0 315.5 -120t112.5 -323q0 -76 -23 -192h-729l-2 -27q0 -193 238 -192q154 0 315 84l68 -195q-215 -111 -426 -111q-244 0 -367 156q-156 -156 -414 -156q-217 0 -339.5 106.5t-122.5 317.5z M442 412q0 -106 47.5 -158.5t153.5 -52.5q82 0 141.5 36.5t89 99t43 131.5t13.5 148q0 104 -47 153.5t-152 49.5q-289 1 -289 -407zM1227 604h471q0 238 -201 238q-111 0 -182.5 -63.5t-87.5 -174.5z" />
<glyph unicode="&#x178;" horiz-adv-x="1323" d="M195 1366h344l237 -567l404 567h329l-622 -829l-74 -537h-299l74 530zM518 1575q0 63 50 112.5t114 49.5q51 0 87 -35t36 -86q0 -66 -49 -115t-115 -49q-53 0 -88 35t-35 88zM973 1577q0 63 51 111.5t115 48.5q51 0 87 -35t36 -86q0 -66 -49.5 -115t-114.5 -49 q-53 0 -89 36t-36 89z" />
<glyph unicode="&#x2c6;" horiz-adv-x="712" d="M166 1311l399 200l348 -200l-139 -162l-233 151l-283 -151z" />
<glyph unicode="&#x2dc;" horiz-adv-x="712" d="M147 1268q102 178 256 178q61 0 146.5 -45t124.5 -45q84 0 133 90l123 -105q-41 -86 -113 -133t-145 -47q-66 0 -150 44t-119 44q-88 0 -137 -90z" />
<glyph unicode="&#x2000;" horiz-adv-x="907" />
<glyph unicode="&#x2001;" horiz-adv-x="1814" />
<glyph unicode="&#x2002;" horiz-adv-x="907" />
<glyph unicode="&#x2003;" horiz-adv-x="1814" />
<glyph unicode="&#x2004;" horiz-adv-x="604" />
<glyph unicode="&#x2005;" horiz-adv-x="452" />
<glyph unicode="&#x2006;" horiz-adv-x="301" />
<glyph unicode="&#x2007;" horiz-adv-x="301" />
<glyph unicode="&#x2008;" horiz-adv-x="225" />
<glyph unicode="&#x2009;" horiz-adv-x="362" />
<glyph unicode="&#x200a;" horiz-adv-x="100" />
<glyph unicode="&#x2010;" horiz-adv-x="784" d="M154 399l36 271h588l-37 -271h-587z" />
<glyph unicode="&#x2011;" horiz-adv-x="784" d="M154 399l36 271h588l-37 -271h-587z" />
<glyph unicode="&#x2012;" horiz-adv-x="784" d="M154 399l36 271h588l-37 -271h-587z" />
<glyph unicode="&#x2013;" horiz-adv-x="1204" d="M150 426l30 219h1024l-30 -219h-1024z" />
<glyph unicode="&#x2014;" horiz-adv-x="1773" d="M150 430l28 211h1594l-29 -211h-1593z" />
<glyph unicode="&#x2018;" horiz-adv-x="557" d="M158 932l299 502h205l-181 -502h-323z" />
<glyph unicode="&#x2019;" horiz-adv-x="557" d="M225 932l181 502h323l-299 -502h-205z" />
<glyph unicode="&#x201a;" horiz-adv-x="557" d="M43 -365l180 502h324l-299 -502h-205z" />
<glyph unicode="&#x201c;" horiz-adv-x="1056" d="M158 932l299 502h205l-181 -502h-323zM657 932l299 502h205l-180 -502h-324z" />
<glyph unicode="&#x201d;" horiz-adv-x="1056" d="M225 932l181 502h323l-299 -502h-205zM723 932l180 502h326l-301 -502h-205z" />
<glyph unicode="&#x201e;" horiz-adv-x="1056" d="M43 -367l180 504h324l-299 -504h-205zM541 -367l180 504h326l-302 -504h-204z" />
<glyph unicode="&#x2022;" horiz-adv-x="1058" d="M188 673.5q0 141.5 99.5 241t240.5 99.5q143 0 242.5 -99.5t99.5 -241t-99 -240.5t-243 -99q-141 0 -240.5 99t-99.5 240.5z" />
<glyph unicode="&#x2026;" horiz-adv-x="1714" d="M109 98q0 68 62 109t132 41q59 0 107.5 -29t48.5 -86q0 -70 -60.5 -113t-132.5 -43q-61 0 -109 31t-48 90zM696 98q0 68 62.5 109t132.5 41q59 0 107.5 -30t48.5 -85q0 -70 -60.5 -113t-132.5 -43q-61 0 -109.5 31t-48.5 90zM1284 98q0 68 62.5 109t132.5 41 q59 0 107 -29t48 -86q0 -70 -60.5 -113t-131.5 -43q-61 0 -109.5 32t-48.5 89z" />
<glyph unicode="&#x202f;" horiz-adv-x="362" />
<glyph unicode="&#x2039;" horiz-adv-x="552" d="M115 614l313 414l180 -96l-250 -320l162 -317l-209 -96z" />
<glyph unicode="&#x203a;" horiz-adv-x="552" d="M115 295l252 317l-164 320l209 96l198 -414l-315 -415z" />
<glyph unicode="&#x205f;" horiz-adv-x="452" />
<glyph unicode="&#x20ac;" d="M92 451l25 157h143q8 98 21 144h-146l25 155h159q70 244 207.5 363t382.5 119q145 0 245.5 -49.5t203.5 -161.5l-189 -177q-102 147 -278 148q-127 0 -190.5 -57.5t-98.5 -184.5h467l-22 -155h-476q-18 -137 -18 -144h473l-22 -157h-463q4 -121 52 -179.5t169 -58.5 q178 0 354 176l127 -188q-252 -227 -524 -228q-250 0 -351.5 113t-113.5 365h-162z" />
<glyph unicode="&#x2122;" horiz-adv-x="1449" d="M268 1311l19 123h501l-18 -123h-176l-57 -416h-148l57 416h-178zM823 895l76 539h125l147 -258l215 258h127l-75 -539h-144l43 287l-196 -226l-137 226l-39 -287h-142z" />
<glyph unicode="&#xe000;" horiz-adv-x="1030" d="M0 1030h1030v-1030h-1030v1030z" />
<glyph unicode="&#xfb01;" horiz-adv-x="1294" d="M877 0l143 1028h289l-143 -1028h-289zM1027 1278q0 76 58 119t136 43q63 0 109.5 -31t46.5 -92q0 -76 -57.5 -119t-137.5 -43q-66 0 -110.5 31t-44.5 92zM152 797l32 231h158l18 125q23 162 108 226.5t300 64.5q90 0 162 -10l-29 -209q-53 8 -113 8q-84 0 -112.5 -23.5 t-38.5 -91.5l-12 -90h227l-33 -227h-217l-110 -801h-293l110 797h-157z" />
<glyph unicode="&#xfb02;" horiz-adv-x="1394" d="M902 154q0 31 6 69l170 1211h288l-161 -1143q-6 -45 7 -56.5t56 -11.5h101l-31 -223q-80 -12 -211 -12q-121 0 -173 38t-52 128zM152 797l32 231h158l18 125q23 162 108 226.5t300 64.5q90 0 162 -10l-29 -209q-53 8 -113 8q-84 0 -112.5 -23.5t-38.5 -91.5l-12 -90h227 l-33 -227h-217l-110 -801h-293l110 797h-157z" />
<glyph unicode="&#xfb03;" horiz-adv-x="2041" d="M1624 0l143 1028h289l-143 -1028h-289zM1774 1278q0 76 58 119t136 43q63 0 109.5 -31t46.5 -92q0 -76 -57.5 -119t-137.5 -43q-66 0 -110.5 31t-44.5 92zM900 797l32 231h158l18 125q23 162 108 226.5t300 64.5q90 0 162 -10l-29 -209q-53 8 -113 8q-84 0 -112.5 -23.5 t-38.5 -91.5l-12 -90h227l-33 -227h-217l-110 -801h-293l110 797h-157zM152 797l32 231h158l18 125q23 162 108 226.5t300 64.5q90 0 162 -10l-29 -209q-53 8 -113 8q-84 0 -112.5 -23.5t-38.5 -91.5l-12 -90h227l-33 -227h-217l-110 -801h-293l110 797h-157z" />
<glyph unicode="&#xfb04;" horiz-adv-x="2142" d="M1649 154q0 31 6 69l170 1211h288l-161 -1143q-6 -45 7 -56.5t56 -11.5h101l-31 -223q-80 -12 -211 -12q-121 0 -173 38t-52 128zM900 797l32 231h158l18 125q23 162 108 226.5t300 64.5q90 0 162 -10l-29 -209q-53 8 -113 8q-84 0 -112.5 -23.5t-38.5 -91.5l-12 -90h227 l-33 -227h-217l-110 -801h-293l110 797h-157zM152 797l32 231h158l18 125q23 162 108 226.5t300 64.5q90 0 162 -10l-29 -209q-53 8 -113 8q-84 0 -112.5 -23.5t-38.5 -91.5l-12 -90h227l-33 -227h-217l-110 -801h-293l110 797h-157z" />
</font>
</defs>
</svg>
