<?xml version="1.0" standalone="no"?>
<!DOCTYPE svg PUBLIC "-//W3C//DTD SVG 1.1//EN" "http://www.w3.org/Graphics/SVG/1.1/DTD/svg11.dtd" >
<svg xmlns="http://www.w3.org/2000/svg">
<metadata>
This is a custom SVG webfont generated by Font Squirrel.
Copyright   : Copyright c Terminal Design Inc 2005 All rights reserved
Designer    : James Montalbano
Foundry     : Terminal Design Inc
Foundry URL : wwwterminaldesigncom
</metadata>
<defs>
<font id="ClearviewATTBook" horiz-adv-x="1177" >
<font-face units-per-em="2048" ascent="1536" descent="-512" />
<missing-glyph horiz-adv-x="675" />
<glyph unicode=" "  horiz-adv-x="675" />
<glyph unicode="&#x09;" horiz-adv-x="675" />
<glyph unicode="&#xa0;" horiz-adv-x="675" />
<glyph unicode="!" horiz-adv-x="575" d="M158 94q0 51 35.5 82t95.5 31q57 0 93 -31t36 -82t-36 -84t-93 -33q-59 0 -95 33t-36 84zM186 1366h207q-25 -664 -31 -995h-145q-13 497 -31 995z" />
<glyph unicode="&#x22;" horiz-adv-x="854" d="M123 1434h201l-43 -420h-121zM508 1434h201l-43 -420h-121z" />
<glyph unicode="#" horiz-adv-x="1275" d="M76 526l16 133h246l41 295h-246l17 131h247l41 281h144l-41 -281h288l41 281h144l-45 -281h233l-20 -131h-232l-43 -295h242l-19 -133h-243l-39 -295h-146l41 295h-282l-43 -295h-139l40 295h-243zM479 659h287l43 295h-289z" />
<glyph unicode="$" d="M143 188l78 136q188 -127 365 -127q131 0 200.5 52t69.5 146q0 74 -44 122t-138 93l-238 101q-131 57 -195.5 128.5t-64.5 184.5q0 115 79 205t249 98v154h172v-154q150 -6 303 -96l-66 -139q-158 100 -321 100q-238 0 -238 -162q0 -63 41 -99t162 -91l199 -84 q147 -63 211.5 -145.5t64.5 -207.5q0 -127 -93 -228t-265 -112v-159h-172v159q-175 6 -359 125z" />
<glyph unicode="%" horiz-adv-x="1513" d="M96 1085q0 348 266 349q268 0 269 -349q0 -346 -269 -346q-266 0 -266 346zM221 1085q0 -133 32 -190t109.5 -57t110.5 58t33 191q0 121 -28.5 183.5t-115.5 62.5q-84 0 -112.5 -62.5t-28.5 -185.5zM252 0l878 1434h113l-876 -1434h-115zM883 334q0 348 266 348 q268 0 268 -348q0 -346 -268 -346q-266 0 -266 346zM1008 334q0 -133 31.5 -190.5t109.5 -57.5t109.5 58.5t31.5 191.5q0 123 -28.5 184.5t-112.5 61.5t-112.5 -62.5t-28.5 -185.5z" />
<glyph unicode="&#x26;" horiz-adv-x="1275" d="M127 379q0 238 289 397q-166 182 -166 320q0 121 90 208t258 87t242.5 -86t74.5 -195q0 -119 -72.5 -194.5t-221.5 -163.5l321 -443q25 59 25 156q0 106 -27 213h162q23 -98 22 -217q0 -164 -69 -262l145 -199h-194l-72 96q-141 -119 -340 -119q-233 0 -350 113t-117 289 zM299 393q0 -133 81 -207.5t214 -74.5q156 0 248 92l-353 473q-190 -136 -190 -283zM412 1102q0 -16 5 -35.5t9 -34t17.5 -37t19.5 -34t23.5 -36t22.5 -30.5t24.5 -30.5t21.5 -26.5q104 70 155.5 131t51.5 135q0 66 -37 117t-125 51t-138 -48t-50 -122z" />
<glyph unicode="'" horiz-adv-x="446" d="M123 1434h201l-43 -420h-121z" />
<glyph unicode="(" horiz-adv-x="612" d="M100 649q0 248 64.5 460t204.5 472l123 -29q-215 -451 -216 -903q0 -444 216 -901l-123 -31q-137 246 -203 465t-66 467z" />
<glyph unicode=")" horiz-adv-x="612" d="M121 -252q215 457 215 901q0 461 -215 903l123 29q139 -260 203.5 -472t64.5 -460q0 -250 -65.5 -468t-202.5 -464z" />
<glyph unicode="*" horiz-adv-x="688" d="M57 1147l49 141l173 -80h2l-31 187h160l-27 -185v-2l172 82l51 -141l-190 -31v-4l133 -133l-123 -90l-92 168h-2l-92 -166l-123 88l133 133v4z" />
<glyph unicode="+" d="M104 459v155h410v408h158v-408h399v-155h-399v-426h-158v426h-410z" />
<glyph unicode="," horiz-adv-x="430" d="M55 -244l80 443h215l-172 -443h-123z" />
<glyph unicode="-" horiz-adv-x="770" d="M106 449v165h558v-165h-558z" />
<glyph unicode="." horiz-adv-x="430" d="M86 94q0 51 36 82t93 31t93 -31t36 -82t-36 -84t-93 -33t-93 32t-36 85z" />
<glyph unicode="/" horiz-adv-x="1048" d="M41 -236l811 1670h168l-813 -1670h-166z" />
<glyph unicode="0" d="M109 684q0 354 108.5 529.5t372.5 175.5q262 0 370.5 -175.5t108.5 -529.5t-108.5 -531.5t-370.5 -177.5q-266 0 -373.5 175.5t-107.5 533.5zM293 684q0 -111 5 -186.5t23.5 -151.5t50 -120t86 -71.5t132.5 -27.5q76 0 129 27.5t85 72.5t50 119t24.5 151.5t6.5 186.5 t-6.5 186.5t-24.5 151.5t-50 118t-85 70.5t-129 26.5q-78 0 -132.5 -26.5t-86 -69.5t-50 -118t-23.5 -150.5t-5 -188.5z" />
<glyph unicode="1" d="M141 1118l418 252h152v-1214h325v-156h-843v156h337v1009h-6l-309 -184z" />
<glyph unicode="2" d="M139 166q57 51 159.5 138t151 130t123 112.5t109.5 115t74 102.5t54 110.5t15 108.5q0 102 -54 177t-177 75q-176 0 -344 -186l-98 131q111 113 214 161t238 48q188 0 296 -97.5t108 -290t-147.5 -384t-512.5 -461.5h690v-156h-872z" />
<glyph unicode="3" d="M135 117l84 135q164 -127 340 -127q131 0 214 64.5t83 203.5q0 131 -64.5 187.5t-218.5 56.5h-153v149h63q338 0 338 230q0 102 -64.5 160.5t-193.5 58.5q-168 0 -321 -129l-82 139q113 78 208 111t216 33q188 0 305 -92.5t117 -274.5q0 -221 -199 -295v-4 q233 -47 233 -332q0 -182 -115.5 -299t-359.5 -117q-237 1 -430 142z" />
<glyph unicode="4" d="M94 446l600 916h201v-913h186v-156h-186v-293h-184v293h-568zM281 449h440v706h-8z" />
<glyph unicode="5" d="M139 758l107 608h725v-156h-582l-72 -381l5 -2q127 106 290 107q426 0 426 -465q0 -494 -497 -494q-221 0 -398 129l78 142q164 -121 322 -121q160 0 235.5 83t75.5 261q0 164 -71.5 240.5t-215.5 76.5q-160 0 -286 -124z" />
<glyph unicode="6" d="M111 600q0 180 24.5 315.5t80.5 246t163.5 169t261.5 58.5q180 0 334 -93l-78 -139q-119 78 -254 78q-174 0 -263 -120t-93 -406h4q102 176 336 176q205 0 321.5 -118t116.5 -321q0 -217 -128 -344t-339 -127q-260 0 -373.5 157t-113.5 468zM301 428q0 -145 79 -223 t218 -78q137 0 210 80t73 233q0 293 -283 293q-135 0 -216 -82t-81 -223z" />
<glyph unicode="7" d="M133 1210v156h881l28 -154q-135 -115 -216 -219t-125 -236t-58 -270.5t-14 -353.5v-133h-191v61q0 174 10.5 303.5t45 297t117.5 306t210 238.5v4h-688z" />
<glyph unicode="8" d="M113 391q0 252 225 336v8q-190 74 -191 295q0 358 441 359q438 0 438 -359q0 -219 -190 -295v-8q227 -74 227 -336q0 -416 -473 -416q-477 0 -477 416zM297 381q0 -137 70.5 -198.5t220 -61.5t220.5 61.5t71 204.5q0 135 -64.5 202.5t-226.5 67.5q-145 0 -218 -61 t-73 -215zM328 1022q0 -227 260 -227q258 0 258 227q0 115 -61.5 167t-196.5 52q-137 0 -198.5 -52t-61.5 -167z" />
<glyph unicode="9" d="M111 930q0 213 130 336t339 123q246 0 365.5 -161t119.5 -515q0 -383 -125 -559.5t-397 -176.5q-211 0 -365 121l90 125q133 -98 275 -98q180 0 263 121t85 436h-4q-47 -96 -133 -148.5t-197 -52.5q-203 0 -324.5 120t-121.5 329zM295 928q0 -137 74.5 -215t212.5 -78 q139 0 209.5 80t70.5 215q0 145 -72.5 226t-207.5 81q-137 0 -212 -83t-75 -226z" />
<glyph unicode=":" horiz-adv-x="430" d="M90 94q0 51 35 82t92 31t92 -31t35 -82q0 -53 -35 -85t-92 -32t-92 32t-35 85zM90 827q0 51 35 82t92 31t92 -30.5t35 -82.5q0 -53 -35 -84.5t-92 -31.5t-92 31.5t-35 84.5z" />
<glyph unicode=";" horiz-adv-x="430" d="M55 -244l78 443h209l-164 -443h-123zM109 825q0 51 34.5 82t92.5 31q59 0 92.5 -30.5t33.5 -82.5q0 -53 -34.5 -84.5t-92 -31.5t-92 31.5t-34.5 84.5z" />
<glyph unicode="&#x3c;" d="M104 457v157l967 441v-162l-795 -356l795 -349v-157z" />
<glyph unicode="=" d="M106 270v154h965v-154h-965zM106 653v154h965v-154h-965z" />
<glyph unicode="&#x3e;" d="M104 31v157l797 349l-797 356v162l967 -441v-157z" />
<glyph unicode="?" horiz-adv-x="1054" d="M98 1249q203 139 428 140q201 0 309.5 -94.5t108.5 -258.5q0 -129 -56.5 -214t-187.5 -148l-106 -49q-66 -33 -78 -52.5t-12 -93.5v-127h-176v162q0 94 24.5 133t110.5 78l102 47q117 55 159 106.5t42 143.5q0 102 -67.5 158.5t-192.5 56.5q-170 0 -320 -121zM283 94 q0 51 35.5 82t95.5 31q57 0 93 -31t36 -82t-36 -84t-93 -33q-59 0 -95 33t-36 84z" />
<glyph unicode="@" horiz-adv-x="1644" d="M127 475q0 311 206 517t546 206q272 0 455.5 -153.5t183.5 -442.5q0 -231 -111 -361t-250 -130q-59 0 -101 33.5t-50 91.5h-11q-90 -131 -260 -132q-125 0 -192.5 82t-67.5 232q0 106 35 203.5t121 169t206.5 71.5t186.5 -90h8l10 74h150l-74 -555q-8 -82 72 -82 q76 0 154.5 99.5t78.5 299.5q0 233 -149.5 367.5t-390.5 134.5q-305 0 -479.5 -185.5t-174.5 -455.5q0 -285 156 -443.5t426 -158.5q242 0 416 121l51 -76q-190 -131 -481 -131q-319 0 -494.5 195.5t-175.5 498.5zM618 408q0 -193 164 -193q90 0 142.5 56.5t66.5 152.5 l21 154q20 172 -156 172q-115 0 -176.5 -88t-61.5 -254z" />
<glyph unicode="A" horiz-adv-x="1314" d="M45 0l504 1374h209l512 -1374h-201l-117 330h-596l-118 -330h-193zM401 483h500l-246 709h-8z" />
<glyph unicode="B" horiz-adv-x="1302" d="M176 0v1358q197 25 432 24q84 0 145.5 -5t136.5 -26.5t122 -59.5t79.5 -106.5t32.5 -164.5q0 -227 -215 -299v-8q127 -23 199 -113t72 -231q0 -369 -449 -369h-555zM360 143q92 -4 256 -4q74 0 120 3t100.5 16.5t85 39t52 71.5t21.5 114q0 72 -24.5 122t-56 75.5t-90 40 t-99.5 16.5t-109 2q-174 0 -256 -2v-494zM362 778q78 -2 250 -2q168 0 249 45t81 189q0 131 -83 178t-249 47q-131 0 -248 -12v-445z" />
<glyph unicode="C" horiz-adv-x="1294" d="M133 686q0 143 37 268t110.5 223.5t194.5 155t279 56.5q254 0 467 -189l-113 -123q-166 154 -348 154q-203 0 -317.5 -137.5t-114.5 -407.5q0 -115 21.5 -209t68.5 -174t133 -125t203 -45q205 0 374 164l101 -127q-213 -193 -481 -193q-301 0 -458 187.5t-157 521.5z" />
<glyph unicode="D" horiz-adv-x="1370" d="M176 0v1358q221 25 414 24q309 0 478 -181t169 -509q0 -309 -158.5 -500.5t-486.5 -191.5h-416zM362 154q72 -2 197 -2q246 0 364.5 129t118.5 413q0 102 -19 189.5t-65.5 170.5t-139.5 131t-224 48q-88 0 -232 -12v-1067z" />
<glyph unicode="E" horiz-adv-x="1093" d="M176 0v1366h815v-158h-629v-407h570v-160h-570v-485h654v-156h-840z" />
<glyph unicode="F" horiz-adv-x="1044" d="M176 0v1366h801v-158h-615v-415h556v-160h-556v-633h-186z" />
<glyph unicode="G" horiz-adv-x="1429" d="M133 682q0 303 161 505t464 202q250 0 456 -179l-110 -125q-166 145 -340 146q-231 0 -333.5 -151.5t-102.5 -397.5q0 -115 20.5 -210t67.5 -177t134 -127t208 -45q176 0 271 95t95 263v86h-360v154h532v-152q0 -291 -138 -440t-408 -149q-299 0 -458 194.5t-159 507.5z " />
<glyph unicode="H" horiz-adv-x="1355" d="M176 0v1366h186v-549h631v549h187v-1366h-187v643h-631v-643h-186z" />
<glyph unicode="I" horiz-adv-x="538" d="M176 0v1366h186v-1366h-186z" />
<glyph unicode="J" horiz-adv-x="917" d="M82 78l80 143q102 -86 211 -86q94 0 138 51.5t44 161.5v1018h186v-1004q0 -387 -350 -387q-176 1 -309 103z" />
<glyph unicode="K" horiz-adv-x="1185" d="M176 0v1366h186v-645h5l510 645h233l-467 -580l506 -786h-231l-414 657l-142 -161v-496h-186z" />
<glyph unicode="L" horiz-adv-x="1019" d="M176 0v1366h186v-1206h576v-160h-762z" />
<glyph unicode="M" horiz-adv-x="1570" d="M176 0v1366h172l436 -676l437 676h174v-1366h-181v1061h-8l-422 -655l-419 651h-9v-1057h-180z" />
<glyph unicode="N" horiz-adv-x="1435" d="M176 0v1366h184l711 -1051h8v1051h181v-1366h-175l-720 1065h-9v-1065h-180z" />
<glyph unicode="O" horiz-adv-x="1527" d="M133 684q0 313 158 509t473 196t473 -194t158 -511q0 -322 -158 -514.5t-473 -192.5t-473 192.5t-158 514.5zM328 682q0 -553 436 -553t436 553q0 555 -436 555t-436 -555z" />
<glyph unicode="P" horiz-adv-x="1232" d="M176 0v1358q225 25 428 24q522 0 522 -428q0 -219 -110.5 -326.5t-343.5 -107.5h-310v-520h-186zM362 670h254q168 0 245 56t77 224q0 158 -79 219.5t-255 61.5q-121 0 -242 -14v-547z" />
<glyph unicode="Q" horiz-adv-x="1527" d="M133 684q0 322 156.5 513.5t474.5 191.5q319 0 475 -190.5t156 -514.5q0 -449 -281 -612v-2q39 -10 115 -59.5t147 -63.5l-57 -140q-94 10 -229.5 93.5t-190.5 83.5q-18 0 -63 -3.5t-64 -3.5q-322 0 -480.5 190.5t-158.5 516.5zM328 682q0 -551 436 -551t436 553 q0 551 -436 551t-436 -553z" />
<glyph unicode="R" horiz-adv-x="1236" d="M176 0v1360q197 23 410 22q514 0 514 -395q0 -281 -230 -364v-2q43 -18 64 -86l203 -535h-197l-178 492q-27 80 -117 79h-283v-571h-186zM362 721h269q141 0 212.5 56.5t71.5 195.5q0 147 -86 203.5t-239 56.5q-115 0 -228 -14v-498z" />
<glyph unicode="S" horiz-adv-x="1103" d="M74 127l86 139q190 -139 379 -139q127 0 199.5 60.5t72.5 183.5q0 35 -9 64.5t-33 54t-42 42t-60 38t-64.5 29.5t-77 30.5t-74.5 29.5q-160 63 -249 146.5t-89 236.5q0 174 123.5 259t308.5 85q213 0 413 -120l-69 -150q-168 119 -338 119q-109 0 -179.5 -47t-70.5 -141 q0 -41 17.5 -75t38 -55.5t66.5 -46t74.5 -36t92.5 -33.5q76 -27 118 -44.5t106.5 -54t98 -76.5t60 -103.5t26.5 -143.5q0 -197 -119.5 -299.5t-328.5 -102.5q-256 0 -477 150z" />
<glyph unicode="T" horiz-adv-x="1034" d="M39 1204v162h956v-162h-385v-1204h-186v1204h-385z" />
<glyph unicode="U" horiz-adv-x="1370" d="M176 530v836h186v-836q0 -193 70 -295t252 -102t253 102.5t71 294.5v836h186v-836q0 -285 -122 -419t-388 -134q-268 0 -388 134t-120 419z" />
<glyph unicode="V" horiz-adv-x="1179" d="M45 1366h199l344 -1159h8l344 1159h195l-443 -1366h-207z" />
<glyph unicode="W" horiz-adv-x="1875" d="M61 1366h205l258 -1151h11l311 1151h188l312 -1151h8l262 1151h199l-357 -1366h-213l-307 1102h-8l-301 -1102h-228z" />
<glyph unicode="X" horiz-adv-x="1155" d="M35 0l436 709l-385 657h217l279 -516h8l291 516h215l-400 -672l424 -694h-217l-323 551h-9l-321 -551h-215z" />
<glyph unicode="Y" horiz-adv-x="1171" d="M27 1366h211l350 -659l352 659h205l-465 -823v-543h-186v537z" />
<glyph unicode="Z" horiz-adv-x="1142" d="M94 0v154l721 1050h-690v162h905v-152l-721 -1058h740v-156h-955z" />
<glyph unicode="[" horiz-adv-x="634" d="M119 -213v1774h379v-115h-215v-1544h215v-115h-379z" />
<glyph unicode="\" horiz-adv-x="1048" d="M45 1366h170l778 -1602h-168z" />
<glyph unicode="]" horiz-adv-x="634" d="M127 -98h211v1544h-211v115h373v-1774h-373v115z" />
<glyph unicode="^" horiz-adv-x="749" d="M6 1169l363 215l366 -215l-96 -94l-268 158l-277 -158z" />
<glyph unicode="_" horiz-adv-x="991" d="M-16 -174h1024v-121h-1024v121z" />
<glyph unicode="`" horiz-adv-x="733" d="M125 1380l180 82l277 -243l-101 -62z" />
<glyph unicode="a" horiz-adv-x="1083" d="M92 287q0 82 29 146.5t83 103t114.5 65.5t141.5 38t143.5 15t137.5 4v101q-4 84 -50 121t-140 37q-182 0 -367 -117l-63 125q231 127 446 127q184 0 268.5 -82t84.5 -266v-492q2 -82 67 -111l-106 -118q-51 18 -79 45.5t-38 81.5h-8q-164 -133 -340 -134 q-141 0 -232.5 83.5t-91.5 226.5zM268 297q0 -92 53.5 -144.5t139.5 -52.5q129 0 284 117v334q-68 0 -117.5 -3t-122.5 -16.5t-120 -39t-82 -75.5t-35 -120z" />
<glyph unicode="b" horiz-adv-x="1155" d="M156 0v1434h178v-531h2q82 150 299 150q221 0 316.5 -148.5t95.5 -388.5q0 -86 -13.5 -163t-44.5 -146.5t-77 -119.5t-116.5 -80t-158.5 -30q-233 0 -313 187h-9l-26 -164h-133zM332 410q0 -131 66.5 -215t193.5 -84q272 0 272 403q0 86 -9 147.5t-34.5 124t-83 95 t-143.5 32.5q-121 0 -191.5 -63.5t-70.5 -181.5v-258z" />
<glyph unicode="c" horiz-adv-x="1013" d="M109 508q0 246 125.5 395.5t361.5 149.5q195 0 356 -129l-78 -125q-113 113 -272 112q-164 0 -237.5 -112.5t-73.5 -282.5q0 -111 26.5 -195.5t99 -143t185.5 -58.5q156 0 285 110l61 -125q-166 -127 -356 -127q-233 0 -358 145.5t-125 385.5z" />
<glyph unicode="d" horiz-adv-x="1155" d="M109 516q0 238 95 387.5t316 149.5q197 0 293 -144h8v525h178v-1434h-149l-10 158h-9q-94 -180 -311 -181q-113 0 -194.5 43t-127.5 120t-67.5 170t-21.5 206zM291 514q0 -403 274 -403q127 0 192.5 84t65.5 215v258q0 119 -70.5 182t-191.5 63q-88 0 -144.5 -32.5 t-83 -95t-34.5 -124t-8 -147.5z" />
<glyph unicode="e" horiz-adv-x="1112" d="M109 514q0 254 128 397.5t343 143.5q203 0 316.5 -142.5t113.5 -375.5q0 -57 -2 -80h-721q0 -162 78.5 -252t230.5 -90q158 0 305 106l64 -123q-168 -121 -375 -121q-233 0 -357 143.5t-124 393.5zM287 578h557q0 147 -65.5 246.5t-196.5 99.5q-156 0 -225.5 -101.5 t-69.5 -244.5z" />
<glyph unicode="f" horiz-adv-x="653" d="M55 883v145h158v152q0 147 56.5 205.5t228.5 58.5q55 0 127 -10v-136q-51 10 -97 11q-90 0 -115.5 -27t-25.5 -113v-141h221v-143h-215v-885h-180v883h-158z" />
<glyph unicode="g" horiz-adv-x="1155" d="M109 516q0 537 411 537q211 0 309 -160h9l10 135h151v-1096q0 -123 -28.5 -203.5t-86 -120.5t-123 -55.5t-161.5 -15.5q-231 0 -424 105l55 139q180 -104 365 -105q125 0 175 45.5t50 172.5v268h-8q-51 -92 -118.5 -131t-168.5 -39q-217 0 -317 143t-100 381zM291 518 q0 -389 272 -389q127 0 193.5 83t66.5 214v240q0 121 -70.5 184t-191.5 63q-86 0 -142.5 -32.5t-83 -94t-35.5 -123t-9 -145.5z" />
<glyph unicode="h" horiz-adv-x="1155" d="M156 0v1434h178v-533h8q84 152 305 152q199 0 275.5 -101.5t76.5 -310.5v-641h-178v602q0 80 -6 125t-26.5 90t-66.5 64.5t-122 19.5q-129 0 -197.5 -65.5t-68.5 -190.5v-645h-178z" />
<glyph unicode="i" horiz-adv-x="489" d="M133 1282q0 45 31 73.5t80 28.5q51 0 81.5 -27.5t30.5 -74.5q0 -45 -30.5 -72.5t-81.5 -27.5q-49 0 -80 27.5t-31 72.5zM156 0v1028h178v-1028h-178z" />
<glyph unicode="j" horiz-adv-x="501" d="M-139 -303q61 -6 112 -6q119 0 157 57t38 189v1091h178v-1108q0 -188 -82 -285.5t-266 -97.5q-78 0 -137 8v152zM143 1282q0 49 32 75.5t79 26.5q49 0 81 -26.5t32 -75.5q0 -47 -32 -73.5t-81 -26.5q-45 0 -78 26.5t-33 73.5z" />
<glyph unicode="k" horiz-adv-x="1032" d="M156 0v1434h178v-895h8l395 489h226l-351 -405l381 -623h-215l-295 506l-149 -174v-332h-178z" />
<glyph unicode="l" horiz-adv-x="557" d="M156 199v1235h178v-1190q0 -70 20.5 -86.5t81.5 -16.5h64v-141q-51 -10 -138 -10q-113 0 -159.5 46t-46.5 163z" />
<glyph unicode="m" horiz-adv-x="1722" d="M156 0v1028h155l17 -131h4q82 156 280 156q215 0 283 -164q96 164 311 164q197 0 279 -103.5t82 -308.5v-641h-178v623q0 139 -39 208.5t-160 69.5q-240 0 -240 -233v-668h-178v631q0 137 -41 203.5t-166 66.5q-104 0 -167.5 -69.5t-63.5 -169.5v-662h-178z" />
<glyph unicode="n" horiz-adv-x="1155" d="M156 0v1028h153l15 -129h8q100 154 311 154q203 0 279.5 -101.5t76.5 -308.5v-643h-178v602q0 156 -42 227.5t-181 71.5q-129 0 -196.5 -66.5t-67.5 -189.5v-645h-178z" />
<glyph unicode="o" horiz-adv-x="1175" d="M109 512q0 242 116.5 391.5t360.5 149.5q238 0 359.5 -147.5t121.5 -393.5q0 -240 -121 -387.5t-360 -147.5q-238 0 -357.5 147.5t-119.5 387.5zM291 514q0 -399 297 -399t297 399q0 397 -297 397t-297 -397z" />
<glyph unicode="p" horiz-adv-x="1155" d="M156 -451v1479h149l14 -131h5q98 156 307 156q117 0 200.5 -43t130 -122t66 -169t19.5 -203q0 -238 -99.5 -388.5t-322.5 -150.5q-193 0 -287 158l-4 2v-588h-178zM332 412q0 -133 65.5 -217t190.5 -84q276 0 276 403q0 86 -9 147.5t-35.5 124t-84 95t-145.5 32.5 q-121 0 -189.5 -63.5t-68.5 -183.5v-254z" />
<glyph unicode="q" horiz-adv-x="1155" d="M109 516q0 537 411 537q217 0 307 -156h9l14 131h149v-1235q0 -68 14.5 -96.5t69.5 -50.5l-98 -131q-92 29 -128 81t-36 160v381h-8q-90 -160 -289 -160q-115 0 -198.5 44.5t-128.5 123t-66.5 169.5t-21.5 202zM291 514q0 -403 274 -403q127 0 192.5 84t65.5 215v258 q0 119 -70.5 182t-191.5 63q-88 0 -144.5 -32.5t-83 -95t-34.5 -123t-8 -148.5z" />
<glyph unicode="r" horiz-adv-x="735" d="M156 0v1028h151l17 -131h2q88 154 315 154h53v-158h-45q-156 0 -235.5 -54.5t-79.5 -187.5v-651h-178z" />
<glyph unicode="s" horiz-adv-x="921" d="M72 86l65 131q164 -104 328 -104q201 0 201 166q0 39 -16.5 67.5t-56.5 50t-68.5 30.5t-90.5 28q-80 25 -127 44t-101 55t-80 91t-26 131q0 133 103.5 205t265.5 72q170 0 334 -80l-51 -135q-127 76 -275 75q-207 0 -207 -143q0 -16 4.5 -30.5t13.5 -27t17 -21.5 t25.5 -19t30 -16.5t36 -14.5t38 -12t43 -13.5t42.5 -13.5q74 -23 117 -42t95 -55t78 -89.5t26 -126.5q0 -156 -100.5 -234t-268.5 -78q-215 0 -395 109z" />
<glyph unicode="t" horiz-adv-x="720" d="M45 883v145h172v283h176v-283h244v-145h-244v-598q0 -88 29 -118t149 -30q37 0 66 2v-141q-72 -10 -131 -10q-176 0 -233.5 62.5t-57.5 207.5v625h-170z" />
<glyph unicode="u" horiz-adv-x="1136" d="M156 393v635h178v-543q0 -195 40 -276.5t177 -81.5t194.5 69.5t57.5 200.5v631h178v-1028h-150l-16 129h-6q-90 -152 -309 -152q-176 0 -260 89t-84 327z" />
<glyph unicode="v" horiz-adv-x="993" d="M41 1028h190l269 -870h8l260 870h184l-346 -1028h-215z" />
<glyph unicode="w" horiz-adv-x="1529" d="M51 1028h185l210 -852h9l235 852h146l237 -852h8l217 852h181l-299 -1028h-191l-223 764h-8l-223 -764h-191z" />
<glyph unicode="x" horiz-adv-x="972" d="M31 0l352 543l-311 485h202l218 -373h8l215 373h190l-307 -479l344 -549h-203l-247 424h-9l-247 -424h-205z" />
<glyph unicode="y" horiz-adv-x="1013" d="M37 1028h192l285 -801h8l264 801h191l-432 -1161q-74 -199 -140.5 -264.5t-203.5 -65.5q-43 0 -111 6v152q33 -6 90 -6q76 0 112 40t83 173l49 135z" />
<glyph unicode="z" horiz-adv-x="929" d="M80 0v139l551 744h-539v145h742v-145l-549 -738h565v-145h-770z" />
<glyph unicode="{" horiz-adv-x="712" d="M131 598v141q66 14 88.5 57.5t22.5 116.5v379q0 139 50 206t183 67h100v-119h-53q-43 0 -67.5 -9.5t-34.5 -36t-12 -46t-2 -64.5v-18v-381q0 -82 -23 -126t-88 -95q66 -51 88.5 -96.5t22.5 -127.5v-366q0 -106 19 -141t97 -35h53v-117h-96q-139 0 -188 64.5t-49 205.5 v367q0 74 -22.5 117t-88.5 57z" />
<glyph unicode="|" horiz-adv-x="477" d="M168 -410v1926h141v-1926h-141z" />
<glyph unicode="}" horiz-adv-x="712" d="M137 -96h53q80 0 98.5 33.5t18.5 142.5v366q0 82 21.5 128.5t87.5 95.5q-66 51 -87.5 95t-21.5 126v381v59q0 12 -5 44t-16.5 41t-35 19.5t-57.5 10.5h-56v119h99q133 0 183 -66.5t50 -206.5v-379q0 -150 113 -174v-141q-68 -14 -90.5 -57t-22.5 -117v-367 q0 -139 -50 -204.5t-186 -65.5h-96v117z" />
<glyph unicode="~" horiz-adv-x="849" d="M25 1171q45 82 96 115t131 33q61 0 172 -41t164 -41q88 0 127 82l114 -45q-59 -147 -223 -148q-63 0 -175 41t-165 41q-88 0 -133 -86z" />
<glyph unicode="&#xa1;" horiz-adv-x="575" d="M158 938q0 51 35.5 84t93.5 33q59 0 95 -33t36 -84t-36 -82t-95 -31q-57 0 -93 31t-36 82zM182 -334q25 664 31 996h145q12 -498 31 -996h-207z" />
<glyph unicode="&#xa2;" d="M162 696q0 213 98 354.5t291 168.5v147h168v-145q150 -14 289 -121l-78 -127q-117 111 -275 110q-162 0 -236.5 -104.5t-74.5 -278.5q0 -182 72.5 -292.5t232.5 -110.5q150 0 285 121l78 -115q-133 -119 -293 -143v-160h-168v160q-195 23 -292 170t-97 366z" />
<glyph unicode="&#xa3;" d="M129 0v145h41q92 0 145.5 69t53.5 187q0 100 -39 265h-172v141h149q-49 209 -49 274q0 147 97.5 227.5t273.5 80.5q201 0 362 -95l-45 -153q-141 94 -287 94q-117 0 -168 -45t-51 -141q0 -35 5.5 -70t18.5 -95.5t15 -76.5h309v-141h-282q45 -176 45 -273q0 -156 -90 -231 v-6h588v-156h-920z" />
<glyph unicode="&#xa4;" d="M104 309l144 144q-80 102 -80 243v9q0 131 80 233l-144 145l97 97l145 -148q106 78 240 78q129 0 239 -80l150 148l96 -97l-147 -145q80 -104 80 -240q0 -131 -80 -241l147 -148l-96 -96l-148 147q-106 -78 -241 -77q-133 0 -240 77l-145 -145zM326 696q0 -106 76.5 -183 t183.5 -77q109 0 185.5 76t76.5 184.5t-77 185t-185.5 76.5t-184 -76.5t-75.5 -185.5z" />
<glyph unicode="&#xa5;" d="M59 1366h211l326 -666l322 666h200l-319 -625h254v-123h-326l-41 -71v-133h367v-123h-367v-291h-184v291h-371v123h371v123l-47 81h-324v123h250z" />
<glyph unicode="&#xa6;" horiz-adv-x="477" d="M168 -410v830h141v-830h-141zM168 686v830h141v-830h-141z" />
<glyph unicode="&#xa7;" horiz-adv-x="970" d="M96 582q0 119 81 178t214 67v7q-119 41 -195.5 112.5t-76.5 169.5q0 125 96 199t277 74q162 0 329 -70l-49 -143q-137 74 -266 73q-203 0 -203 -129q0 -96 137 -153q133 -49 240 -101q98 -47 144 -99t46 -149q0 -227 -290 -247v-6q295 -94 294 -314q0 -49 -17 -95 t-56 -90t-116 -70.5t-185 -26.5q-203 0 -377 102l63 133q158 -100 308 -100q195 0 194 147q0 55 -35 93t-129 81q-98 33 -196 82q-125 57 -178.5 120t-53.5 155zM262 588q0 -152 221 -152q115 0 167 37t52 117q0 152 -219 151q-98 0 -159.5 -30.5t-61.5 -122.5z" />
<glyph unicode="&#xa8;" horiz-adv-x="733" d="M72 1274q0 43 30.5 73.5t71.5 30.5q43 0 74 -30.5t31 -73.5q0 -41 -31 -72t-74 -31q-41 0 -71.5 31t-30.5 72zM455 1274q0 43 30.5 73.5t73.5 30.5q41 0 72 -30.5t31 -73.5q0 -41 -31 -72t-72 -31q-43 0 -73.5 31t-30.5 72z" />
<glyph unicode="&#xa9;" horiz-adv-x="1773" d="M178 684q0 293 208 499t501 206t500.5 -206t207.5 -499t-207.5 -498.5t-500.5 -205.5t-501 205.5t-208 498.5zM258 684q0 -258 185.5 -442.5t443.5 -184.5q260 0 445.5 184.5t185.5 442.5q0 262 -182.5 447.5t-448.5 185.5q-264 0 -446.5 -185.5t-182.5 -447.5zM494 686 q0 444 415 444q176 0 318 -129l-72 -92q-106 111 -244 111q-158 0 -221 -84t-63 -248q0 -170 61.5 -256t218.5 -86q135 0 252 111l68 -92q-147 -131 -322 -132q-223 0 -317 119t-94 334z" />
<glyph unicode="&#xaa;" horiz-adv-x="798" d="M121 942q0 231 393 232v16q0 61 -19.5 84.5t-84.5 23.5q-123 0 -236 -63l-43 88q145 74 283 74q117 0 169 -50.5t52 -162.5v-266q0 -35 7 -47.5t38 -30.5l-76 -82q-63 20 -78 67h-4q-94 -72 -207 -71q-88 0 -141 49t-53 139zM242 942q0 -45 28.5 -74.5t73.5 -29.5 q76 0 170 65v195q-272 0 -272 -156z" />
<glyph unicode="&#xab;" horiz-adv-x="929" d="M39 627l293 413l121 -67l-252 -348l254 -342l-121 -70zM430 627l285 401l123 -67l-246 -336l244 -330l-121 -70z" />
<glyph unicode="&#xac;" d="M104 459v155h967v-524h-153v369h-814z" />
<glyph unicode="&#xad;" horiz-adv-x="770" d="M106 449v165h558v-165h-558z" />
<glyph unicode="&#xae;" horiz-adv-x="927" d="M106 1085q0 145 104.5 247t254.5 102q147 0 251.5 -102.5t104.5 -246t-104.5 -245t-251.5 -101.5q-150 0 -254.5 101.5t-104.5 244.5zM158 1087.5q0 -120.5 91 -208.5t216 -88t216 87t91 209q0 121 -90 209t-215 88q-129 0 -219 -88t-90 -208.5zM332 899v379q106 8 135 8 q158 0 158 -123q0 -63 -62 -100l70 -164h-88l-53 131q-8 12 -21 12h-61v-143h-78zM410 1104h63q72 0 72 55q0 59 -76 60q-12 0 -31.5 -1t-27.5 -1v-113z" />
<glyph unicode="&#xaf;" horiz-adv-x="733" d="M59 1206v117h611v-117h-611z" />
<glyph unicode="&#xb0;" horiz-adv-x="839" d="M127 1104q0 121 86 207t207 86t207 -86t86 -207q0 -123 -86 -209t-207 -86t-207 86t-86 209zM203 1104q0 -90 63.5 -153.5t153.5 -63.5t153.5 63.5t63.5 153.5t-63.5 152.5t-153.5 62.5t-153.5 -63.5t-63.5 -151.5z" />
<glyph unicode="&#xb1;" d="M104 0v150h967v-150h-967zM104 578v153h410v387h158v-387h399v-153h-399v-345h-158v345h-410z" />
<glyph unicode="&#xb2;" horiz-adv-x="632" d="M66 862q47 41 121.5 100.5t104.5 85t65.5 62.5t48 64.5t12.5 60.5q0 94 -103 94q-90 0 -168 -84l-69 80q111 109 250 109q102 0 159.5 -49.5t57.5 -141.5q0 -84 -67.5 -165t-270.5 -224h346v-102h-469z" />
<glyph unicode="&#xb3;" horiz-adv-x="618" d="M55 817l54 88q84 -68 172 -67q135 0 135 112q0 55 -30 78t-93 23h-88v90h49q143 0 143 100q0 43 -28.5 67.5t-79.5 24.5q-98 0 -166 -65l-57 86q111 80 235 80q100 0 159.5 -47.5t59.5 -141.5q0 -45 -26.5 -82t-69.5 -53v-2q115 -29 115 -166q0 -203 -246 -203 q-138 0 -238 78z" />
<glyph unicode="&#xb4;" horiz-adv-x="733" d="M152 1221l280 247l176 -86l-356 -225z" />
<glyph unicode="&#xb5;" horiz-adv-x="1189" d="M178 -451v1479h180v-541q0 -197 38 -277.5t179 -80.5q135 0 192.5 69.5t57.5 198.5v631h181v-1028h-152l-16 129h-7q-47 -74 -109.5 -113t-172.5 -39q-158 0 -209 97v-525h-162z" />
<glyph unicode="&#xb6;" horiz-adv-x="999" d="M86 516q0 223 156.5 367.5t443.5 144.5h137v-1028h-137q-287 0 -443.5 144.5t-156.5 371.5z" />
<glyph unicode="&#xb7;" horiz-adv-x="430" d="M84 487.5q0 51.5 36 82t93 30.5t93 -30.5t36 -82t-36 -84t-93 -32.5t-93 32.5t-36 84z" />
<glyph unicode="&#xb8;" horiz-adv-x="733" d="M188 -373l31 72q76 -39 129 -39q109 0 109 84q0 80 -105 80q-45 0 -73 -12l-37 30l82 158h96l-60 -104h2q8 0 26 1t26 1q70 0 108.5 -39t38.5 -113q0 -76 -53 -122t-152 -46q-78 0 -168 49z" />
<glyph unicode="&#xb9;" horiz-adv-x="573" d="M51 1300l213 121h101v-569h161v-100h-456v100h170v434h-7l-141 -78z" />
<glyph unicode="&#xba;" horiz-adv-x="798" d="M106 1075q0 150 76 236t217 86q139 0 216 -84t77 -238q0 -152 -75.5 -236.5t-217.5 -84.5q-139 0 -216 84.5t-77 236.5zM231 1075q0 -121 43 -172t127 -51q82 0 125 51t43 172q0 109 -37.5 164t-132 55t-131.5 -55t-37 -164z" />
<glyph unicode="&#xbb;" horiz-adv-x="929" d="M90 961l123 67l287 -401l-287 -402l-121 70l246 330zM473 973l123 67l295 -413l-295 -414l-121 70l252 342z" />
<glyph unicode="&#xbc;" horiz-adv-x="1527" d="M125 1300l213 121h100v-569h162v-100h-457v100h170v434h-6l-141 -78zM285 0l999 1434h109l-1000 -1434h-108zM911 233l310 437h135v-430h104v-103h-104v-137h-127v137h-287zM1026 233h207v314z" />
<glyph unicode="&#xbd;" horiz-adv-x="1470" d="M109 1300l213 121h100v-569h162v-100h-457v100h170v434h-6l-141 -78zM205 0l999 1434h109l-1000 -1434h-108zM901 111q47 41 122 100t104.5 85t65.5 62.5t48 64.5t12 60q0 94 -102 95q-90 0 -168 -84l-70 79q111 109 250 109q102 0 159.5 -49t57.5 -141q0 -84 -67.5 -165 t-270.5 -225h347v-102h-469z" />
<glyph unicode="&#xbe;" horiz-adv-x="1447" d="M127 817l53 88q84 -68 172 -67q135 0 135 112q0 55 -29.5 78t-92.5 23h-89v90h50q143 0 143 100q0 43 -28.5 67.5t-80.5 24.5q-98 0 -165 -65l-58 86q111 80 236 80q100 0 159.5 -47.5t59.5 -141.5q0 -45 -26.5 -82t-69.5 -53v-2q115 -29 114 -166q0 -203 -245 -203 q-138 0 -238 78zM246 0l999 1434h109l-1000 -1434h-108zM846 233l309 437h135v-430h105v-103h-105v-137h-127v137h-286zM961 233h206v314z" />
<glyph unicode="&#xbf;" horiz-adv-x="1054" d="M147 -4q0 129 56.5 214t187.5 148l107 50q66 33 78 52t12 93v127h176v-162q0 -94 -24.5 -133t-110.5 -78l-103 -47q-117 -55 -158.5 -106.5t-41.5 -143.5q0 -102 67.5 -158.5t192.5 -56.5q170 0 319 121l88 -133q-203 -139 -428 -139q-201 0 -309.5 94t-108.5 258z M549 938q0 51 36 84t93 33q59 0 95 -33t36 -84t-36 -82t-95 -31q-57 0 -93 31t-36 82z" />
<glyph unicode="&#xc0;" horiz-adv-x="1314" d="M45 0l504 1374h209l512 -1374h-201l-117 330h-596l-118 -330h-193zM324 1667l180 82l276 -244l-100 -61zM401 483h500l-246 709h-8z" />
<glyph unicode="&#xc1;" horiz-adv-x="1314" d="M45 0l504 1374h209l512 -1374h-201l-117 330h-596l-118 -330h-193zM401 483h500l-246 709h-8zM532 1507l281 248l176 -86l-356 -225z" />
<glyph unicode="&#xc2;" horiz-adv-x="1314" d="M45 0l504 1374h209l512 -1374h-201l-117 330h-596l-118 -330h-193zM332 1542l317 201l322 -201l-78 -102l-242 162l-243 -162zM401 483h500l-246 709h-8z" />
<glyph unicode="&#xc3;" horiz-adv-x="1314" d="M45 0l504 1374h209l512 -1374h-201l-117 330h-596l-118 -330h-193zM315 1522q66 145 191 145q51 0 148.5 -41t133.5 -41q78 0 109 82l92 -68q-20 -70 -72.5 -107.5t-115.5 -37.5q-51 0 -148.5 41t-132.5 41q-82 0 -114 -84zM401 483h500l-246 709h-8z" />
<glyph unicode="&#xc4;" horiz-adv-x="1314" d="M45 0l504 1374h209l512 -1374h-201l-117 330h-596l-118 -330h-193zM358 1561q0 43 31 73.5t72 30.5q43 0 73.5 -30.5t30.5 -73.5q0 -41 -30.5 -72t-73.5 -31q-41 0 -72 31t-31 72zM401 483h500l-246 709h-8zM741 1561q0 43 31 73.5t74 30.5q41 0 71.5 -30.5t30.5 -73.5 q0 -41 -30.5 -72t-71.5 -31q-43 0 -74 31t-31 72z" />
<glyph unicode="&#xc5;" horiz-adv-x="1314" d="M45 0l473 1292q-111 66 -110 195q0 100 70.5 167.5t173 67.5t172 -67.5t69.5 -167.5q0 -127 -107 -193l484 -1294h-201l-117 330h-596l-118 -330h-193zM401 483h500l-248 713h-4zM518 1487q0 -57 38 -96t95 -39q55 0 93 39t38 96t-37.5 94t-93.5 37q-57 0 -95 -37 t-38 -94z" />
<glyph unicode="&#xc6;" horiz-adv-x="1839" d="M45 0l760 1366h936v-156h-633v-407h571v-160h-571v-487h653v-156h-837v336h-504l-178 -336h-197zM496 496h430v710h-27z" />
<glyph unicode="&#xc7;" horiz-adv-x="1294" d="M133 686q0 143 37 268t110.5 223.5t194.5 155t279 56.5q254 0 467 -189l-113 -123q-166 154 -348 154q-203 0 -317.5 -137.5t-114.5 -407.5q0 -115 21.5 -209t68.5 -174t133 -125t203 -45q205 0 374 164l101 -127q-205 -184 -453 -193l-51 -90l2 -2q29 4 51 4 q70 0 110 -38.5t40 -110.5q0 -76 -55.5 -122t-147.5 -46q-98 0 -172 49l33 72q68 -39 133 -39q102 0 102 82t-100 82q-45 0 -78 -13l-37 31l76 144q-270 20 -409.5 204.5t-139.5 501.5z" />
<glyph unicode="&#xc8;" horiz-adv-x="1093" d="M176 0v1366h815v-158h-629v-407h570v-160h-570v-485h654v-156h-840zM317 1667l181 82l276 -244l-100 -61z" />
<glyph unicode="&#xc9;" horiz-adv-x="1093" d="M176 0v1366h815v-158h-629v-407h570v-160h-570v-485h654v-156h-840zM453 1507l280 248l176 -86l-356 -225z" />
<glyph unicode="&#xca;" horiz-adv-x="1093" d="M176 0v1366h815v-158h-629v-407h570v-160h-570v-485h654v-156h-840zM268 1542l318 201l321 -201l-78 -102l-241 162l-244 -162z" />
<glyph unicode="&#xcb;" horiz-adv-x="1093" d="M176 0v1366h815v-158h-629v-407h570v-160h-570v-485h654v-156h-840zM295 1561q0 43 30.5 73.5t71.5 30.5q43 0 74 -30.5t31 -73.5q0 -41 -31 -72t-74 -31q-41 0 -71.5 31t-30.5 72zM678 1561q0 43 30.5 73.5t73.5 30.5q41 0 72 -30.5t31 -73.5q0 -41 -31 -72t-72 -31 q-43 0 -73.5 31t-30.5 72z" />
<glyph unicode="&#xcc;" horiz-adv-x="538" d="M-59 1667l180 82l276 -244l-100 -61zM176 0v1366h186v-1366h-186z" />
<glyph unicode="&#xcd;" horiz-adv-x="538" d="M152 1507l280 248l176 -86l-356 -225zM176 0v1366h186v-1366h-186z" />
<glyph unicode="&#xce;" horiz-adv-x="538" d="M-41 1542l317 201l322 -201l-78 -102l-241 162l-244 -162zM176 0v1366h186v-1366h-186z" />
<glyph unicode="&#xcf;" horiz-adv-x="538" d="M-23 1561q0 43 31 73.5t72 30.5q43 0 73.5 -30.5t30.5 -73.5q0 -41 -30.5 -72t-73.5 -31q-41 0 -72 31t-31 72zM176 0v1366h186v-1366h-186zM360 1561q0 43 31 73.5t74 30.5q41 0 71.5 -30.5t30.5 -73.5q0 -41 -30.5 -72t-71.5 -31q-43 0 -74 31t-31 72z" />
<glyph unicode="&#xd0;" horiz-adv-x="1370" d="M47 651v154h131v553q250 25 412 24q319 0 483 -184t164 -506q0 -309 -159.5 -500.5t-495.5 -191.5h-404v651h-131zM362 154q63 -2 197 -2q258 0 371.5 134t113.5 408q0 106 -19 194.5t-66.5 168.5t-138.5 126t-220 46t-238 -12v-412h320v-154h-320v-497z" />
<glyph unicode="&#xd1;" horiz-adv-x="1435" d="M176 0v1366h184l711 -1051h8v1051h181v-1366h-175l-720 1065h-9v-1065h-180zM395 1522q66 145 191 145q51 0 148 -41t134 -41q78 0 109 82l92 -68q-20 -70 -72.5 -107.5t-115.5 -37.5q-51 0 -148.5 41t-132.5 41q-82 0 -115 -84z" />
<glyph unicode="&#xd2;" horiz-adv-x="1527" d="M133 684q0 313 158 509t473 196t473 -194t158 -511q0 -322 -158 -514.5t-473 -192.5t-473 192.5t-158 514.5zM328 682q0 -553 436 -553t436 553q0 555 -436 555t-436 -555zM514 1671l180 82l277 -244l-101 -61z" />
<glyph unicode="&#xd3;" horiz-adv-x="1527" d="M133 684q0 313 158 509t473 196t473 -194t158 -511q0 -322 -158 -514.5t-473 -192.5t-473 192.5t-158 514.5zM328 682q0 -553 436 -553t436 553q0 555 -436 555t-436 -555zM633 1511l280 248l177 -86l-357 -225z" />
<glyph unicode="&#xd4;" horiz-adv-x="1527" d="M133 684q0 313 158 509t473 196t473 -194t158 -511q0 -322 -158 -514.5t-473 -192.5t-473 192.5t-158 514.5zM328 682q0 -553 436 -553t436 553q0 555 -436 555t-436 -555zM455 1542l317 201l322 -201l-78 -102l-242 162l-244 -162z" />
<glyph unicode="&#xd5;" horiz-adv-x="1527" d="M133 684q0 313 158 509t473 196t473 -194t158 -511q0 -322 -158 -514.5t-473 -192.5t-473 192.5t-158 514.5zM328 682q0 -553 436 -553t436 553q0 555 -436 555t-436 -555zM420 1526q66 145 190 145q51 0 148.5 -41t134.5 -41q78 0 108 82l93 -67q-20 -70 -72.5 -108 t-116.5 -38q-51 0 -148.5 41t-131.5 41q-82 0 -115 -84z" />
<glyph unicode="&#xd6;" horiz-adv-x="1527" d="M133 684q0 313 158 509t473 196t473 -194t158 -511q0 -322 -158 -514.5t-473 -192.5t-473 192.5t-158 514.5zM328 682q0 -553 436 -553t436 553q0 555 -436 555t-436 -555zM469 1561q0 43 30.5 73.5t71.5 30.5q43 0 74 -30.5t31 -73.5q0 -41 -31 -72t-74 -31 q-41 0 -71.5 31t-30.5 72zM852 1561q0 43 30.5 73.5t73.5 30.5q41 0 72 -30.5t31 -73.5q0 -41 -31 -72t-72 -31q-43 0 -73.5 31t-30.5 72z" />
<glyph unicode="&#xd7;" d="M160 211l321 319l-309 310l109 108l309 -309l311 309l107 -108l-310 -310l318 -319l-109 -109l-317 320l-322 -320z" />
<glyph unicode="&#xd8;" horiz-adv-x="1527" d="M133 684q0 313 158 509t473 196q223 0 375 -107l104 131l115 -92l-111 -139q147 -186 148 -498q0 -322 -158 -514.5t-473 -192.5q-233 0 -385 111l-109 -137l-110 100l112 142q-139 184 -139 491zM328 682q0 -211 63 -340l645 811q-102 84 -272 84q-436 0 -436 -555z M485 219q106 -90 279 -90q436 0 436 553q0 219 -70 352z" />
<glyph unicode="&#xd9;" horiz-adv-x="1370" d="M176 530v836h186v-836q0 -193 70 -295t252 -102t253 102.5t71 294.5v836h186v-836q0 -285 -122 -419t-388 -134q-268 0 -388 134t-120 419zM346 1667l180 82l277 -244l-101 -61z" />
<glyph unicode="&#xda;" horiz-adv-x="1370" d="M176 530v836h186v-836q0 -193 70 -295t252 -102t253 102.5t71 294.5v836h186v-836q0 -285 -122 -419t-388 -134q-268 0 -388 134t-120 419zM573 1507l281 248l176 -86l-356 -225z" />
<glyph unicode="&#xdb;" horiz-adv-x="1370" d="M176 530v836h186v-836q0 -193 70 -295t252 -102t253 102.5t71 294.5v836h186v-836q0 -285 -122 -419t-388 -134q-268 0 -388 134t-120 419zM371 1542l317 201l322 -201l-78 -102l-242 162l-244 -162z" />
<glyph unicode="&#xdc;" horiz-adv-x="1370" d="M176 530v836h186v-836q0 -193 70 -295t252 -102t253 102.5t71 294.5v836h186v-836q0 -285 -122 -419t-388 -134q-268 0 -388 134t-120 419zM393 1561q0 43 31 73.5t72 30.5q43 0 73.5 -30.5t30.5 -73.5q0 -41 -30.5 -72t-73.5 -31q-41 0 -72 31t-31 72zM776 1561 q0 43 31 73.5t74 30.5q41 0 71.5 -30.5t30.5 -73.5q0 -41 -30.5 -72t-71.5 -31q-43 0 -74 31t-31 72z" />
<glyph unicode="&#xdd;" horiz-adv-x="1171" d="M27 1366h211l350 -659l352 659h205l-465 -823v-543h-186v537zM492 1491l280 248l176 -86l-356 -226z" />
<glyph unicode="&#xde;" horiz-adv-x="1230" d="M176 0v1366h182v-250q150 10 246 10q119 0 209 -20.5t163 -67.5t110.5 -133t37.5 -209q0 -432 -452 -432h-312v-264h-184zM360 414h273q160 4 232.5 60t72.5 220q0 158 -79 218.5t-257 60.5q-111 0 -242 -12v-547z" />
<glyph unicode="&#xdf;" horiz-adv-x="1089" d="M156 0v1108q0 164 84 250t282 86q166 0 256 -79t90 -222q0 -100 -48 -181t-161 -161v-8q344 -145 345 -441q0 -170 -100.5 -273.5t-258.5 -103.5q-123 0 -188 29l28 131q59 -23 121 -22q92 0 153.5 56t61.5 181q0 121 -73.5 202t-249.5 142l-23 117q127 84 180.5 160 t53.5 159q0 182 -189 183q-92 0 -139 -48t-47 -165v-1100h-178z" />
<glyph unicode="&#xe0;" horiz-adv-x="1083" d="M92 287q0 82 29 146.5t83 103t114.5 65.5t141.5 38t143.5 15t137.5 4v101q-4 84 -50 121t-140 37q-182 0 -367 -117l-63 125q231 127 446 127q184 0 268.5 -82t84.5 -266v-492q2 -82 67 -111l-106 -118q-51 18 -79 45.5t-38 81.5h-8q-164 -133 -340 -134 q-141 0 -232.5 83.5t-91.5 226.5zM242 1380l180 82l276 -243l-100 -62zM268 297q0 -92 53.5 -144.5t139.5 -52.5q129 0 284 117v334q-68 0 -117.5 -3t-122.5 -16.5t-120 -39t-82 -75.5t-35 -120z" />
<glyph unicode="&#xe1;" horiz-adv-x="1083" d="M92 287q0 82 29 146.5t83 103t114.5 65.5t141.5 38t143.5 15t137.5 4v101q-4 84 -50 121t-140 37q-182 0 -367 -117l-63 125q231 127 446 127q184 0 268.5 -82t84.5 -266v-492q2 -82 67 -111l-106 -118q-51 18 -79 45.5t-38 81.5h-8q-164 -133 -340 -134 q-141 0 -232.5 83.5t-91.5 226.5zM268 297q0 -92 53.5 -144.5t139.5 -52.5q129 0 284 117v334q-68 0 -117.5 -3t-122.5 -16.5t-120 -39t-82 -75.5t-35 -120zM391 1221l281 247l176 -86l-356 -225z" />
<glyph unicode="&#xe2;" horiz-adv-x="1083" d="M92 287q0 82 29 146.5t83 103t114.5 65.5t141.5 38t143.5 15t137.5 4v101q-4 84 -50 121t-140 37q-182 0 -367 -117l-63 125q231 127 446 127q184 0 268.5 -82t84.5 -266v-492q2 -82 67 -111l-106 -118q-51 18 -79 45.5t-38 81.5h-8q-164 -133 -340 -134 q-141 0 -232.5 83.5t-91.5 226.5zM217 1253l318 201l321 -201l-78 -102l-241 162l-244 -162zM268 297q0 -92 53.5 -144.5t139.5 -52.5q129 0 284 117v334q-68 0 -117.5 -3t-122.5 -16.5t-120 -39t-82 -75.5t-35 -120z" />
<glyph unicode="&#xe3;" horiz-adv-x="1083" d="M92 287q0 82 29 146.5t83 103t114.5 65.5t141.5 38t143.5 15t137.5 4v101q-4 84 -50 121t-140 37q-182 0 -367 -117l-63 125q231 127 446 127q184 0 268.5 -82t84.5 -266v-492q2 -82 67 -111l-106 -118q-51 18 -79 45.5t-38 81.5h-8q-164 -133 -340 -134 q-141 0 -232.5 83.5t-91.5 226.5zM186 1235q66 145 191 145q51 0 148.5 -41t133.5 -41q78 0 109 82l92 -67q-20 -70 -72.5 -108t-115.5 -38q-51 0 -148.5 41t-132.5 41q-82 0 -115 -84zM268 297q0 -92 53.5 -144.5t139.5 -52.5q129 0 284 117v334q-68 0 -117.5 -3 t-122.5 -16.5t-120 -39t-82 -75.5t-35 -120z" />
<glyph unicode="&#xe4;" horiz-adv-x="1083" d="M92 287q0 82 29 146.5t83 103t114.5 65.5t141.5 38t143.5 15t137.5 4v101q-4 84 -50 121t-140 37q-182 0 -367 -117l-63 125q231 127 446 127q184 0 268.5 -82t84.5 -266v-492q2 -82 67 -111l-106 -118q-51 18 -79 45.5t-38 81.5h-8q-164 -133 -340 -134 q-141 0 -232.5 83.5t-91.5 226.5zM248 1274q0 43 30.5 73.5t71.5 30.5q43 0 74 -30.5t31 -73.5q0 -41 -31 -72t-74 -31q-41 0 -71.5 31t-30.5 72zM268 297q0 -92 53.5 -144.5t139.5 -52.5q129 0 284 117v334q-68 0 -117.5 -3t-122.5 -16.5t-120 -39t-82 -75.5t-35 -120z M631 1274q0 43 30.5 73.5t73.5 30.5q41 0 72 -30.5t31 -73.5q0 -41 -31 -72t-72 -31q-43 0 -73.5 31t-30.5 72z" />
<glyph unicode="&#xe5;" horiz-adv-x="1083" d="M92 287q0 82 29 146.5t83 103t114.5 65.5t141.5 38t143.5 15t137.5 4v101q-4 84 -50 121t-140 37q-182 0 -367 -117l-63 125q231 127 446 127q184 0 268.5 -82t84.5 -266v-492q2 -82 67 -111l-106 -118q-51 18 -79 45.5t-38 81.5h-8q-164 -133 -340 -134 q-141 0 -232.5 83.5t-91.5 226.5zM268 297q0 -92 53.5 -144.5t139.5 -52.5q129 0 284 117v334q-68 0 -117.5 -3t-122.5 -16.5t-120 -39t-82 -75.5t-35 -120zM352 1333q0 82 56.5 136.5t140.5 54.5q82 0 138 -54.5t56 -136.5t-56 -136t-138 -54t-139.5 55t-57.5 135z M438 1333q0 -47 32 -78.5t79 -31.5t77.5 31.5t30.5 78.5t-30.5 79t-77.5 32t-79 -32t-32 -79z" />
<glyph unicode="&#xe6;" horiz-adv-x="1757" d="M92 287q0 203 169 287.5t480 84.5v52q0 109 -37.5 155.5t-146.5 46.5q-195 0 -373 -118l-63 131q233 127 444 127q254 0 305 -172q121 174 344 174q205 0 323 -138.5t118 -394.5q0 -39 -4 -67h-723q4 -160 83 -248t226 -88q166 0 301 104l66 -125q-170 -121 -369 -121 q-264 0 -391 181q-199 -180 -430 -181q-143 0 -232.5 82.5t-89.5 227.5zM268 295q0 -84 56.5 -140.5t136.5 -56.5q147 0 325 158q-43 88 -43 246v45q-242 0 -358.5 -61.5t-116.5 -190.5zM926 580h563q-10 338 -277 338q-127 0 -206.5 -90t-79.5 -248z" />
<glyph unicode="&#xe7;" horiz-adv-x="1013" d="M109 508q0 246 125.5 395.5t361.5 149.5q195 0 356 -129l-78 -125q-113 113 -272 112q-164 0 -237.5 -112.5t-73.5 -282.5q0 -111 26.5 -195.5t99 -143t185.5 -58.5q156 0 285 110l61 -125q-154 -119 -330 -127l-51 -94l2 -2q20 6 49 6q72 0 112 -37.5t40 -109.5 q0 -78 -54 -123t-148.5 -45t-170.5 47l29 72q72 -39 135 -39q104 0 105 84q0 82 -101 82q-41 0 -78 -15l-36 33l73 146q-203 18 -309 160.5t-106 365.5z" />
<glyph unicode="&#xe8;" horiz-adv-x="1112" d="M109 514q0 254 128 397.5t343 143.5q203 0 316.5 -142.5t113.5 -375.5q0 -57 -2 -80h-721q0 -162 78.5 -252t230.5 -90q158 0 305 106l64 -123q-168 -121 -375 -121q-233 0 -357 143.5t-124 393.5zM266 1380l180 82l277 -243l-100 -62zM287 578h557q0 147 -65.5 246.5 t-196.5 99.5q-156 0 -225.5 -101.5t-69.5 -244.5z" />
<glyph unicode="&#xe9;" horiz-adv-x="1112" d="M109 514q0 254 128 397.5t343 143.5q203 0 316.5 -142.5t113.5 -375.5q0 -57 -2 -80h-721q0 -162 78.5 -252t230.5 -90q158 0 305 106l64 -123q-168 -121 -375 -121q-233 0 -357 143.5t-124 393.5zM287 578h557q0 147 -65.5 246.5t-196.5 99.5q-156 0 -225.5 -101.5 t-69.5 -244.5zM451 1221l280 247l176 -86l-356 -225z" />
<glyph unicode="&#xea;" horiz-adv-x="1112" d="M109 514q0 254 128 397.5t343 143.5q203 0 316.5 -142.5t113.5 -375.5q0 -57 -2 -80h-721q0 -162 78.5 -252t230.5 -90q158 0 305 106l64 -123q-168 -121 -375 -121q-233 0 -357 143.5t-124 393.5zM258 1255l317 201l322 -201l-78 -102l-241 162l-244 -162zM287 578h557 q0 147 -65.5 246.5t-196.5 99.5q-156 0 -225.5 -101.5t-69.5 -244.5z" />
<glyph unicode="&#xeb;" horiz-adv-x="1112" d="M109 514q0 254 128 397.5t343 143.5q203 0 316.5 -142.5t113.5 -375.5q0 -57 -2 -80h-721q0 -162 78.5 -252t230.5 -90q158 0 305 106l64 -123q-168 -121 -375 -121q-233 0 -357 143.5t-124 393.5zM285 1274q0 43 30.5 73.5t71.5 30.5q43 0 74 -30.5t31 -73.5 q0 -41 -31 -72t-74 -31q-41 0 -71.5 31t-30.5 72zM287 578h557q0 147 -65.5 246.5t-196.5 99.5q-156 0 -225.5 -101.5t-69.5 -244.5zM668 1274q0 43 30.5 73.5t73.5 30.5q41 0 71.5 -30.5t30.5 -73.5q0 -41 -30.5 -72t-71.5 -31q-43 0 -73.5 31t-30.5 72z" />
<glyph unicode="&#xec;" horiz-adv-x="489" d="M-66 1380l181 82l276 -243l-100 -62zM156 0v1028h178v-1028h-178z" />
<glyph unicode="&#xed;" horiz-adv-x="489" d="M113 1221l280 247l176 -86l-356 -225zM156 0v1028h178v-1028h-178z" />
<glyph unicode="&#xee;" horiz-adv-x="489" d="M-68 1255l318 201l321 -201l-77 -102l-242 162l-244 -162zM156 0v1028h178v-1028h-178z" />
<glyph unicode="&#xef;" horiz-adv-x="489" d="M-45 1274q0 43 30.5 73.5t71.5 30.5q43 0 74 -30.5t31 -73.5q0 -41 -31 -72t-74 -31q-41 0 -71.5 31t-30.5 72zM156 0v1028h178v-1028h-178zM338 1274q0 43 30.5 73.5t73.5 30.5q41 0 72 -30.5t31 -73.5q0 -41 -31 -72t-72 -31q-43 0 -73.5 31t-30.5 72z" />
<glyph unicode="&#xf0;" horiz-adv-x="1202" d="M139 498q0 496 418 495q197 0 281 -129h8q-29 172 -129 332l-246 -123l-51 105l233 116q-55 70 -123 129l156 43q74 -70 107 -106l161 90l52 -107l-146 -81q90 -135 137 -332t47 -393q0 -262 -112.5 -409.5t-351.5 -147.5q-217 0 -329 142.5t-112 375.5zM319 498 q0 -381 275 -381q270 0 270 360q0 72 -4 122t-20.5 104.5t-46 87t-80.5 54t-123 21.5q-88 0 -144.5 -29.5t-83 -87t-35 -113.5t-8.5 -138z" />
<glyph unicode="&#xf1;" horiz-adv-x="1155" d="M156 0v1028h153l15 -129h8q100 154 311 154q203 0 279.5 -101.5t76.5 -308.5v-643h-178v602q0 156 -42 227.5t-181 71.5q-129 0 -196.5 -66.5t-67.5 -189.5v-645h-178zM248 1235q66 145 190 145q51 0 148.5 -41t134.5 -41q78 0 108 82l93 -67q-20 -70 -72.5 -108 t-116.5 -38q-51 0 -148.5 41t-131.5 41q-82 0 -115 -84z" />
<glyph unicode="&#xf2;" horiz-adv-x="1175" d="M109 512q0 242 116.5 391.5t360.5 149.5q238 0 359.5 -147.5t121.5 -393.5q0 -240 -121 -387.5t-360 -147.5q-238 0 -357.5 147.5t-119.5 387.5zM283 1380l180 82l276 -243l-100 -62zM291 514q0 -399 297 -399t297 399q0 397 -297 397t-297 -397z" />
<glyph unicode="&#xf3;" horiz-adv-x="1175" d="M109 512q0 242 116.5 391.5t360.5 149.5q238 0 359.5 -147.5t121.5 -393.5q0 -240 -121 -387.5t-360 -147.5q-238 0 -357.5 147.5t-119.5 387.5zM291 514q0 -399 297 -399t297 399q0 397 -297 397t-297 -397zM459 1221l280 247l176 -86l-356 -225z" />
<glyph unicode="&#xf4;" horiz-adv-x="1175" d="M109 512q0 242 116.5 391.5t360.5 149.5q238 0 359.5 -147.5t121.5 -393.5q0 -240 -121 -387.5t-360 -147.5q-238 0 -357.5 147.5t-119.5 387.5zM270 1255l318 201l321 -201l-78 -102l-241 162l-244 -162zM291 514q0 -399 297 -399t297 399q0 397 -297 397t-297 -397z " />
<glyph unicode="&#xf5;" horiz-adv-x="1175" d="M109 512q0 242 116.5 391.5t360.5 149.5q238 0 359.5 -147.5t121.5 -393.5q0 -240 -121 -387.5t-360 -147.5q-238 0 -357.5 147.5t-119.5 387.5zM254 1235q66 145 190 145q51 0 148.5 -41t134.5 -41q78 0 109 82l92 -67q-20 -70 -72.5 -108t-116.5 -38q-51 0 -148 41 t-132 41q-82 0 -115 -84zM291 514q0 -399 297 -399t297 399q0 397 -297 397t-297 -397z" />
<glyph unicode="&#xf6;" horiz-adv-x="1175" d="M109 512q0 242 116.5 391.5t360.5 149.5q238 0 359.5 -147.5t121.5 -393.5q0 -240 -121 -387.5t-360 -147.5q-238 0 -357.5 147.5t-119.5 387.5zM291 514q0 -399 297 -399t297 399q0 397 -297 397t-297 -397zM297 1274q0 43 30.5 73.5t71.5 30.5q43 0 74 -30.5t31 -73.5 q0 -41 -31 -72t-74 -31q-41 0 -71.5 31t-30.5 72zM680 1274q0 43 30.5 73.5t73.5 30.5q41 0 72 -30.5t31 -73.5q0 -41 -31 -72t-72 -31q-43 0 -73.5 31t-30.5 72z" />
<glyph unicode="&#xf7;" d="M104 459v155h967v-155h-967zM479 199q0 47 33 78.5t80 31.5t78.5 -31.5t31.5 -78.5t-32.5 -80t-77.5 -33q-47 0 -80 33t-33 80zM479 881q0 47 33 78.5t80 31.5t78.5 -32.5t31.5 -77.5q0 -47 -32.5 -80t-77.5 -33q-47 0 -80 33t-33 80z" />
<glyph unicode="&#xf8;" horiz-adv-x="1175" d="M84 45l109 129q-84 131 -84 338q0 242 116.5 391.5t360.5 149.5q168 0 282 -80l109 129l92 -80l-113 -133q111 -141 111 -377q0 -240 -121 -387.5t-360 -147.5q-197 0 -316 103l-100 -117zM291 514q0 -117 24 -197l453 539q-68 55 -180 55q-297 0 -297 -397zM373 203 q76 -88 215 -88q297 0 297 399q0 145 -41 242z" />
<glyph unicode="&#xf9;" horiz-adv-x="1136" d="M156 393v635h178v-543q0 -195 40 -276.5t177 -81.5t194.5 69.5t57.5 200.5v631h178v-1028h-150l-16 129h-6q-90 -152 -309 -152q-176 0 -260 89t-84 327zM225 1380l181 82l276 -243l-100 -62z" />
<glyph unicode="&#xfa;" horiz-adv-x="1136" d="M156 393v635h178v-543q0 -195 40 -276.5t177 -81.5t194.5 69.5t57.5 200.5v631h178v-1028h-150l-16 129h-6q-90 -152 -309 -152q-176 0 -260 89t-84 327zM446 1221l281 247l176 -86l-356 -225z" />
<glyph unicode="&#xfb;" horiz-adv-x="1136" d="M156 393v635h178v-543q0 -195 40 -276.5t177 -81.5t194.5 69.5t57.5 200.5v631h178v-1028h-150l-16 129h-6q-90 -152 -309 -152q-176 0 -260 89t-84 327zM256 1255l317 201l322 -201l-78 -102l-242 162l-243 -162z" />
<glyph unicode="&#xfc;" horiz-adv-x="1136" d="M156 393v635h178v-543q0 -195 40 -276.5t177 -81.5t194.5 69.5t57.5 200.5v631h178v-1028h-150l-16 129h-6q-90 -152 -309 -152q-176 0 -260 89t-84 327zM285 1274q0 43 30.5 73.5t71.5 30.5q43 0 74 -30.5t31 -73.5q0 -41 -31 -72t-74 -31q-41 0 -71.5 31t-30.5 72z M668 1274q0 43 30.5 73.5t73.5 30.5q41 0 71.5 -30.5t30.5 -73.5q0 -41 -30.5 -72t-71.5 -31q-43 0 -73.5 31t-30.5 72z" />
<glyph unicode="&#xfd;" horiz-adv-x="1013" d="M37 1028h192l285 -801h8l264 801h191l-432 -1161q-74 -199 -140.5 -264.5t-203.5 -65.5q-43 0 -111 6v152q33 -6 90 -6q76 0 112 40t83 173l49 135zM408 1221l280 247l176 -86l-356 -225z" />
<glyph unicode="&#xfe;" horiz-adv-x="1155" d="M156 -451v1885h166v-527h4q104 145 305 146q219 0 317.5 -146.5t98.5 -390.5q0 -238 -108 -387t-321 -149q-178 0 -282 147l-4 2v-580h-176zM334 414q0 -137 66.5 -217t189.5 -80q274 0 274 399q0 92 -10 156.5t-38 123t-84 88t-140 29.5q-123 0 -190.5 -62.5 t-67.5 -182.5v-254z" />
<glyph unicode="&#xff;" horiz-adv-x="1013" d="M37 1028h192l285 -801h8l264 801h191l-432 -1161q-74 -199 -140.5 -264.5t-203.5 -65.5q-43 0 -111 6v152q33 -6 90 -6q76 0 112 40t83 173l49 135zM227 1274q0 43 31 73.5t72 30.5q43 0 73.5 -30.5t30.5 -73.5q0 -41 -30.5 -72t-73.5 -31q-41 0 -72 31t-31 72zM610 1274 q0 43 31 73.5t74 30.5q41 0 71.5 -30.5t30.5 -73.5q0 -41 -30.5 -72t-71.5 -31q-43 0 -74 31t-31 72z" />
<glyph unicode="&#x152;" horiz-adv-x="1830" d="M133 684q0 317 150.5 511t461.5 194q125 0 222 -23h764v-158h-578v-407h518v-160h-518v-485h600v-156h-786q-113 -23 -222 -23q-313 0 -462.5 191.5t-149.5 515.5zM328 682q0 -553 424 -553q121 0 215 33v1040q-90 35 -215 35q-424 0 -424 -555z" />
<glyph unicode="&#x153;" horiz-adv-x="1898" d="M109 514q0 254 122.5 396.5t356.5 142.5q281 0 389 -224q123 225 379 226q205 0 322.5 -141.5t117.5 -391.5q0 -6 -1 -28.5t-1 -36.5h-727q4 -164 84 -251t229 -87q152 0 299 106l64 -127q-168 -121 -367 -121q-272 0 -395 224q-115 -223 -393 -224q-229 0 -354 138.5 t-125 398.5zM291 514q0 -395 297 -395q295 0 295 395q0 391 -295 391q-297 0 -297 -391zM1067 580h563q-2 66 -16.5 122t-44 106t-83.5 80t-128 30q-131 0 -210 -90t-81 -248z" />
<glyph unicode="&#x178;" horiz-adv-x="1171" d="M27 1366h211l350 -659l352 659h205l-465 -823v-543h-186v537zM297 1561q0 43 30.5 73.5t71.5 30.5q43 0 74 -30.5t31 -73.5q0 -41 -31 -72t-74 -31q-41 0 -71.5 31t-30.5 72zM680 1561q0 43 30.5 73.5t73.5 30.5q41 0 72 -30.5t31 -73.5q0 -41 -31 -72t-72 -31 q-43 0 -73.5 31t-30.5 72z" />
<glyph unicode="&#x2c6;" horiz-adv-x="733" d="M47 1255l318 201l321 -201l-78 -102l-241 162l-244 -162z" />
<glyph unicode="&#x2dc;" horiz-adv-x="733" d="M31 1235q66 145 190 145q51 0 148.5 -41t134.5 -41q78 0 108 82l93 -67q-20 -70 -72.5 -108t-116.5 -38q-51 0 -148.5 41t-131.5 41q-82 0 -115 -84z" />
<glyph unicode="&#x2000;" horiz-adv-x="878" />
<glyph unicode="&#x2001;" horiz-adv-x="1759" />
<glyph unicode="&#x2002;" horiz-adv-x="878" />
<glyph unicode="&#x2003;" horiz-adv-x="1759" />
<glyph unicode="&#x2004;" horiz-adv-x="585" />
<glyph unicode="&#x2005;" horiz-adv-x="438" />
<glyph unicode="&#x2006;" horiz-adv-x="292" />
<glyph unicode="&#x2007;" horiz-adv-x="292" />
<glyph unicode="&#x2008;" horiz-adv-x="219" />
<glyph unicode="&#x2009;" horiz-adv-x="350" />
<glyph unicode="&#x200a;" horiz-adv-x="96" />
<glyph unicode="&#x2010;" horiz-adv-x="770" d="M106 449v165h558v-165h-558z" />
<glyph unicode="&#x2011;" horiz-adv-x="770" d="M106 449v165h558v-165h-558z" />
<glyph unicode="&#x2012;" horiz-adv-x="770" d="M106 449v165h558v-165h-558z" />
<glyph unicode="&#x2013;" horiz-adv-x="1224" d="M100 463v139h1024v-139h-1024z" />
<glyph unicode="&#x2014;" horiz-adv-x="1785" d="M100 465v135h1586v-135h-1586z" />
<glyph unicode="&#x2018;" horiz-adv-x="440" d="M39 1006l174 428h129l-84 -428h-219z" />
<glyph unicode="&#x2019;" horiz-adv-x="440" d="M98 1006l84 428h219l-176 -428h-127z" />
<glyph unicode="&#x201a;" horiz-adv-x="440" d="M98 -313l84 428h219l-176 -428h-127z" />
<glyph unicode="&#x201c;" horiz-adv-x="825" d="M39 1006l176 428h127l-84 -428h-219zM426 1006l174 428h127l-84 -428h-217z" />
<glyph unicode="&#x201d;" horiz-adv-x="825" d="M98 1006l84 428h219l-176 -428h-127zM483 1006l84 428h219l-176 -428h-127z" />
<glyph unicode="&#x201e;" horiz-adv-x="825" d="M98 -315l84 430h219l-176 -430h-127zM483 -315l84 430h219l-176 -430h-127z" />
<glyph unicode="&#x2022;" horiz-adv-x="1067" d="M219 674q0 131 91 222t222.5 91t223.5 -91t92 -222t-92 -222.5t-223.5 -91.5t-222.5 91.5t-91 222.5z" />
<glyph unicode="&#x2026;" horiz-adv-x="1435" d="M96 88q0 49 34 79t87 30q55 0 88 -30t33 -79t-33 -78.5t-88 -29.5q-53 0 -87 29.5t-34 78.5zM596 88q0 49 34 79t87 30q55 0 89 -30t34 -79t-34 -78.5t-87 -29.5q-55 0 -89 29.5t-34 78.5zM1098 88q0 49 32.5 79t88 30t88 -30t32.5 -79t-33.5 -78.5t-87 -29.5t-87 29.5 t-33.5 78.5z" />
<glyph unicode="&#x202f;" horiz-adv-x="350" />
<glyph unicode="&#x2039;" horiz-adv-x="538" d="M39 627l287 401l123 -67l-248 -336l248 -330l-123 -70z" />
<glyph unicode="&#x203a;" horiz-adv-x="538" d="M92 295l246 330l-246 336l123 67l285 -401l-285 -402z" />
<glyph unicode="&#x205f;" horiz-adv-x="438" />
<glyph unicode="&#x20ac;" d="M43 477l2 109h143q-4 53 -4 100q0 57 4 90h-145l2 109h152q14 117 41.5 199.5t79 155.5t140.5 111t214 38q129 0 228 -49.5t194 -155.5l-111 -111q-121 164 -305 164q-150 0 -215.5 -81t-85.5 -271h545v-109h-549q-2 -31 -2 -90q0 -74 2 -100h549v-109h-541q6 -57 12 -92 t26.5 -90t49.5 -87t82 -56.5t125 -24.5q109 0 183.5 48t146.5 147l104 -113q-92 -115 -195.5 -174.5t-244.5 -59.5q-231 0 -335 125t-138 377h-154z" />
<glyph unicode="&#x2122;" horiz-adv-x="1306" d="M96 1343v91h430v-91h-161v-389h-107v389h-162zM637 954v480h92l174 -252l172 252h94v-480h-102v299l-164 -233l-166 233v-299h-100z" />
<glyph unicode="&#xe000;" horiz-adv-x="1030" d="M0 1030h1030v-1030h-1030v1030z" />
<glyph unicode="&#xfb01;" horiz-adv-x="1142" d="M786 1282q0 45 31 73.5t80 28.5q51 0 81.5 -27.5t30.5 -74.5q0 -45 -30.5 -72.5t-81.5 -27.5q-49 0 -80 27.5t-31 72.5zM809 0v1028h178v-1028h-178zM55 883v145h158v152q0 147 56.5 205.5t228.5 58.5q55 0 127 -10v-136q-51 10 -97 11q-90 0 -115.5 -27t-25.5 -113v-141 h221v-143h-215v-885h-180v883h-158z" />
<glyph unicode="&#xfb02;" horiz-adv-x="1210" d="M809 199v1235h178v-1190q0 -70 20.5 -86.5t81.5 -16.5h64v-141q-51 -10 -138 -10q-113 0 -159.5 46t-46.5 163zM55 883v145h158v152q0 147 56.5 205.5t228.5 58.5q55 0 127 -10v-136q-51 10 -97 11q-90 0 -115.5 -27t-25.5 -113v-141h221v-143h-215v-885h-180v883h-158z " />
<glyph unicode="&#xfb03;" horiz-adv-x="1796" d="M1440 1282q0 45 31 73.5t80 28.5q51 0 81.5 -27.5t30.5 -74.5q0 -45 -30.5 -72.5t-81.5 -27.5q-49 0 -80 27.5t-31 72.5zM1463 0v1028h178v-1028h-178zM708 883v145h158v152q0 147 56.5 205.5t228.5 58.5q55 0 127 -10v-136q-51 10 -97 11q-90 0 -115.5 -27t-25.5 -113 v-141h221v-143h-215v-885h-180v883h-158zM55 883v145h158v152q0 147 56.5 205.5t228.5 58.5q55 0 127 -10v-136q-51 10 -97 11q-90 0 -115.5 -27t-25.5 -113v-141h221v-143h-215v-885h-180v883h-158z" />
<glyph unicode="&#xfb04;" horiz-adv-x="1863" d="M1463 199v1235h178v-1190q0 -70 20.5 -86.5t81.5 -16.5h64v-141q-51 -10 -138 -10q-113 0 -159.5 46t-46.5 163zM708 883v145h158v152q0 147 56.5 205.5t228.5 58.5q55 0 127 -10v-136q-51 10 -97 11q-90 0 -115.5 -27t-25.5 -113v-141h221v-143h-215v-885h-180v883h-158 zM55 883v145h158v152q0 147 56.5 205.5t228.5 58.5q55 0 127 -10v-136q-51 10 -97 11q-90 0 -115.5 -27t-25.5 -113v-141h221v-143h-215v-885h-180v883h-158z" />
</font>
</defs>
</svg>
