<?xml version="1.0" standalone="no"?>
<!DOCTYPE svg PUBLIC "-//W3C//DTD SVG 1.1//EN" "http://www.w3.org/Graphics/SVG/1.1/DTD/svg11.dtd" >
<svg xmlns="http://www.w3.org/2000/svg">
<metadata>
This is a custom SVG webfont generated by Font Squirrel.
Copyright   : Copyright c Terminal Design Inc 2005 All rights reserved
Designer    : James Montalbano
Foundry     : Terminal Design Inc
Foundry URL : wwwterminaldesigncom
</metadata>
<defs>
<font id="ClearviewATTBookItalic" horiz-adv-x="1177" >
<font-face units-per-em="2048" ascent="1536" descent="-512" />
<missing-glyph horiz-adv-x="675" />
<glyph unicode=" "  horiz-adv-x="675" />
<glyph unicode="&#x09;" horiz-adv-x="675" />
<glyph unicode="&#xa0;" horiz-adv-x="675" />
<glyph unicode="!" horiz-adv-x="575" d="M168 76q0 59 44 95t105 36q47 0 81 -24.5t34 -69.5q0 -59 -43 -97.5t-104 -38.5q-49 0 -83 26t-34 73zM268 371q39 332 109 995h207q-98 -553 -170 -995h-146z" />
<glyph unicode="&#x22;" horiz-adv-x="854" d="M301 1014l23 420h200l-102 -420h-121zM686 1014l23 420h200l-102 -420h-121z" />
<glyph unicode="#" horiz-adv-x="1275" d="M150 526l34 133h246l82 295h-246l35 131h248l80 281h143l-80 -281h289l80 281h143l-84 -281h234l-39 -131h-232l-84 -295h242l-37 -133h-243l-82 -295h-146l84 295h-282l-86 -295h-140l84 295h-243zM571 659h287l84 295h-289z" />
<glyph unicode="$" d="M168 188l98 136q172 -127 346 -127q125 0 213 55t88 172q0 72 -61 125t-149.5 89t-176.5 75t-149.5 105.5t-61.5 158.5q0 154 108.5 248t266.5 102l21 154h172l-21 -154q147 -6 289 -96l-86 -139q-141 100 -307 100q-111 0 -186.5 -43t-75.5 -145q0 -57 61 -101.5 t149.5 -79.5t175.5 -75.5t148.5 -112.5t61.5 -168q0 -170 -118 -281.5t-292 -122.5l-23 -159h-172l23 159q-168 6 -342 125z" />
<glyph unicode="%" horiz-adv-x="1513" d="M240 983q0 86 16 161t51 142.5t100.5 107.5t155.5 40q227 0 228 -246q0 -86 -16.5 -161t-52.5 -142.5t-101.5 -106.5t-155.5 -39q-225 0 -225 244zM252 0l1079 1434h113l-1077 -1434h-115zM365 983q0 -145 114 -145q57 0 97 36.5t57.5 97t25 113t7.5 107.5 q0 141 -117 141q-184 0 -184 -350zM920 233q0 84 16 159t52 142.5t101.5 107.5t153.5 40q227 0 227 -246q0 -117 -26.5 -212t-103 -165.5t-193.5 -70.5q-227 -1 -227 245zM1044 231q0 -145 115 -145q57 0 97 37t57.5 96.5t25 111.5t7.5 107q0 143 -117 144 q-185 -1 -185 -351z" />
<glyph unicode="&#x26;" horiz-adv-x="1275" d="M176 311q0 162 92 271.5t256 193.5q-123 160 -123 281q0 152 118 243t274 91q127 0 203.5 -63.5t76.5 -186.5q0 -57 -23.5 -108.5t-51 -85.5t-86 -76t-89 -59t-100.5 -56l262 -447q53 102 53 283q0 29 -4 86h162q2 -20 2 -60q0 -268 -125 -413l127 -205h-194l-60 96 q-156 -119 -356 -119q-180 0 -297 81t-117 253zM348 344q0 -115 72 -174t188 -59q158 0 260 92l-288 477q-232 -148 -232 -336zM563 1081q0 -90 109 -243q53 33 86 56.5t76 62t63.5 83.5t20.5 97q0 135 -140 135q-96 0 -155.5 -52.5t-59.5 -138.5z" />
<glyph unicode="'" horiz-adv-x="446" d="M301 1014l23 420h200l-102 -420h-121z" />
<glyph unicode="(" horiz-adv-x="612" d="M172 412q0 561 418 1169l119 -29q-360 -592 -361 -1173q0 -315 107 -631l-127 -31q-156 373 -156 695z" />
<glyph unicode=")" horiz-adv-x="612" d="M84 -252q362 594 362 1180q0 311 -108 624l127 29q156 -393 156 -694q0 -580 -418 -1170z" />
<glyph unicode="*" horiz-adv-x="688" d="M217 1147l70 141l162 -80l-7 187h162l-51 -185l182 80l31 -141l-195 -35l115 -133l-135 -90l-70 168l-116 -166l-111 88l152 137z" />
<glyph unicode="+" d="M168 459l22 155h410l57 408h158l-57 -408h399l-22 -155h-400l-59 -426h-158l60 426h-410z" />
<glyph unicode="," horiz-adv-x="430" d="M20 -244l142 443h215l-234 -443h-123z" />
<glyph unicode="-" horiz-adv-x="770" d="M168 449l25 165h557l-25 -165h-557z" />
<glyph unicode="." horiz-adv-x="430" d="M96 76q0 59 43 95t105 36q47 0 80.5 -24.5t33.5 -69.5q0 -59 -43 -97.5t-104 -38.5q-49 0 -82 25t-33 74z" />
<glyph unicode="/" horiz-adv-x="1048" d="M6 -236l1047 1670h168l-1049 -1670h-166z" />
<glyph unicode="0" d="M182 434q0 113 21 250q16 119 38.5 211t66.5 188.5t103.5 160t155 104.5t217.5 41q215 0 307.5 -117t92.5 -338q0 -113 -21 -250q-16 -119 -37.5 -210t-65.5 -189.5t-103.5 -162t-154.5 -105.5t-216 -42q-217 0 -310.5 118t-93.5 341zM365 424q0 -143 52 -220t189 -77 q61 0 112.5 20.5t85.5 48t63.5 81t45 91.5t30.5 107.5t20.5 103t15.5 105.5q23 154 22 254q0 141 -52 220t-187 79q-63 0 -114.5 -20.5t-86.5 -46t-63.5 -79t-44 -89t-30.5 -107.5t-20.5 -104.5t-15.5 -106.5q-22 -158 -22 -260z" />
<glyph unicode="1" d="M193 0l20 156h338l141 1009h-8l-332 -184l-55 137l455 252h151l-172 -1214h326l-21 -156h-843z" />
<glyph unicode="2" d="M162 166q76 59 211 161.5t199.5 151.5t155.5 131t133 139.5t74 133t32 151.5q0 86 -47.5 143.5t-153.5 57.5q-174 0 -371 -186l-80 131q127 113 239 161t245 48q166 0 260 -84t94 -240q0 -76 -27.5 -155t-62.5 -140t-107.5 -138t-121 -123t-147.5 -120t-143 -104.5 t-149 -102.5l-39 -26h703l-21 -156h-870z" />
<glyph unicode="3" d="M152 117l102 135q143 -127 321 -127q158 0 248 86t90 244q0 59 -20.5 97t-61 55.5t-83.5 23.5t-107 6h-133l20 149q88 0 151.5 8.5t135.5 33t111 82t39 145.5q0 180 -230 180q-168 0 -340 -129l-61 139q225 143 444 144q162 0 268.5 -74t106.5 -230q0 -272 -246 -358v-8 q193 -39 193 -248q0 -236 -149.5 -366t-389.5 -130q-237 1 -409 142z" />
<glyph unicode="4" d="M156 446l729 916h200l-129 -913h187l-21 -156h-186l-41 -293h-184l41 293h-568zM342 449h440l101 706h-9z" />
<glyph unicode="5" d="M158 104l96 142q147 -121 305 -121q186 0 276.5 115.5t90.5 310.5q0 236 -250 235q-158 0 -303 -124l-127 96l190 608h725l-20 -156h-582l-127 -381l6 -6q150 111 305 111q369 0 369 -352q0 -285 -144.5 -446t-420.5 -161q-231 0 -389 129z" />
<glyph unicode="6" d="M180 408q0 82 15 192q18 129 42.5 230.5t73.5 211t115 181t171 119t239 47.5q182 0 319 -93l-96 -139q-109 78 -244 78q-109 0 -188.5 -44t-126.5 -126t-73 -164t-42 -192h8q125 176 357 176q176 0 279.5 -91.5t103.5 -263.5q0 -240 -151 -397.5t-388 -157.5 q-215 0 -314.5 109t-99.5 324zM356 367q0 -119 69 -179.5t189 -60.5q162 0 247 107.5t85 273.5q0 225 -246 225q-156 0 -250 -103t-94 -263z" />
<glyph unicode="7" d="M303 1210l21 156h880l8 -154q-289 -219 -398 -438t-167 -641l-18 -133h-191l8 61q25 172 53.5 302.5t87 296t161 304t243.5 238.5v8h-688z" />
<glyph unicode="8" d="M160 307q0 319 278 420l2 8q-154 63 -153 238q0 211 138 313.5t357 102.5q393 0 394 -287q0 -276 -238 -367l-2 -8q186 -61 186 -264q0 -240 -146.5 -364t-389.5 -124q-426 0 -426 332zM346 317q0 -113 68.5 -154.5t189.5 -41.5q334 0 334 336q0 113 -68.5 156.5 t-189.5 43.5q-334 0 -334 -340zM467 973q0 -178 231 -178q137 0 216 69.5t79 206.5q0 170 -231 170q-295 0 -295 -268z" />
<glyph unicode="9" d="M190 98l109 125q115 -98 260 -98q92 0 164 35t114 84t73.5 130t46 147.5t28.5 160.5h-8q-125 -201 -352 -201q-178 0 -285 95.5t-107 271.5q0 236 153 388.5t388 152.5q217 0 311.5 -118t94.5 -341q0 -102 -17 -217q-18 -127 -42.5 -224.5t-72 -198t-113 -166 t-166.5 -106.5t-230 -41q-214 0 -349 121zM420 870q0 -115 66.5 -175t183.5 -60q156 0 241.5 102.5t85.5 261.5q0 115 -63.5 176.5t-179.5 61.5q-154 0 -244 -105.5t-90 -261.5z" />
<glyph unicode=":" horiz-adv-x="430" d="M100 76q0 59 42 95t104 36q49 0 80.5 -23.5t31.5 -70.5q0 -59 -43 -97.5t-102 -38.5q-49 0 -81 26t-32 73zM205 811q0 57 42 93t101 36q49 0 81 -23.5t32 -70.5q0 -59 -42 -97t-104 -38q-47 0 -78.5 26.5t-31.5 73.5z" />
<glyph unicode=";" horiz-adv-x="430" d="M20 -244l140 443h209l-226 -443h-123zM221 807q0 59 42 95t104 36q49 0 80.5 -22.5t31.5 -69.5q0 -59 -42 -98t-103 -39q-49 0 -81 25.5t-32 72.5z" />
<glyph unicode="&#x3c;" d="M168 457l22 157l1029 441l-23 -162l-846 -356l746 -349l-21 -157z" />
<glyph unicode="=" d="M143 270l23 154h964l-22 -154h-965zM197 653l22 154h965l-23 -154h-964z" />
<glyph unicode="&#x3e;" d="M109 31l20 157l846 349l-746 356l23 162l905 -441l-22 -157z" />
<glyph unicode="?" horiz-adv-x="1054" d="M272 1249q225 139 449 140q162 0 267.5 -73t105.5 -229q0 -82 -23.5 -148.5t-54.5 -107t-94.5 -82.5t-108.5 -63.5t-133 -60.5q-68 -29 -85 -51.5t-26 -94.5l-16 -127h-176l22 162q14 96 44 134t120 77q16 6 69.5 28.5t73 33t61.5 33t60.5 42t42 50t32.5 66.5t9 81 q0 94 -66.5 136t-166.5 42q-168 0 -336 -121zM297 74q0 59 41 94t100 35q49 0 81 -23.5t32 -70.5q0 -57 -41 -94.5t-100 -37.5q-47 0 -80 25t-33 72z" />
<glyph unicode="@" horiz-adv-x="1644" d="M184 348q0 365 248 607.5t615 242.5q244 0 403.5 -127t159.5 -364q0 -129 -48.5 -262.5t-151.5 -233.5t-239 -100q-57 0 -95 33.5t-38 91.5h-10q-111 -131 -278 -132q-111 0 -167.5 62.5t-56.5 175.5q0 195 122 357.5t310 162.5q121 0 172 -90h9l22 74h150 q-156 -545 -156 -578q0 -59 64 -59q43 0 96 37q154 102 192 362q6 43 6 86q0 203 -133 309.5t-342 106.5q-328 0 -540.5 -219t-212.5 -547q0 -231 136 -354t370 -123q242 0 434 121l39 -76q-205 -131 -500 -131q-270 0 -425 149.5t-155 417.5zM670 358q0 -143 141 -143 q90 0 152.5 58.5t87.5 150.5q2 8 18 62.5t23.5 88t7.5 66.5q0 109 -139 109q-92 0 -161 -63.5t-99.5 -151t-30.5 -177.5z" />
<glyph unicode="A" horiz-adv-x="1314" d="M45 0l696 1374h209l320 -1374h-201l-72 330h-596l-163 -330h-193zM469 483h500l-148 709h-8z" />
<glyph unicode="B" horiz-adv-x="1302" d="M176 0l191 1358q201 25 434 24q76 0 133 -5t124.5 -22.5t110.5 -47t73 -86t30 -131.5q0 -131 -65.5 -229.5t-196.5 -139.5l-2 -8q109 -20 168 -92t59 -187q0 -209 -133 -321.5t-361 -112.5h-565zM379 143q92 -4 264 -4q92 0 155.5 9.5t126 38t95.5 91t33 158.5 q0 57 -22.5 96t-52.5 59.5t-83 32t-91 13.5t-99 2q-174 0 -256 -2zM471 778q78 -2 258 -2q80 0 138.5 10.5t111.5 39t80.5 86t27.5 143.5q0 102 -77.5 141t-227.5 39q-131 0 -250 -12z" />
<glyph unicode="C" horiz-adv-x="1294" d="M217 520q0 170 46 323.5t134 276.5t230.5 196t320.5 73q254 0 441 -189l-132 -123q-141 154 -325 154q-137 0 -240.5 -61.5t-162 -164t-87 -220t-28.5 -246.5q0 -188 87 -297t271 -109q205 0 397 164l82 -127q-242 -193 -508 -193q-260 0 -393 141.5t-133 401.5z" />
<glyph unicode="D" horiz-adv-x="1370" d="M176 0l191 1358q236 25 415 24q266 0 413.5 -138t147.5 -402q0 -367 -196.5 -604.5t-554.5 -237.5h-416zM383 154q66 -2 197 -2q260 0 391 137t168 405q10 76 10 135q0 403 -383 404q-78 0 -234 -12z" />
<glyph unicode="E" horiz-adv-x="1093" d="M176 0l191 1366h815l-23 -158h-629l-57 -407h569l-22 -160h-569l-68 -485h653l-20 -156h-840z" />
<glyph unicode="F" horiz-adv-x="1044" d="M176 0l191 1366h800l-22 -158h-615l-57 -415h555l-22 -160h-555l-89 -633h-186z" />
<glyph unicode="G" horiz-adv-x="1429" d="M217 535q0 162 48 312t137.5 272t231.5 196t318 74q250 0 432 -179l-129 -125q-145 145 -319 146q-137 0 -242.5 -61.5t-166 -165t-89 -223t-28.5 -251.5q0 -408 364 -407q176 0 282.5 95t135.5 263l14 86h-364l22 154h533l-21 -152q-84 -590 -631 -589 q-262 0 -395 150.5t-133 404.5z" />
<glyph unicode="H" horiz-adv-x="1355" d="M176 0l191 1366h186l-76 -549h631l76 549h186l-190 -1366h-187l90 643h-630l-91 -643h-186z" />
<glyph unicode="I" horiz-adv-x="538" d="M176 0l191 1366h186l-191 -1366h-186z" />
<glyph unicode="J" horiz-adv-x="917" d="M92 78l101 143q88 -86 198 -86q94 0 144.5 51.5t66.5 161.5l143 1018h187l-141 -1004q-55 -387 -404 -387q-176 1 -295 103z" />
<glyph unicode="K" horiz-adv-x="1185" d="M176 0l191 1366h186l-90 -645h8l596 645h233l-548 -580l397 -786h-231l-322 657l-164 -161l-70 -496h-186z" />
<glyph unicode="L" horiz-adv-x="1019" d="M176 0l191 1366h186l-170 -1206h575l-20 -160h-762z" />
<glyph unicode="M" horiz-adv-x="1570" d="M176 0l191 1366h172l342 -676l530 676h174l-190 -1366h-181l148 1061h-8l-514 -655l-328 651h-8l-148 -1057h-180z" />
<glyph unicode="N" horiz-adv-x="1435" d="M176 0l191 1366h184l563 -1051h8l148 1051h180l-190 -1366h-175l-571 1065h-8l-150 -1065h-180z" />
<glyph unicode="O" horiz-adv-x="1527" d="M215 528q0 233 81 425t254 314t408 122q262 0 402.5 -142.5t140.5 -404.5q0 -236 -80 -428.5t-252 -314.5t-409 -122q-264 0 -404.5 143.5t-140.5 407.5zM412 535q0 -406 368 -406q141 0 247 61.5t165 167t87 225t28 253.5q0 401 -371 401q-141 0 -246.5 -61.5t-164 -165 t-86 -223t-27.5 -252.5z" />
<glyph unicode="P" horiz-adv-x="1232" d="M176 0l191 1358q227 25 430 24q469 0 469 -340q0 -240 -130 -381t-380 -141h-322l-72 -520h-186zM455 670h266q176 0 265 79.5t89 268.5q0 119 -71.5 166t-227.5 47q-121 0 -244 -14z" />
<glyph unicode="Q" horiz-adv-x="1527" d="M215 524q0 176 47 330t136 274.5t233.5 190.5t326.5 70q264 0 403.5 -137.5t139.5 -401.5q0 -246 -92 -457t-287 -315v-8q41 -12 109.5 -60.5t136.5 -62.5l-78 -140q-88 10 -215 93.5t-180 83.5q-12 0 -56 -3.5t-71 -3.5q-268 0 -410.5 139.5t-142.5 407.5zM412 532 q0 -401 368 -401q143 0 249 61.5t164 167t86 226.5t28 256q0 393 -371 393q-143 0 -248.5 -60.5t-164 -165t-85 -223.5t-26.5 -254z" />
<glyph unicode="R" horiz-adv-x="1236" d="M176 0l191 1360q201 23 411 22q465 0 465 -323q0 -152 -72.5 -269.5t-214.5 -160.5v-8q33 -16 52 -86l129 -535h-197l-111 492q-8 45 -32.5 62t-71.5 17h-283l-80 -571h-186zM463 721h278q313 0 314 307q0 115 -78 160t-215 45q-115 0 -230 -14z" />
<glyph unicode="S" horiz-adv-x="1103" d="M90 127l107 139q166 -139 358 -139q133 0 221 64.5t88 193.5q0 66 -45 117t-112.5 81.5t-147.5 70.5t-147.5 79t-112.5 108.5t-45 159.5q0 197 138 291t347 94q215 0 396 -120l-91 -150q-147 119 -321 119q-117 0 -198 -47t-81 -154q0 -74 63.5 -127t153 -90t179.5 -80 t153.5 -124t63.5 -193q0 -217 -143.5 -330t-366.5 -113q-254 0 -457 150z" />
<glyph unicode="T" horiz-adv-x="1034" d="M207 1204l22 162h957l-23 -162h-385l-168 -1204h-186l168 1204h-385z" />
<glyph unicode="U" horiz-adv-x="1370" d="M238 377q0 70 12 153l117 836h186l-117 -836q-10 -72 -10 -122q0 -133 63.5 -204t212.5 -71q182 0 267.5 102.5t111.5 294.5l117 836h186l-116 -836q-41 -285 -181.5 -419t-406.5 -134q-229 0 -335.5 97.5t-106.5 302.5z" />
<glyph unicode="V" horiz-adv-x="1179" d="M236 1366h198l182 -1159h9l505 1159h195l-633 -1366h-207z" />
<glyph unicode="W" horiz-adv-x="1875" d="M252 1366h205l96 -1151h10l473 1151h189l149 -1151h8l424 1151h199l-547 -1366h-213l-153 1102h-9l-454 -1102h-228z" />
<glyph unicode="X" horiz-adv-x="1155" d="M35 0l534 709l-293 657h218l206 -516h9l362 516h215l-493 -672l327 -694h-217l-248 551h-8l-397 -551h-215z" />
<glyph unicode="Y" horiz-adv-x="1171" d="M217 1366h211l258 -659l444 659h205l-579 -823l-76 -543h-186l73 537z" />
<glyph unicode="Z" horiz-adv-x="1142" d="M94 0l21 154l868 1050h-690l22 162h906l-21 -152l-870 -1058h739l-20 -156h-955z" />
<glyph unicode="[" horiz-adv-x="634" d="M88 -213l250 1774h379l-17 -115h-215l-217 -1544h215l-16 -115h-379z" />
<glyph unicode="\" horiz-adv-x="1048" d="M236 1366h170l552 -1602h-167z" />
<glyph unicode="]" horiz-adv-x="634" d="M96 -213l17 115h211l217 1544h-211l16 115h373l-250 -1774h-373z" />
<glyph unicode="^" horiz-adv-x="749" d="M170 1169l393 215l336 -215l-111 -94l-245 158l-299 -158z" />
<glyph unicode="_" horiz-adv-x="991" d="M-57 -295l18 121h1022l-18 -121h-1022z" />
<glyph unicode="`" horiz-adv-x="733" d="M317 1380l193 82l242 -243l-109 -62z" />
<glyph unicode="a" horiz-adv-x="1155" d="M170 373q0 119 24.5 230.5t79 216t155.5 169t239 64.5q201 0 278 -144h8l35 119h154l-144 -1028h-149l10 158h-8q-119 -180 -336 -181q-182 0 -264 108t-82 288zM352 385q0 -274 228 -274q127 0 203.5 84t97.5 215l34 258q3 25 4 47q0 85 -49 135q-61 63 -182 63 q-100 0 -171 -49t-104.5 -133t-47 -167t-13.5 -179z" />
<glyph unicode="b" horiz-adv-x="1155" d="M156 0l200 1434h179l-76 -531h8q102 150 315 150q346 0 346 -389q0 -119 -26.5 -234t-81.5 -219.5t-155.5 -169t-231.5 -64.5q-233 0 -287 187h-8l-49 -164h-133zM385 344q0 -106 56.5 -169.5t164.5 -63.5q96 0 167 52t106.5 138t52 175t16.5 183q0 254 -227 254 q-121 0 -201 -63.5t-96 -181.5l-35 -258q-4 -23 -4 -66z" />
<glyph unicode="c" horiz-adv-x="1013" d="M170 397q0 274 153.5 465t419.5 191q193 0 338 -129l-96 -125q-98 113 -256 112q-127 0 -215 -77.5t-124 -185t-36 -232.5q0 -137 64.5 -217t199.5 -80q158 0 300 110l45 -125q-186 -127 -375 -127q-199 0 -308.5 109.5t-109.5 310.5z" />
<glyph unicode="d" horiz-adv-x="1155" d="M170 373q0 119 24.5 230.5t79 216t155.5 169t239 64.5q195 0 272 -144h8l74 525h178l-201 -1434h-149l10 158h-8q-119 -180 -336 -181q-182 0 -264 108t-82 288zM352 385q0 -274 228 -274q127 0 203.5 84t97.5 215l34 258q3 25 4 47q0 85 -49 135q-61 63 -182 63 q-100 0 -171 -49t-104.5 -133t-47 -167t-13.5 -179z" />
<glyph unicode="e" horiz-adv-x="1112" d="M172 393q0 172 58.5 318.5t187.5 245t309 98.5q176 0 270.5 -109.5t94.5 -296.5q0 -82 -21 -192h-721q-6 -43 -6 -80q0 -125 67.5 -193.5t198.5 -68.5q158 0 322 106l45 -123q-186 -121 -391 -121t-309.5 109.5t-104.5 306.5zM367 578h557q6 43 6 84q0 117 -53.5 189.5 t-165.5 72.5q-156 0 -240 -100.5t-104 -245.5z" />
<glyph unicode="f" horiz-adv-x="653" d="M178 883l21 145h157l21 152q20 145 85.5 204.5t237.5 59.5q53 0 125 -10l-18 -136q-51 10 -96 11q-90 0 -120 -27t-40 -113l-21 -141h222l-21 -143h-215l-123 -885h-180l123 883h-158z" />
<glyph unicode="g" horiz-adv-x="1155" d="M125 -358l74 139q168 -104 350 -105q125 0 181 45.5t75 172.5l39 268h-8q-66 -92 -138.5 -131t-173.5 -39q-184 0 -269 104.5t-85 284.5q0 119 24.5 229.5t79 214t155.5 166t239 62.5q211 0 286 -160h9l28 135h152l-156 -1116q-16 -121 -56 -200t-102.5 -114.5t-123 -48 t-146.5 -12.5q-256 1 -434 105zM354 401q0 -272 226 -272q127 0 204.5 83t98.5 214l32 240q4 28 5 52q0 83 -49 132q-62 63 -183 63q-96 0 -165.5 -46t-104.5 -124.5t-49.5 -162t-14.5 -179.5z" />
<glyph unicode="h" horiz-adv-x="1155" d="M156 0l200 1434h179l-76 -533h8q106 152 328 152q166 0 234.5 -70t68.5 -209q0 -55 -11 -133l-88 -641h-178l84 602q12 94 13 127q0 86 -42 129t-151 43q-129 0 -207 -65.5t-94 -190.5l-90 -645h-178z" />
<glyph unicode="i" horiz-adv-x="489" d="M156 0l143 1028h178l-143 -1028h-178zM309 1268q0 51 39 83.5t90 32.5q98 0 99 -81q0 -55 -36 -88t-91 -33q-43 0 -72 22.5t-29 63.5z" />
<glyph unicode="j" horiz-adv-x="501" d="M-203 -455l23 152q55 -6 110 -6q119 0 165 58t63 188l153 1091h178l-155 -1108q-27 -186 -121 -284.5t-279 -98.5q-78 0 -137 8zM322 1268q0 51 36.5 83.5t90.5 32.5q98 0 98 -84q0 -53 -36 -85.5t-91 -32.5q-41 0 -69.5 23.5t-28.5 62.5z" />
<glyph unicode="k" horiz-adv-x="1032" d="M156 0l200 1434h179l-127 -895h8l465 489h225l-408 -405l295 -623h-215l-225 506l-174 -174l-45 -332h-178z" />
<glyph unicode="l" horiz-adv-x="557" d="M178 137q0 39 4 62l174 1235h179l-168 -1190q-4 -25 -4 -43q0 -33 12 -43q18 -16 80 -17h63l-18 -141q-55 -10 -140 -10q-96 0 -139 33.5t-43 113.5z" />
<glyph unicode="m" horiz-adv-x="1722" d="M156 0l143 1028h154v-131h8q106 156 299 156q215 0 258 -164q121 164 336 164q164 0 237.5 -75t73.5 -218q0 -47 -10 -119l-88 -641h-178l86 623q10 66 10 108q0 84 -38 127t-132 43q-240 0 -273 -233l-92 -668h-178l88 631q8 74 8 100q0 86 -38.5 128t-139.5 42 q-102 0 -176 -69.5t-88 -169.5l-92 -662h-178z" />
<glyph unicode="n" horiz-adv-x="1155" d="M156 0l143 1028h150v-129h8q121 154 334 154q168 0 238.5 -71t70.5 -212q0 -51 -10 -127l-91 -643h-178l84 602q10 72 10 119q0 90 -42 135t-150 45q-129 0 -206 -66.5t-93 -189.5l-90 -645h-178z" />
<glyph unicode="o" horiz-adv-x="1175" d="M172 393q0 281 145.5 470.5t415.5 189.5q201 0 307.5 -112t106.5 -312q0 -276 -148.5 -464t-416.5 -188q-201 0 -305.5 108.5t-104.5 307.5zM354 395q0 -281 248 -280q100 0 174 47t113 125t57.5 164t18.5 180q0 281 -250 280q-100 0 -174 -46t-113 -124.5t-56.5 -165 t-17.5 -180.5z" />
<glyph unicode="p" horiz-adv-x="1155" d="M92 -451l207 1479h145v-131h9q121 156 325 156q350 0 350 -389q0 -125 -27.5 -241t-83.5 -219.5t-158.5 -165t-237.5 -61.5q-188 0 -261 160h-8l-82 -588h-178zM385 344q0 -106 54.5 -169.5t162.5 -63.5q96 0 167 51t107.5 135t54 174t17.5 188q0 254 -231 254 q-119 0 -197 -63.5t-96 -183.5l-35 -254q-4 -23 -4 -68z" />
<glyph unicode="q" horiz-adv-x="1155" d="M170 377q0 121 25.5 232.5t80 215t155.5 166t237 62.5q217 0 284 -156h9l32 131h150l-174 -1235q-5 -32 -5 -55q0 -26 6 -41q11 -29 62 -51l-117 -131q-72 25 -103.5 63.5t-31.5 108.5q0 31 6 69l54 381h-9q-113 -160 -311 -160q-184 0 -267 110t-83 290zM352 389 q0 -279 228 -278q127 0 203.5 84t97.5 215l34 258q3 25 4 47q0 85 -49 135q-61 63 -182 63q-100 0 -169.5 -47t-103.5 -130t-48.5 -166t-14.5 -181z" />
<glyph unicode="r" horiz-adv-x="747" d="M156 0l143 1028h150v-131h8q109 154 331 154h54l-23 -158h-45q-156 0 -244 -54.5t-106 -187.5l-90 -651h-178z" />
<glyph unicode="s" horiz-adv-x="921" d="M82 86l84 131q150 -104 313 -104q96 0 162 41t66 129q0 59 -51.5 98t-126 63.5t-148.5 53t-125 89t-51 150.5q0 158 116.5 237t286.5 79q182 0 330 -80l-70 -135q-115 76 -264 75q-229 0 -229 -147q0 -51 52 -87t126 -60.5t147.5 -56.5t126 -92t52.5 -148 q0 -172 -115 -258.5t-293 -86.5q-225 0 -389 109z" />
<glyph unicode="t" horiz-adv-x="720" d="M168 883l20 145h172l39 283h176l-38 -283h243l-20 -145h-244l-84 -598q-6 -37 -6 -62q0 -47 34 -66.5t130 -19.5q37 0 65 2l-20 -141q-72 -10 -131 -10q-147 0 -203.5 44t-56.5 140q0 41 6 86l88 625h-170z" />
<glyph unicode="u" horiz-adv-x="1136" d="M199 262q0 49 10 131l90 635h178l-76 -543q-16 -104 -16 -172q0 -96 40 -141t142 -45q137 0 205 69.5t86 200.5l88 631h178l-143 -1028h-150v129h-8q-113 -152 -327 -152q-150 0 -223.5 62.5t-73.5 222.5z" />
<glyph unicode="v" horiz-adv-x="993" d="M184 1028h191l145 -870h8l383 870h185l-490 -1028h-215z" />
<glyph unicode="w" horiz-adv-x="1529" d="M195 1028h184l92 -852h8l355 852h145l119 -852h8l336 852h180l-442 -1028h-191l-117 764h-8l-329 -764h-191z" />
<glyph unicode="x" horiz-adv-x="972" d="M31 0l428 543l-244 485h203l164 -373h8l268 373h191l-375 -479l268 -549h-203l-188 424h-8l-307 -424h-205z" />
<glyph unicode="y" horiz-adv-x="1013" d="M25 -457l22 152q31 -6 88 -6q76 0 118 40t107 173l68 135l-248 991h193l172 -801h8l377 801h190l-596 -1161q-100 -199 -176 -264.5t-213 -65.5q-42 0 -110 6z" />
<glyph unicode="z" horiz-adv-x="929" d="M80 0l18 139l656 744h-539l21 145h741l-21 -145l-653 -738h565l-18 -145h-770z" />
<glyph unicode="{" horiz-adv-x="712" d="M215 598l18 141q68 14 96.5 57.5t39.5 116.5l53 379q20 139 79.5 206t192.5 67h101l-17 -119h-53q-43 0 -69.5 -10.5t-40 -34t-18.5 -48t-11 -63.5q-2 -12 -2 -18l-54 -381q-12 -82 -40.5 -126t-102.5 -95q86 -74 86 -158q0 -29 -6 -66l-51 -366q-8 -51 -8 -94 q0 -45 21.5 -63.5t78.5 -18.5h53l-16 -117h-96q-115 0 -162 44t-47 136q0 29 8 90l53 367q10 74 -6.5 117t-79.5 57z" />
<glyph unicode="|" horiz-adv-x="477" d="M106 -414l273 1930h141l-272 -1930h-142z" />
<glyph unicode="}" horiz-adv-x="712" d="M106 -213l17 117h53q80 0 103.5 33.5t37.5 142.5l52 366q12 82 39.5 128.5t99.5 95.5q-82 70 -82 153q0 29 6 68l53 381q10 88 11 92q0 41 -21.5 61.5t-79.5 20.5h-55l16 119h99q111 0 156.5 -45t45.5 -138q0 -29 -8 -90l-53 -379q-20 -150 88 -174l-18 -141 q-70 -14 -98.5 -57t-39.5 -117l-53 -367q-20 -139 -78.5 -204.5t-193.5 -65.5h-97z" />
<glyph unicode="~" horiz-adv-x="849" d="M188 1171q55 82 111.5 115t136.5 33q61 0 166 -41t158 -41q88 0 139 82l109 -45q-80 -147 -244 -148q-63 0 -170 41t-160 41q-88 0 -143 -86z" />
<glyph unicode="&#xa1;" horiz-adv-x="575" d="M168 -334q98 553 170 996h145q-39 -332 -108 -996h-207zM319 920q0 59 43.5 97t104.5 38q49 0 83 -25.5t34 -73.5q0 -59 -44 -95t-106 -36q-47 0 -81 25t-34 70z" />
<glyph unicode="&#xa2;" d="M250 575q0 244 121 428.5t350 215.5l20 147h168l-20 -145q150 -14 272 -121l-96 -127q-102 111 -258 110q-100 0 -175 -43t-117 -115.5t-61.5 -157.5t-19.5 -179q0 -291 256 -291q150 0 301 121l62 -115q-152 -121 -314 -143l-20 -160h-168l20 160q-164 20 -242.5 132.5 t-78.5 282.5z" />
<glyph unicode="&#xa3;" d="M129 0l18 145h41q127 0 184.5 104.5t57.5 258.5q0 59 -8 158h-172l20 141h150q-16 147 -17 199q0 182 107.5 282.5t312.5 100.5q203 0 348 -95l-65 -153q-131 94 -275 94q-133 0 -191 -60.5t-58 -191.5q0 -31 5 -90t5 -86h309l-20 -141h-283q14 -104 14 -170 q0 -223 -129 -334l-2 -6h588l-20 -156h-920z" />
<glyph unicode="&#xa4;" d="M147 309l164 144q-51 82 -51 184q0 170 119 301l-123 145l109 97l124 -148q121 78 252 78t228 -80l170 148l84 -97l-168 -145q49 -84 49 -182q0 -162 -117 -299l127 -148l-110 -96l-127 147q-117 -78 -252 -77q-129 0 -230 77l-166 -145zM420 659q0 -96 64.5 -159.5 t160.5 -63.5q119 0 210 89t91 208q0 98 -64.5 161.5t-162.5 63.5q-119 0 -209 -90t-90 -209z" />
<glyph unicode="&#xa5;" d="M170 291l18 123h371l16 123l-34 81h-324l16 123h250l-233 625h211l233 -666l414 666h201l-408 -625h254l-16 -123h-326l-51 -71l-19 -133h367l-18 -123h-367l-39 -291h-184l39 291h-371z" />
<glyph unicode="&#xa6;" horiz-adv-x="477" d="M106 -414l117 830h142l-117 -830h-142zM262 686l117 830h141l-117 -830h-141z" />
<glyph unicode="&#xa7;" horiz-adv-x="970" d="M106 -129l82 133q141 -100 293 -100q217 0 217 172q0 53 -54 96t-130 73.5t-152.5 65.5t-131 94.5t-54.5 137.5q0 135 95.5 205.5t236.5 78.5l2 7q-98 35 -167 97t-69 152q0 154 126 230t288 76t320 -70l-70 -143q-131 74 -256 73q-223 0 -223 -145q0 -55 52 -96t126 -69 t147.5 -59.5t126 -87t52.5 -130.5q0 -139 -92.5 -210t-237.5 -81v-9q254 -84 254 -268q0 -164 -123 -244.5t-295 -80.5q-205 0 -363 102zM344 563q0 -127 201 -127q244 0 243 182q0 123 -200 123q-244 0 -244 -178z" />
<glyph unicode="&#xa8;" horiz-adv-x="733" d="M248 1260q0 47 35.5 82.5t83.5 35.5q39 0 65.5 -25.5t26.5 -64.5q0 -45 -37 -81t-84 -36q-37 0 -63.5 26t-26.5 63zM631 1260q0 47 37 82.5t84 35.5q39 0 64.5 -25.5t25.5 -64.5q0 -45 -36 -81t-83 -36q-37 0 -64.5 26t-27.5 63z" />
<glyph unicode="&#xa9;" horiz-adv-x="1773" d="M178 684q0 293 208 499t501 206t500.5 -206t207.5 -499t-207.5 -498.5t-500.5 -205.5t-501 205.5t-208 498.5zM258 684q0 -258 185.5 -442.5t443.5 -184.5q260 0 445.5 184.5t185.5 442.5q0 262 -182.5 447.5t-448.5 185.5q-264 0 -446.5 -185.5t-182.5 -447.5zM494 686 q0 444 415 444q176 0 318 -129l-72 -92q-106 111 -244 111q-158 0 -221 -84t-63 -248q0 -170 61.5 -256t218.5 -86q135 0 252 111l68 -92q-147 -131 -322 -132q-223 0 -317 119t-94 334z" />
<glyph unicode="&#xaa;" horiz-adv-x="798" d="M250 907q0 266 428 267q0 2 3 25.5t3 33.5q0 66 -92 65q-119 0 -246 -63l-31 88q154 74 293 74q94 0 145.5 -35t51.5 -123q0 -51 -22.5 -178t-22.5 -170q0 -29 37 -51l-86 -82q-61 18 -70 67h-8q-102 -72 -213 -71q-78 0 -124 38.5t-46 114.5zM371 926q0 -39 24.5 -63.5 t65.5 -24.5q78 0 178 65l29 195q-49 0 -94.5 -7.5t-94.5 -23.5t-78.5 -53t-29.5 -88z" />
<glyph unicode="&#xab;" horiz-adv-x="929" d="M127 627l350 413l111 -67l-301 -348l207 -342l-132 -70zM518 627l340 401l113 -67l-293 -336l199 -330l-132 -70z" />
<glyph unicode="&#xac;" d="M168 459l22 155h967l-74 -524h-153l51 369h-813z" />
<glyph unicode="&#xad;" horiz-adv-x="770" d="M168 449l25 165h557l-25 -165h-557z" />
<glyph unicode="&#xae;" horiz-adv-x="927" d="M250 1085q0 145 104.5 247t253.5 102q147 0 252 -102.5t105 -246t-104.5 -245t-252.5 -101.5q-150 0 -254 101.5t-104 244.5zM301 1087.5q0 -120.5 91 -208.5t216 -88t216 87t91 209q0 121 -90 209t-215 88q-129 0 -219 -88t-90 -208.5zM475 899v379q106 8 135 8 q158 0 158 -123q0 -63 -61 -100l69 -164h-88l-53 131q-8 12 -21 12h-61v-143h-78zM553 1104h63q72 0 72 55q0 59 -76 60q-12 0 -31.5 -1t-27.5 -1v-113z" />
<glyph unicode="&#xaf;" horiz-adv-x="733" d="M227 1206l17 117h610l-16 -117h-611z" />
<glyph unicode="&#xb0;" horiz-adv-x="839" d="M274 1063q0 150 94.5 240t239.5 90q117 0 190.5 -70t73.5 -178q0 -150 -95 -240t-238 -90q-111 0 -188 71t-77 177zM358 1073q0 -80 52.5 -133t132.5 -53q113 0 179 67.5t66 180.5q0 82 -48 133t-136 51q-113 0 -179.5 -67.5t-66.5 -178.5z" />
<glyph unicode="&#xb1;" d="M104 0l21 150h967l-21 -150h-967zM184 578l23 153h409l54 387h157l-53 -387h400l-23 -153h-399l-47 -345h-158l47 345h-410z" />
<glyph unicode="&#xb2;" horiz-adv-x="632" d="M186 862q16 12 100.5 66.5t141.5 96.5t110.5 103.5t53.5 110.5q0 35 -21.5 62.5t-68.5 27.5q-90 0 -180 -84l-60 80q129 109 266 109q90 0 141.5 -47.5t51.5 -124.5q0 -43 -19.5 -86t-42 -73t-71.5 -70t-79 -59.5t-94.5 -61.5t-88.5 -58h346l-15 -102h-467z" />
<glyph unicode="&#xb3;" horiz-adv-x="618" d="M170 817l66 88q74 -68 170 -67q61 0 103 35.5t42 99.5q0 78 -111 78h-88l13 90h57q55 0 102 26.5t47 85.5q0 80 -96 80t-176 -65l-45 86q121 80 248 80q195 0 194 -154q0 -115 -116 -166v-8q92 -25 92 -127q0 -113 -71 -176.5t-198 -63.5q-145 0 -233 78z" />
<glyph unicode="&#xb4;" horiz-adv-x="733" d="M322 1221l315 247l164 -86l-387 -225z" />
<glyph unicode="&#xb5;" horiz-adv-x="1189" d="M115 -451l207 1479h180l-76 -541q-16 -109 -16 -178q0 -92 39.5 -136t142.5 -44q252 0 289 268l88 631h180l-143 -1028h-152v129h-10q-55 -74 -122 -113t-177 -39q-152 0 -195 97l-74 -525h-161z" />
<glyph unicode="&#xb6;" horiz-adv-x="999" d="M123 434q0 276 196.5 435t481.5 159h137l-143 -1028h-138q-229 0 -381.5 107.5t-152.5 326.5z" />
<glyph unicode="&#xb7;" horiz-adv-x="430" d="M150 469q0 59 43 95t104 36q49 0 82 -23.5t33 -70.5q0 -59 -43 -97t-105 -38q-49 0 -81.5 25.5t-32.5 72.5z" />
<glyph unicode="&#xb8;" horiz-adv-x="733" d="M135 -373l41 72q68 -39 127 -39q119 0 119 98q0 68 -92 68q-43 0 -78 -14l-33 30l105 158h96l-82 -111q41 8 63 9q55 0 90 -30t35 -93q0 -96 -62.5 -146.5t-160.5 -50.5q-84 0 -168 49z" />
<glyph unicode="&#xb9;" horiz-adv-x="573" d="M174 752l14 100h170l62 434h-8l-152 -78l-27 92l230 121h100l-80 -569h162l-14 -100h-457z" />
<glyph unicode="&#xba;" horiz-adv-x="798" d="M252 1008q0 166 90 277.5t252 111.5q121 0 187.5 -64.5t66.5 -185.5q0 -168 -90 -280.5t-254 -112.5q-121 0 -186.5 66.5t-65.5 187.5zM377 1008q0 -156 143 -156q111 0 158 86t47 209q0 147 -145 147q-203 1 -203 -286z" />
<glyph unicode="&#xbb;" horiz-adv-x="929" d="M133 295l291 330l-201 336l133 67l232 -401l-344 -402zM514 283l299 342l-205 348l133 67l238 -413l-354 -414z" />
<glyph unicode="&#xbc;" horiz-adv-x="1527" d="M248 752l14 100h170l62 434h-9l-151 -78l-27 92l230 121h100l-80 -569h162l-14 -100h-457zM285 0l1200 1434h108l-1200 -1434h-108zM944 233l369 437h135l-59 -430h104l-14 -103h-105l-18 -137h-127l18 137h-286zM1059 233h207l43 314z" />
<glyph unicode="&#xbd;" horiz-adv-x="1470" d="M205 0l1200 1434h108l-1200 -1434h-108zM231 752l15 100h170l61 434h-8l-152 -78l-26 92l229 121h101l-80 -569h161l-14 -100h-457zM915 111q16 12 100.5 66t141.5 96t110.5 103.5t53.5 110.5q0 35 -21.5 63t-68.5 28q-90 0 -180 -84l-60 79q129 109 266 109 q90 0 141.5 -47t51.5 -125q0 -43 -19.5 -86t-42 -72.5t-71.5 -69.5t-79 -59.5t-94.5 -61.5t-88.5 -59h346l-15 -102h-466z" />
<glyph unicode="&#xbe;" horiz-adv-x="1447" d="M242 817l65 88q74 -68 170 -67q61 0 103.5 35.5t42.5 99.5q0 78 -111 78h-88l12 90h58q55 0 102 26.5t47 85.5q0 80 -96 80t-176 -65l-45 86q121 80 247 80q195 0 195 -154q0 -115 -117 -166v-8q92 -25 92 -127q0 -113 -70.5 -176.5t-197.5 -63.5q-145 0 -233 78zM246 0 l1200 1434h108l-1200 -1434h-108zM879 233l368 437h135l-59 -430h104l-14 -103h-104l-19 -137h-127l19 137h-287zM993 233h207l43 314z" />
<glyph unicode="&#xbf;" horiz-adv-x="1054" d="M147 -55q0 82 24 148.5t54.5 107.5t94 83t108.5 63.5t133 60.5q68 29 85.5 51t25.5 94l16 127h176l-22 -162q-14 -96 -44 -134t-120 -77q-16 -6 -69.5 -28.5t-73 -32.5t-61.5 -33t-60.5 -42t-42 -50t-32.5 -67t-9 -81q0 -94 66.5 -136t166.5 -42q168 0 336 121l70 -133 q-225 -139 -449 -139q-162 0 -267.5 72.5t-105.5 228.5zM690 924q0 57 41 94t100 37q47 0 80 -24.5t33 -72.5q0 -59 -41 -94t-100 -35q-49 0 -81 24t-32 71z" />
<glyph unicode="&#xc0;" horiz-adv-x="1314" d="M45 0l696 1374h209l320 -1374h-201l-72 330h-596l-163 -330h-193zM469 483h500l-148 709h-8zM555 1667l193 82l241 -244l-108 -61z" />
<glyph unicode="&#xc1;" horiz-adv-x="1314" d="M45 0l696 1374h209l320 -1374h-201l-72 330h-596l-163 -330h-193zM469 483h500l-148 709h-8zM741 1507l316 248l164 -86l-387 -225z" />
<glyph unicode="&#xc2;" horiz-adv-x="1314" d="M45 0l696 1374h209l320 -1374h-201l-72 330h-596l-163 -330h-193zM469 483h500l-148 709h-8zM547 1542l344 201l295 -201l-92 -102l-220 162l-266 -162z" />
<glyph unicode="&#xc3;" horiz-adv-x="1314" d="M45 0l696 1374h209l320 -1374h-201l-72 330h-596l-163 -330h-193zM469 483h500l-148 709h-8zM526 1522q86 145 211 145q51 0 143.5 -41t129.5 -41q78 0 118 82l84 -68q-31 -70 -88 -107.5t-120 -37.5q-51 0 -143.5 41t-127.5 41q-82 0 -127 -84z" />
<glyph unicode="&#xc4;" horiz-adv-x="1314" d="M45 0l696 1374h209l320 -1374h-201l-72 330h-596l-163 -330h-193zM469 483h500l-148 709h-8zM573 1546q0 47 37 83t82 36q39 0 65.5 -25.5t26.5 -64.5q0 -45 -36.5 -81t-83.5 -36q-37 0 -64 25.5t-27 62.5zM956 1546q0 47 37 83t84 36q39 0 64.5 -25.5t25.5 -64.5 q0 -45 -35.5 -81t-82.5 -36q-37 0 -65 25.5t-28 62.5z" />
<glyph unicode="&#xc5;" horiz-adv-x="1316" d="M47 0l653 1292q-84 55 -84 166t76 184.5t187 73.5q94 0 160.5 -53t66.5 -145q0 -72 -38 -133.5t-99 -90.5l303 -1294h-201l-72 330h-596l-163 -330h-193zM471 483h500l-146 713h-8zM727 1464q0 -49 33 -80.5t82 -31.5q66 0 109.5 45t43.5 110q0 49 -31.5 80t-86.5 31 q-70 0 -110 -44t-40 -110z" />
<glyph unicode="&#xc6;" horiz-adv-x="1839" d="M45 0l950 1366h936l-20 -156h-633l-57 -407h571l-23 -160h-571l-70 -487h654l-21 -156h-837l47 336h-504l-225 -336h-197zM565 496h430l99 710h-27z" />
<glyph unicode="&#xc7;" horiz-adv-x="1294" d="M217 520q0 170 46 323.5t134 276.5t230.5 196t320.5 73q254 0 441 -189l-132 -123q-141 154 -325 154q-137 0 -240.5 -61.5t-162 -164t-87 -220t-28.5 -246.5q0 -188 87 -297t271 -109q205 0 397 164l82 -127q-227 -182 -479 -190l-70 -97q41 8 64 8q55 0 90 -29.5 t35 -92.5q0 -96 -62.5 -146.5t-160.5 -50.5q-84 0 -168 49l41 72q68 -39 127 -39q119 0 118 98q0 68 -92 68q-43 0 -78 -15l-32 31l94 144q-227 16 -344 156t-117 384z" />
<glyph unicode="&#xc8;" horiz-adv-x="1093" d="M176 0l191 1366h815l-23 -158h-629l-57 -407h569l-22 -160h-569l-68 -485h653l-20 -156h-840zM549 1667l192 82l242 -244l-109 -61z" />
<glyph unicode="&#xc9;" horiz-adv-x="1093" d="M176 0l191 1366h815l-23 -158h-629l-57 -407h569l-22 -160h-569l-68 -485h653l-20 -156h-840zM662 1507l315 248l164 -86l-387 -225z" />
<glyph unicode="&#xca;" horiz-adv-x="1093" d="M176 0l191 1366h815l-23 -158h-629l-57 -407h569l-22 -160h-569l-68 -485h653l-20 -156h-840zM483 1542l344 201l295 -201l-92 -102l-219 162l-266 -162z" />
<glyph unicode="&#xcb;" horiz-adv-x="1093" d="M176 0l191 1366h815l-23 -158h-629l-57 -407h569l-22 -160h-569l-68 -485h653l-20 -156h-840zM510 1546q0 47 36 83t83 36q39 0 65.5 -25.5t26.5 -64.5q0 -45 -37 -81t-84 -36q-37 0 -63.5 25.5t-26.5 62.5zM893 1546q0 47 37 83t84 36q39 0 64.5 -25.5t25.5 -64.5 q0 -45 -36 -81t-83 -36q-37 0 -64.5 25.5t-27.5 62.5z" />
<glyph unicode="&#xcc;" horiz-adv-x="538" d="M174 1667l193 82l241 -244l-108 -61zM176 0l191 1366h186l-191 -1366h-186z" />
<glyph unicode="&#xcd;" horiz-adv-x="538" d="M176 0l191 1366h186l-191 -1366h-186zM360 1507l316 248l164 -86l-387 -225z" />
<glyph unicode="&#xce;" horiz-adv-x="538" d="M176 0l191 1366h186l-191 -1366h-186zM176 1542l344 201l295 -201l-92 -102l-219 162l-266 -162z" />
<glyph unicode="&#xcf;" horiz-adv-x="538" d="M176 0l191 1366h186l-191 -1366h-186zM195 1546q0 47 35.5 83t82.5 36q39 0 66 -25.5t27 -64.5q0 -45 -37 -81t-84 -36q-37 0 -63.5 25.5t-26.5 62.5zM578 1546q0 47 36.5 83t83.5 36q39 0 64.5 -25.5t25.5 -64.5q0 -45 -35.5 -81t-82.5 -36q-37 0 -64.5 25.5t-27.5 62.5 z" />
<glyph unicode="&#xd0;" horiz-adv-x="1370" d="M137 651l23 154h131l78 553q274 25 413 24q266 0 415 -138t149 -402q0 -369 -202 -605.5t-562 -236.5h-404l90 651h-131zM383 154q66 -2 197 -2q262 0 393 137t168 405q10 76 10 140q0 395 -379 395q-121 0 -240 -12l-57 -412h320l-23 -154h-319z" />
<glyph unicode="&#xd1;" horiz-adv-x="1435" d="M176 0l191 1366h184l563 -1051h8l148 1051h180l-190 -1366h-175l-571 1065h-8l-150 -1065h-180zM606 1522q86 145 211 145q51 0 143.5 -41t129.5 -41q78 0 118 82l84 -68q-31 -70 -88 -107.5t-121 -37.5q-51 0 -143 41t-127 41q-82 0 -127 -84z" />
<glyph unicode="&#xd2;" horiz-adv-x="1527" d="M215 528q0 233 81 425t254 314t408 122q262 0 402.5 -142.5t140.5 -404.5q0 -236 -80 -428.5t-252 -314.5t-409 -122q-264 0 -404.5 143.5t-140.5 407.5zM412 535q0 -406 368 -406q141 0 247 61.5t165 167t87 225t28 253.5q0 401 -371 401q-141 0 -246.5 -61.5t-164 -165 t-86 -223t-27.5 -252.5zM745 1671l193 82l242 -244l-109 -61z" />
<glyph unicode="&#xd3;" horiz-adv-x="1527" d="M215 528q0 233 81 425t254 314t408 122q262 0 402.5 -142.5t140.5 -404.5q0 -236 -80 -428.5t-252 -314.5t-409 -122q-264 0 -404.5 143.5t-140.5 407.5zM412 535q0 -406 368 -406q141 0 247 61.5t165 167t87 225t28 253.5q0 401 -371 401q-141 0 -246.5 -61.5t-164 -165 t-86 -223t-27.5 -252.5zM842 1511l315 248l164 -86l-387 -225z" />
<glyph unicode="&#xd4;" horiz-adv-x="1527" d="M215 528q0 233 81 425t254 314t408 122q262 0 402.5 -142.5t140.5 -404.5q0 -236 -80 -428.5t-252 -314.5t-409 -122q-264 0 -404.5 143.5t-140.5 407.5zM412 535q0 -406 368 -406q141 0 247 61.5t165 167t87 225t28 253.5q0 401 -371 401q-141 0 -246.5 -61.5t-164 -165 t-86 -223t-27.5 -252.5zM670 1542l344 201l295 -201l-92 -102l-220 162l-266 -162z" />
<glyph unicode="&#xd5;" horiz-adv-x="1527" d="M215 528q0 233 81 425t254 314t408 122q262 0 402.5 -142.5t140.5 -404.5q0 -236 -80 -428.5t-252 -314.5t-409 -122q-264 0 -404.5 143.5t-140.5 407.5zM412 535q0 -406 368 -406q141 0 247 61.5t165 167t87 225t28 253.5q0 401 -371 401q-141 0 -246.5 -61.5t-164 -165 t-86 -223t-27.5 -252.5zM631 1526q86 145 211 145q51 0 143 -41t129 -41q78 0 119 82l84 -67q-31 -70 -88.5 -108t-120.5 -38q-51 0 -143.5 41t-126.5 41q-82 0 -127 -84z" />
<glyph unicode="&#xd6;" horiz-adv-x="1527" d="M215 528q0 233 81 425t254 314t408 122q262 0 402.5 -142.5t140.5 -404.5q0 -236 -80 -428.5t-252 -314.5t-409 -122q-264 0 -404.5 143.5t-140.5 407.5zM412 535q0 -406 368 -406q141 0 247 61.5t165 167t87 225t28 253.5q0 401 -371 401q-141 0 -246.5 -61.5t-164 -165 t-86 -223t-27.5 -252.5zM684 1546q0 47 37 83t82 36q39 0 65.5 -25.5t26.5 -64.5q0 -45 -37 -81t-84 -36q-37 0 -63.5 25.5t-26.5 62.5zM1067 1546q0 47 37 83t84 36q39 0 64.5 -25.5t25.5 -64.5q0 -45 -36 -81t-83 -36q-37 0 -64.5 25.5t-27.5 62.5z" />
<glyph unicode="&#xd7;" d="M188 211l367 319l-266 310l125 108l264 -309l356 309l90 -108l-352 -310l272 -319l-122 -109l-275 320l-364 -320z" />
<glyph unicode="&#xd8;" horiz-adv-x="1527" d="M162 47l135 146q-82 131 -82 335q0 233 81 425t254 314t408 122q225 0 361 -107l119 127l104 -88l-129 -139q88 -135 88 -340q0 -236 -80 -428.5t-252 -314.5t-409 -122q-229 0 -369 111l-129 -137zM412 535q0 -111 26 -191l758 807q-92 86 -260 86q-141 0 -246.5 -61.5 t-164 -165t-86 -223t-27.5 -252.5zM514 221q92 -92 266 -92q141 0 247 61.5t165 167t87 225t28 253.5q0 119 -33 198z" />
<glyph unicode="&#xd9;" horiz-adv-x="1370" d="M238 377q0 70 12 153l117 836h186l-117 -836q-10 -72 -10 -122q0 -133 63.5 -204t212.5 -71q182 0 267.5 102.5t111.5 294.5l117 836h186l-116 -836q-41 -285 -181.5 -419t-406.5 -134q-229 0 -335.5 97.5t-106.5 302.5zM578 1667l192 82l242 -244l-109 -61z" />
<glyph unicode="&#xda;" horiz-adv-x="1370" d="M238 377q0 70 12 153l117 836h186l-117 -836q-10 -72 -10 -122q0 -133 63.5 -204t212.5 -71q182 0 267.5 102.5t111.5 294.5l117 836h186l-116 -836q-41 -285 -181.5 -419t-406.5 -134q-229 0 -335.5 97.5t-106.5 302.5zM782 1507l316 248l164 -86l-388 -225z" />
<glyph unicode="&#xdb;" horiz-adv-x="1370" d="M238 377q0 70 12 153l117 836h186l-117 -836q-10 -72 -10 -122q0 -133 63.5 -204t212.5 -71q182 0 267.5 102.5t111.5 294.5l117 836h186l-116 -836q-41 -285 -181.5 -419t-406.5 -134q-229 0 -335.5 97.5t-106.5 302.5zM586 1542l344 201l295 -201l-92 -102l-220 162 l-266 -162z" />
<glyph unicode="&#xdc;" horiz-adv-x="1370" d="M238 377q0 70 12 153l117 836h186l-117 -836q-10 -72 -10 -122q0 -133 63.5 -204t212.5 -71q182 0 267.5 102.5t111.5 294.5l117 836h186l-116 -836q-41 -285 -181.5 -419t-406.5 -134q-229 0 -335.5 97.5t-106.5 302.5zM608 1546q0 47 36 83t83 36q39 0 65.5 -25.5 t26.5 -64.5q0 -45 -37 -81t-84 -36q-37 0 -63.5 25.5t-26.5 62.5zM991 1546q0 47 37 83t84 36q39 0 64.5 -25.5t25.5 -64.5q0 -45 -36 -81t-83 -36q-37 0 -64.5 25.5t-27.5 62.5z" />
<glyph unicode="&#xdd;" horiz-adv-x="1171" d="M217 1366h211l258 -659l444 659h205l-579 -823l-76 -543h-186l73 537zM698 1491l316 248l164 -86l-387 -226z" />
<glyph unicode="&#xde;" horiz-adv-x="1230" d="M176 0l191 1366h182l-35 -250q154 10 248 10q221 0 343 -76.5t122 -263.5q0 -244 -134.5 -383t-383.5 -139h-312l-37 -264h-184zM418 414h272q176 0 263 84t87 268q0 117 -72.5 162t-230.5 45q-109 0 -243 -12z" />
<glyph unicode="&#xdf;" horiz-adv-x="1089" d="M156 0l155 1108q25 178 127.5 257t286.5 79q135 0 221 -62.5t86 -191.5t-67.5 -219t-194.5 -170v-8q287 -131 287 -390q0 -182 -117 -305t-299 -123q-119 0 -184 29l47 131q57 -23 117 -22q121 0 187 77.5t66 208.5q0 115 -75.5 181.5t-204.5 113.5l-6 117 q127 76 203.5 160t76.5 200q0 141 -163 142q-102 0 -152.5 -53.5t-65.5 -159.5l-153 -1100h-178z" />
<glyph unicode="&#xe0;" horiz-adv-x="1155" d="M170 373q0 119 24.5 230.5t79 216t155.5 169t239 64.5q201 0 278 -144h8l35 119h154l-144 -1028h-149l10 158h-8q-119 -180 -336 -181q-182 0 -264 108t-82 288zM352 385q0 -274 228 -274q127 0 203.5 84t97.5 215l34 258q16 119 -45 182t-182 63q-100 0 -171 -49 t-104.5 -133t-47 -167t-13.5 -179zM434 1380l193 82l241 -243l-108 -62z" />
<glyph unicode="&#xe1;" horiz-adv-x="1155" d="M170 373q0 119 24.5 230.5t79 216t155.5 169t239 64.5q201 0 278 -144h8l35 119h154l-144 -1028h-149l10 158h-8q-119 -180 -336 -181q-182 0 -264 108t-82 288zM352 385q0 -274 228 -274q127 0 203.5 84t97.5 215l34 258q16 119 -45 182t-182 63q-100 0 -171 -49 t-104.5 -133t-47 -167t-13.5 -179zM561 1221l316 247l163 -86l-387 -225z" />
<glyph unicode="&#xe2;" horiz-adv-x="1155" d="M170 373q0 119 24.5 230.5t79 216t155.5 169t239 64.5q201 0 278 -144h8l35 119h154l-144 -1028h-149l10 158h-8q-119 -180 -336 -181q-182 0 -264 108t-82 288zM352 385q0 -274 228 -274q127 0 203.5 84t97.5 215l34 258q16 119 -45 182t-182 63q-100 0 -171 -49 t-104.5 -133t-47 -167t-13.5 -179zM391 1253l344 201l295 -201l-92 -102l-219 162l-266 -162z" />
<glyph unicode="&#xe3;" horiz-adv-x="1155" d="M170 373q0 119 24.5 230.5t79 216t155.5 169t239 64.5q201 0 278 -144h8l35 119h154l-144 -1028h-149l10 158h-8q-119 -180 -336 -181q-182 0 -264 108t-82 288zM352 385q0 -274 228 -274q127 0 203.5 84t97.5 215l34 258q16 119 -45 182t-182 63q-100 0 -171 -49 t-104.5 -133t-47 -167t-13.5 -179zM358 1235q86 145 211 145q51 0 143.5 -41t129.5 -41q78 0 119 82l83 -67q-31 -70 -88 -108t-120 -38q-51 0 -143.5 41t-127.5 41q-82 0 -127 -84z" />
<glyph unicode="&#xe4;" horiz-adv-x="1155" d="M170 373q0 119 24.5 230.5t79 216t155.5 169t239 64.5q201 0 278 -144h8l35 119h154l-144 -1028h-149l10 158h-8q-119 -180 -336 -181q-182 0 -264 108t-82 288zM352 385q0 -274 228 -274q127 0 203.5 84t97.5 215l34 258q16 119 -45 182t-182 63q-100 0 -171 -49 t-104.5 -133t-47 -167t-13.5 -179zM424 1260q0 47 36 82.5t83 35.5q39 0 65.5 -25.5t26.5 -64.5q0 -45 -37 -81t-84 -36q-37 0 -63.5 26t-26.5 63zM807 1260q0 47 37 82.5t84 35.5q39 0 64.5 -25.5t25.5 -64.5q0 -45 -36 -81t-83 -36q-37 0 -64.5 26t-27.5 63z" />
<glyph unicode="&#xe5;" horiz-adv-x="1155" d="M170 373q0 119 24.5 230.5t79 216t155.5 169t239 64.5q201 0 278 -144h8l35 119h154l-144 -1028h-149l10 158h-8q-119 -180 -336 -181q-182 0 -264 108t-82 288zM352 385q0 -274 228 -274q127 0 203.5 84t97.5 215l34 258q16 119 -45 182t-182 63q-100 0 -171 -49 t-104.5 -133t-47 -167t-13.5 -179zM537 1309q0 92 62.5 151.5t154.5 59.5q78 0 128 -46.5t50 -119.5q0 -88 -62.5 -147.5t-150.5 -59.5q-76 0 -129 45t-53 117zM627 1315q0 -43 25.5 -67.5t66.5 -24.5q53 0 88 33.5t35 93.5q0 43 -25.5 68.5t-66.5 25.5q-53 0 -88 -36 t-35 -93z" />
<glyph unicode="&#xe6;" horiz-adv-x="1757" d="M127 233q0 426 707 426q2 14 5 39t5 45.5t2 38.5q0 76 -41 103.5t-121 27.5q-190 0 -389 -118l-45 131q258 127 463 127q252 0 280 -172q147 174 369 174q184 0 279.5 -109.5t95.5 -296.5q0 -111 -23 -194h-723q-4 -45 -4 -70q0 -129 68.5 -197.5t197.5 -68.5 q164 0 316 104l47 -125q-188 -121 -385 -121q-252 0 -359 168q-209 -168 -456 -168q-127 0 -208 65.5t-81 190.5zM307 264q0 -72 45 -113.5t125 -41.5q184 0 344 147q-18 59 -18 123q0 57 16 168q-512 0 -512 -283zM1006 580h563q4 49 4 73q0 264 -234 265 q-139 0 -226 -97.5t-107 -240.5z" />
<glyph unicode="&#xe7;" horiz-adv-x="1013" d="M170 397q0 274 153.5 465t419.5 191q193 0 338 -129l-96 -125q-98 113 -256 112q-127 0 -215 -77.5t-124 -185t-36 -232.5q0 -137 64.5 -217t199.5 -80q158 0 300 110l45 -125q-174 -119 -351 -127l-69 -94q41 8 63 8q55 0 90 -29.5t35 -92.5q0 -96 -62.5 -146.5 t-160.5 -50.5q-84 0 -168 49l41 72q68 -39 127 -39q119 0 119 98q0 68 -92 68q-43 0 -78 -15l-33 31l96 146q-168 16 -259 124.5t-91 290.5z" />
<glyph unicode="&#xe8;" horiz-adv-x="1112" d="M172 393q0 172 58.5 318.5t187.5 245t309 98.5q176 0 270.5 -109.5t94.5 -296.5q0 -82 -21 -192h-721q-6 -43 -6 -80q0 -125 67.5 -193.5t198.5 -68.5q158 0 322 106l45 -123q-186 -121 -391 -121t-309.5 109.5t-104.5 306.5zM367 578h557q6 43 6 84q0 117 -53.5 189.5 t-165.5 72.5q-156 0 -240 -100.5t-104 -245.5zM459 1380l192 82l242 -243l-109 -62z" />
<glyph unicode="&#xe9;" horiz-adv-x="1112" d="M172 393q0 172 58.5 318.5t187.5 245t309 98.5q176 0 270.5 -109.5t94.5 -296.5q0 -82 -21 -192h-721q-6 -43 -6 -80q0 -125 67.5 -193.5t198.5 -68.5q158 0 322 106l45 -123q-186 -121 -391 -121t-309.5 109.5t-104.5 306.5zM367 578h557q6 43 6 84q0 117 -53.5 189.5 t-165.5 72.5q-156 0 -240 -100.5t-104 -245.5zM621 1221l315 247l164 -86l-387 -225z" />
<glyph unicode="&#xea;" horiz-adv-x="1112" d="M172 393q0 172 58.5 318.5t187.5 245t309 98.5q176 0 270.5 -109.5t94.5 -296.5q0 -82 -21 -192h-721q-6 -43 -6 -80q0 -125 67.5 -193.5t198.5 -68.5q158 0 322 106l45 -123q-186 -121 -391 -121t-309.5 109.5t-104.5 306.5zM367 578h557q6 43 6 84q0 117 -53.5 189.5 t-165.5 72.5q-156 0 -240 -100.5t-104 -245.5zM434 1255l344 201l295 -201l-92 -102l-219 162l-266 -162z" />
<glyph unicode="&#xeb;" horiz-adv-x="1112" d="M172 393q0 172 58.5 318.5t187.5 245t309 98.5q176 0 270.5 -109.5t94.5 -296.5q0 -82 -21 -192h-721q-6 -43 -6 -80q0 -125 67.5 -193.5t198.5 -68.5q158 0 322 106l45 -123q-186 -121 -391 -121t-309.5 109.5t-104.5 306.5zM367 578h557q6 43 6 84q0 117 -53.5 189.5 t-165.5 72.5q-156 0 -240 -100.5t-104 -245.5zM461 1260q0 47 35.5 82.5t83.5 35.5q39 0 65.5 -25.5t26.5 -64.5q0 -45 -37 -81t-84 -36q-37 0 -63.5 26t-26.5 63zM844 1260q0 47 37 82.5t84 35.5q39 0 64.5 -25.5t25.5 -64.5q0 -45 -36 -81t-83 -36q-37 0 -64.5 26 t-27.5 63z" />
<glyph unicode="&#xec;" horiz-adv-x="489" d="M127 1380l192 82l242 -243l-108 -62zM156 0l143 1028h178l-143 -1028h-178z" />
<glyph unicode="&#xed;" horiz-adv-x="489" d="M156 0l143 1028h178l-143 -1028h-178zM283 1221l315 247l164 -86l-387 -225z" />
<glyph unicode="&#xee;" horiz-adv-x="489" d="M109 1255l344 201l295 -201l-93 -102l-219 162l-266 -162zM156 0l143 1028h178l-143 -1028h-178z" />
<glyph unicode="&#xef;" horiz-adv-x="489" d="M131 1260q0 47 37 82.5t82 35.5q39 0 65.5 -25.5t26.5 -64.5q0 -45 -37 -81t-84 -36q-37 0 -63.5 26t-26.5 63zM156 0l143 1028h178l-143 -1028h-178zM514 1260q0 47 37 82.5t84 35.5q39 0 64.5 -25.5t25.5 -64.5q0 -45 -36 -81t-83 -36q-37 0 -64.5 26t-27.5 63z" />
<glyph unicode="&#xf0;" horiz-adv-x="1202" d="M201 379q0 262 122.5 438t372.5 176q197 0 262 -129h9q-2 164 -82 332l-264 -123l-37 105l250 116q-39 63 -105 129l162 43q53 -57 92 -106l174 90l37 -107l-158 -81q98 -186 99 -488q0 -100 -10.5 -189t-34 -182.5t-65.5 -167t-102.5 -133t-148.5 -91t-199 -31.5 q-184 0 -279 106.5t-95 292.5zM379 377q0 -260 231 -260q96 0 166 48t104.5 129t49 163t14.5 174q0 121 -56.5 178t-176.5 57q-162 0 -230.5 -96t-91.5 -272q-10 -68 -10 -121z" />
<glyph unicode="&#xf1;" horiz-adv-x="1155" d="M156 0l143 1028h150v-129h8q121 154 334 154q168 0 238.5 -71t70.5 -212q0 -51 -10 -127l-91 -643h-178l84 602q10 72 10 119q0 90 -42 135t-150 45q-129 0 -206 -66.5t-93 -189.5l-90 -645h-178zM420 1235q86 145 211 145q51 0 143 -41t129 -41q78 0 119 82l84 -67 q-31 -70 -88 -108t-121 -38q-51 0 -143 41t-127 41q-82 0 -127 -84z" />
<glyph unicode="&#xf2;" horiz-adv-x="1175" d="M172 393q0 281 145.5 470.5t415.5 189.5q201 0 307.5 -112t106.5 -312q0 -276 -148.5 -464t-416.5 -188q-201 0 -305.5 108.5t-104.5 307.5zM354 395q0 -281 248 -280q100 0 174 47t113 125t57.5 164t18.5 180q0 281 -250 280q-100 0 -174 -46t-113 -124.5t-56.5 -165 t-17.5 -180.5zM475 1380l193 82l241 -243l-108 -62z" />
<glyph unicode="&#xf3;" horiz-adv-x="1175" d="M172 393q0 281 145.5 470.5t415.5 189.5q201 0 307.5 -112t106.5 -312q0 -276 -148.5 -464t-416.5 -188q-201 0 -305.5 108.5t-104.5 307.5zM354 395q0 -281 248 -280q100 0 174 47t113 125t57.5 164t18.5 180q0 281 -250 280q-100 0 -174 -46t-113 -124.5t-56.5 -165 t-17.5 -180.5zM629 1221l315 247l164 -86l-387 -225z" />
<glyph unicode="&#xf4;" horiz-adv-x="1175" d="M172 393q0 281 145.5 470.5t415.5 189.5q201 0 307.5 -112t106.5 -312q0 -276 -148.5 -464t-416.5 -188q-201 0 -305.5 108.5t-104.5 307.5zM354 395q0 -281 248 -280q100 0 174 47t113 125t57.5 164t18.5 180q0 281 -250 280q-100 0 -174 -46t-113 -124.5t-56.5 -165 t-17.5 -180.5zM446 1255l345 201l294 -201l-92 -102l-219 162l-266 -162z" />
<glyph unicode="&#xf5;" horiz-adv-x="1175" d="M172 393q0 281 145.5 470.5t415.5 189.5q201 0 307.5 -112t106.5 -312q0 -276 -148.5 -464t-416.5 -188q-201 0 -305.5 108.5t-104.5 307.5zM354 395q0 -281 248 -280q100 0 174 47t113 125t57.5 164t18.5 180q0 281 -250 280q-100 0 -174 -46t-113 -124.5t-56.5 -165 t-17.5 -180.5zM426 1235q86 145 211 145q51 0 143 -41t129 -41q78 0 119 82l84 -67q-31 -70 -88 -108t-121 -38q-51 0 -143 41t-127 41q-82 0 -127 -84z" />
<glyph unicode="&#xf6;" horiz-adv-x="1175" d="M172 393q0 281 145.5 470.5t415.5 189.5q201 0 307.5 -112t106.5 -312q0 -276 -148.5 -464t-416.5 -188q-201 0 -305.5 108.5t-104.5 307.5zM354 395q0 -281 248 -280q100 0 174 47t113 125t57.5 164t18.5 180q0 281 -250 280q-100 0 -174 -46t-113 -124.5t-56.5 -165 t-17.5 -180.5zM473 1260q0 47 36 82.5t83 35.5q39 0 65.5 -25.5t26.5 -64.5q0 -45 -37 -81t-84 -36q-37 0 -63.5 26t-26.5 63zM856 1260q0 47 37 82.5t84 35.5q39 0 64.5 -25.5t25.5 -64.5q0 -45 -36 -81t-83 -36q-37 0 -64.5 26t-27.5 63z" />
<glyph unicode="&#xf7;" d="M168 459l22 155h967l-22 -155h-967zM504 182q0 51 40 89t91 38q41 0 68.5 -26.5t27.5 -67.5q0 -51 -39 -90t-90 -39q-41 0 -69.5 27.5t-28.5 68.5zM600 864q0 51 40 89t91 38q41 0 68.5 -26.5t27.5 -67.5q0 -51 -38.5 -90t-90.5 -39q-41 0 -69.5 27.5t-28.5 68.5z" />
<glyph unicode="&#xf8;" horiz-adv-x="1175" d="M100 45l119 121q-47 88 -47 227q0 281 145.5 470.5t415.5 189.5q170 0 277 -84l131 133l82 -80l-138 -139q61 -100 62 -254q0 -276 -148.5 -464t-416.5 -188q-188 0 -297 99l-111 -113zM354 395q0 -47 6 -86l533 541q-66 61 -178 61q-100 0 -174 -46t-113 -124.5 t-56.5 -165t-17.5 -180.5zM406 197q61 -82 196 -82q100 0 174 47t113 125t57.5 164t18.5 180q0 55 -15 117z" />
<glyph unicode="&#xf9;" horiz-adv-x="1136" d="M199 262q0 49 10 131l90 635h178l-76 -543q-16 -104 -16 -172q0 -96 40 -141t142 -45q137 0 205 69.5t86 200.5l88 631h178l-143 -1028h-150v129h-8q-113 -152 -327 -152q-150 0 -223.5 62.5t-73.5 222.5zM418 1380l192 82l242 -243l-109 -62z" />
<glyph unicode="&#xfa;" horiz-adv-x="1136" d="M199 262q0 49 10 131l90 635h178l-76 -543q-16 -104 -16 -172q0 -96 40 -141t142 -45q137 0 205 69.5t86 200.5l88 631h178l-143 -1028h-150v129h-8q-113 -152 -327 -152q-150 0 -223.5 62.5t-73.5 222.5zM616 1221l316 247l164 -86l-387 -225z" />
<glyph unicode="&#xfb;" horiz-adv-x="1136" d="M199 262q0 49 10 131l90 635h178l-76 -543q-16 -104 -16 -172q0 -96 40 -141t142 -45q137 0 205 69.5t86 200.5l88 631h178l-143 -1028h-150v129h-8q-113 -152 -327 -152q-150 0 -223.5 62.5t-73.5 222.5zM432 1255l344 201l295 -201l-92 -102l-219 162l-266 -162z" />
<glyph unicode="&#xfc;" horiz-adv-x="1136" d="M199 262q0 49 10 131l90 635h178l-76 -543q-16 -104 -16 -172q0 -96 40 -141t142 -45q137 0 205 69.5t86 200.5l88 631h178l-143 -1028h-150v129h-8q-113 -152 -327 -152q-150 0 -223.5 62.5t-73.5 222.5zM461 1260q0 47 35.5 82.5t83.5 35.5q39 0 65.5 -25.5t26.5 -64.5 q0 -45 -37 -81t-84 -36q-37 0 -63.5 26t-26.5 63zM844 1260q0 47 37 82.5t84 35.5q39 0 64.5 -25.5t25.5 -64.5q0 -45 -36 -81t-83 -36q-37 0 -64.5 26t-27.5 63z" />
<glyph unicode="&#xfd;" horiz-adv-x="1013" d="M25 -457l22 152q31 -6 88 -6q76 0 118 40t107 173l68 135l-248 991h193l172 -801h8l377 801h190l-596 -1161q-100 -199 -176 -264.5t-213 -65.5q-42 0 -110 6zM578 1221l315 247l164 -86l-387 -225z" />
<glyph unicode="&#xfe;" horiz-adv-x="1155" d="M92 -451l264 1885h166l-73 -527h8q123 145 321 146q350 0 350 -394q0 -123 -29.5 -238.5t-88 -217t-160.5 -162.5t-236 -61q-178 0 -262 147l-4 2l-80 -580h-176zM387 348q0 -109 55.5 -170t163.5 -61q96 0 167 50t106.5 134t52 174t16.5 189q0 121 -51 185t-178 64 q-123 0 -200 -62.5t-93 -182.5l-35 -254q-4 -23 -4 -66z" />
<glyph unicode="&#xff;" horiz-adv-x="1013" d="M25 -457l22 152q31 -6 88 -6q76 0 118 40t107 173l68 135l-248 991h193l172 -801h8l377 801h190l-596 -1161q-100 -199 -176 -264.5t-213 -65.5q-42 0 -110 6zM403 1260q0 47 36 82.5t83 35.5q39 0 65.5 -25.5t26.5 -64.5q0 -45 -36.5 -81t-83.5 -36q-37 0 -64 26t-27 63 zM786 1260q0 47 37 82.5t84 35.5q39 0 64.5 -25.5t25.5 -64.5q0 -45 -35.5 -81t-82.5 -36q-37 0 -65 26t-28 63z" />
<glyph unicode="&#x152;" horiz-adv-x="1830" d="M215 516q0 164 41 313.5t124 277.5t227.5 205t332.5 77q123 0 217 -23h764l-23 -158h-577l-57 -407h518l-23 -160h-518l-67 -485h600l-21 -156h-786q-117 -23 -226 -23q-270 0 -398 143.5t-128 395.5zM410 522q0 -393 358 -393q119 0 221 33l146 1040q-86 35 -211 35 q-141 0 -245 -62.5t-160 -169t-82.5 -227.5t-26.5 -256z" />
<glyph unicode="&#x153;" horiz-adv-x="1898" d="M170 389q0 180 60.5 327.5t191.5 242t313 94.5q281 0 357 -224q156 225 411 226q184 0 278.5 -112t94.5 -300q0 -76 -18 -186h-728q-4 -45 -4 -70q0 -268 271 -268q154 0 313 106l45 -127q-184 -121 -383 -121q-272 0 -364 224q-143 -223 -424 -224q-201 0 -307.5 105.5 t-106.5 306.5zM354 397q0 -279 250 -278q100 0 174 46t112 125t55.5 164t17.5 179q0 272 -248 272q-100 0 -174 -45t-113 -121.5t-56.5 -161t-17.5 -180.5zM1147 580h563q4 37 4 65q0 272 -229 273q-141 0 -228 -96.5t-110 -241.5z" />
<glyph unicode="&#x178;" horiz-adv-x="1171" d="M217 1366h211l258 -659l444 659h205l-579 -823l-76 -543h-186l73 537zM512 1546q0 47 37 83t82 36q39 0 65.5 -25.5t26.5 -64.5q0 -45 -37 -81t-84 -36q-37 0 -63.5 25.5t-26.5 62.5zM895 1546q0 47 37 83t84 36q39 0 64.5 -25.5t25.5 -64.5q0 -45 -36 -81t-83 -36 q-37 0 -64.5 25.5t-27.5 62.5z" />
<glyph unicode="&#x2c6;" horiz-adv-x="733" d="M223 1255l344 201l295 -201l-92 -102l-219 162l-266 -162z" />
<glyph unicode="&#x2dc;" horiz-adv-x="733" d="M203 1235q86 145 211 145q51 0 143 -41t129 -41q78 0 119 82l84 -67q-31 -70 -88.5 -108t-120.5 -38q-51 0 -143.5 41t-126.5 41q-82 0 -127 -84z" />
<glyph unicode="&#x2000;" horiz-adv-x="878" />
<glyph unicode="&#x2001;" horiz-adv-x="1759" />
<glyph unicode="&#x2002;" horiz-adv-x="878" />
<glyph unicode="&#x2003;" horiz-adv-x="1759" />
<glyph unicode="&#x2004;" horiz-adv-x="585" />
<glyph unicode="&#x2005;" horiz-adv-x="438" />
<glyph unicode="&#x2006;" horiz-adv-x="292" />
<glyph unicode="&#x2007;" horiz-adv-x="292" />
<glyph unicode="&#x2008;" horiz-adv-x="219" />
<glyph unicode="&#x2009;" horiz-adv-x="350" />
<glyph unicode="&#x200a;" horiz-adv-x="96" />
<glyph unicode="&#x2010;" horiz-adv-x="770" d="M168 449l25 165h557l-25 -165h-557z" />
<glyph unicode="&#x2011;" horiz-adv-x="770" d="M168 449l25 165h557l-25 -165h-557z" />
<glyph unicode="&#x2012;" horiz-adv-x="770" d="M168 449l25 165h557l-25 -165h-557z" />
<glyph unicode="&#x2013;" horiz-adv-x="1224" d="M164 463l20 139h1024l-20 -139h-1024z" />
<glyph unicode="&#x2014;" horiz-adv-x="1785" d="M164 465l20 135h1585l-20 -135h-1585z" />
<glyph unicode="&#x2018;" horiz-adv-x="440" d="M180 1006l234 428h129l-144 -428h-219z" />
<glyph unicode="&#x2019;" horiz-adv-x="440" d="M240 1006l143 428h219l-235 -428h-127z" />
<glyph unicode="&#x201a;" horiz-adv-x="440" d="M53 -313l144 428h219l-236 -428h-127z" />
<glyph unicode="&#x201c;" horiz-adv-x="825" d="M180 1006l236 428h127l-144 -428h-219zM567 1006l234 428h127l-144 -428h-217z" />
<glyph unicode="&#x201d;" horiz-adv-x="825" d="M240 1006l143 428h219l-235 -428h-127zM625 1006l143 428h219l-235 -428h-127z" />
<glyph unicode="&#x201e;" horiz-adv-x="825" d="M53 -315l144 430h219l-236 -430h-127zM438 -315l144 430h219l-236 -430h-127z" />
<glyph unicode="&#x2022;" horiz-adv-x="1067" d="M219 674q0 131 91 222t222.5 91t223.5 -91t92 -222t-92 -222.5t-223.5 -91.5t-222.5 91.5t-91 222.5z" />
<glyph unicode="&#x2026;" horiz-adv-x="1435" d="M106 70q0 57 40 92t98 35q47 0 77.5 -23.5t30.5 -69.5q0 -57 -41 -90.5t-98 -33.5q-45 0 -76 23.5t-31 66.5zM606 70q0 57 40 92t97 35q47 0 78 -23.5t31 -69.5q0 -55 -41 -89.5t-96 -34.5q-47 0 -78 22.5t-31 67.5zM1108 70q0 57 39 92t98 35q47 0 78 -23.5t31 -69.5 q0 -55 -41 -89.5t-99 -34.5q-45 0 -75.5 23.5t-30.5 66.5z" />
<glyph unicode="&#x202f;" horiz-adv-x="350" />
<glyph unicode="&#x2039;" horiz-adv-x="538" d="M127 627l342 401l113 -67l-295 -336l202 -330l-133 -70z" />
<glyph unicode="&#x203a;" horiz-adv-x="538" d="M133 295l291 330l-199 336l133 67l230 -401l-342 -402z" />
<glyph unicode="&#x205f;" horiz-adv-x="438" />
<glyph unicode="&#x20ac;" d="M109 477l18 109h143q8 119 27 190h-145l16 109h151q33 119 73 205t103.5 156.5t155.5 106.5t215 36q127 0 220.5 -49.5t173.5 -155.5l-127 -111q-100 164 -283 164q-160 0 -232.5 -87t-117.5 -265h544l-14 -109h-549q-16 -80 -26 -190h549l-17 -109h-541v-39 q0 -150 52.5 -230.5t193.5 -80.5q111 0 194 49t165 146l88 -113q-219 -233 -473 -234q-233 0 -318.5 127t-85.5 375h-153z" />
<glyph unicode="&#x2122;" horiz-adv-x="1306" d="M285 1343l12 91h430l-12 -91h-162l-55 -389h-107l55 389h-161zM770 954l68 480h92l139 -252l207 252h94l-67 -480h-103l43 299l-199 -233l-131 233l-43 -299h-100z" />
<glyph unicode="&#xe000;" horiz-adv-x="1030" d="M0 1030h1030v-1030h-1030v1030z" />
<glyph unicode="&#xfb01;" horiz-adv-x="1142" d="M809 0l143 1028h178l-143 -1028h-178zM962 1268q0 51 39 83.5t90 32.5q98 0 99 -81q0 -55 -36 -88t-91 -33q-43 0 -72 22.5t-29 63.5zM178 883l21 145h157l21 152q20 145 85.5 204.5t237.5 59.5q53 0 125 -10l-18 -136q-51 10 -96 11q-90 0 -120 -27t-40 -113l-21 -141 h222l-21 -143h-215l-123 -885h-180l123 883h-158z" />
<glyph unicode="&#xfb02;" horiz-adv-x="1210" d="M831 137q0 39 4 62l174 1235h179l-168 -1190q-4 -25 -4 -43q0 -33 12 -43q18 -16 80 -17h63l-18 -141q-55 -10 -140 -10q-96 0 -139 33.5t-43 113.5zM178 883l21 145h157l21 152q20 145 85.5 204.5t237.5 59.5q53 0 125 -10l-18 -136q-51 10 -96 11q-90 0 -120 -27 t-40 -113l-21 -141h222l-21 -143h-215l-123 -885h-180l123 883h-158z" />
<glyph unicode="&#xfb03;" horiz-adv-x="1796" d="M1463 0l143 1028h178l-143 -1028h-178zM1616 1268q0 51 39 83.5t90 32.5q98 0 99 -81q0 -55 -36 -88t-91 -33q-43 0 -72 22.5t-29 63.5zM831 883l21 145h157l21 152q20 145 85.5 204.5t237.5 59.5q53 0 125 -10l-18 -136q-51 10 -96 11q-90 0 -120 -27t-40 -113l-21 -141 h222l-21 -143h-215l-123 -885h-180l123 883h-158zM178 883l21 145h157l21 152q20 145 85.5 204.5t237.5 59.5q53 0 125 -10l-18 -136q-51 10 -96 11q-90 0 -120 -27t-40 -113l-21 -141h222l-21 -143h-215l-123 -885h-180l123 883h-158z" />
<glyph unicode="&#xfb04;" horiz-adv-x="1863" d="M1485 137q0 39 4 62l174 1235h179l-168 -1190q-4 -25 -4 -43q0 -33 12 -43q18 -16 80 -17h63l-18 -141q-55 -10 -140 -10q-96 0 -139 33.5t-43 113.5zM831 883l21 145h157l21 152q20 145 85.5 204.5t237.5 59.5q53 0 125 -10l-18 -136q-51 10 -96 11q-90 0 -120 -27 t-40 -113l-21 -141h222l-21 -143h-215l-123 -885h-180l123 883h-158zM178 883l21 145h157l21 152q20 145 85.5 204.5t237.5 59.5q53 0 125 -10l-18 -136q-51 10 -96 11q-90 0 -120 -27t-40 -113l-21 -141h222l-21 -143h-215l-123 -885h-180l123 883h-158z" />
</font>
</defs>
</svg>
